<svg version="1.1" xmlns="http://www.w3.org/2000/svg" viewBox="0 0 890 370" width="1780" height="740"><!-- svg-source:excalidraw --><metadata></metadata><defs><style class="style-fonts">
      </style></defs><rect x="0" y="0" width="890" height="370" fill="#ffffff"></rect><g transform="translate(40 10) rotate(0 58 11.5)"><text x="0" y="16.900390625" font-family="Helvetica, Segoe UI Emoji" font-size="20px" fill="#000000" text-anchor="start" style="white-space: pre;" direction="ltr" dominant-baseline="alphabetic">Regular Blob:</text></g><g stroke-linecap="round" transform="translate(40 40) rotate(0 75 25)"><path d="M12.5 0 C36.14 0.77, 62.32 0.89, 137.5 0 M12.5 0 C46.23 0.66, 81.29 -0.3, 137.5 0 M137.5 0 C146.8 1.45, 150.77 4.53, 150 12.5 M137.5 0 C147.5 1.49, 148.58 4.25, 150 12.5 M150 12.5 C149.05 21, 148.83 31.14, 150 37.5 M150 12.5 C149.88 21.12, 149.58 29.9, 150 37.5 M150 37.5 C150.13 44.38, 146.72 48.26, 137.5 50 M150 37.5 C149.59 47.58, 143.75 49.03, 137.5 50 M137.5 50 C87.97 48.34, 41.84 50.4, 12.5 50 M137.5 50 C87.39 51.6, 38.09 50.49, 12.5 50 M12.5 50 C5.59 48.97, -1.75 47.12, 0 37.5 M12.5 50 C5.06 48.22, 1.92 46.35, 0 37.5 M0 37.5 C-0.61 27.88, -0.49 20.75, 0 12.5 M0 37.5 C-0.68 29.95, 0.36 21.67, 0 12.5 M0 12.5 C0.03 5.81, 3.46 -0.1, 12.5 0 M0 12.5 C1.75 1.98, 5.35 -0.48, 12.5 0" stroke="#000000" stroke-width="1" fill="none"></path></g><g transform="translate(65 55) rotate(0 50 10)"><text x="50" y="14.3203125" font-family="Helvetica, Segoe UI Emoji" font-size="16px" fill="#000000" text-anchor="middle" style="white-space: pre;" direction="ltr" dominant-baseline="alphabetic">my-file.pdf</text></g><g stroke-linecap="round"><g transform="translate(115 90) rotate(0 0 20)"><path d="M0.48 0.08 C0.54 6.66, -0.11 33.17, -0.2 39.74 M0.06 -0.35 C0.08 6.27, -0.65 33.6, -0.73 40.31" stroke="#000000" stroke-width="1" fill="none"></path></g><g transform="translate(115 90) rotate(0 0 20)"><path d="M-7.19 21.38 C-5.7 24.79, -5.02 28.85, -0.73 40.31 M-7.19 21.38 C-5.61 25.98, -4.08 29.8, -0.73 40.31" stroke="#000000" stroke-width="1" fill="none"></path></g><g transform="translate(115 90) rotate(0 0 20)"><path d="M6.49 21.66 C5.24 25.07, 3.17 29.07, -0.73 40.31 M6.49 21.66 C5.12 26.14, 3.7 29.89, -0.73 40.31" stroke="#000000" stroke-width="1" fill="none"></path></g></g><mask></mask><g transform="translate(50 140) rotate(0 75 10)"><text x="75" y="14.3203125" font-family="Helvetica, Segoe UI Emoji" font-size="16px" fill="#000000" text-anchor="middle" style="white-space: pre;" direction="ltr" dominant-baseline="alphabetic">BlobId: ABC123...</text></g><g transform="translate(10 165) rotate(0 125 10)"><text x="125" y="13.7802734375" font-family="Helvetica, Segoe UI Emoji" font-size="14px" fill="#666666" text-anchor="middle" style="white-space: pre;" direction="ltr" dominant-baseline="alphabetic">(always the same for this content)</text></g><g transform="translate(340 10) rotate(0 100 11.5)"><text x="0" y="16.900390625" font-family="Helvetica, Segoe UI Emoji" font-size="20px" fill="#000000" text-anchor="start" style="white-space: pre;" direction="ltr" dominant-baseline="alphabetic">Same File in Quilt A:</text></g><g stroke-linecap="round" transform="translate(340 40) rotate(0 125 75)"><path d="M32 0 C69.68 0.38, 106.47 0.43, 218 0 M32 0 C81.79 -0.54, 132.84 0.32, 218 0 M218 0 C238.57 -1.63, 250.66 9.77, 250 32 M218 0 C237.87 -2.19, 248.49 9.09, 250 32 M250 32 C250.18 59.71, 250.19 85.97, 250 118 M250 32 C249.86 57.75, 248.5 81.78, 250 118 M250 118 C249.67 138.03, 240.63 148.23, 218 150 M250 118 C250.87 138.16, 238.83 151.84, 218 150 M218 150 C152.48 152.66, 86.85 152.77, 32 150 M218 150 C146.79 151.63, 77.03 150.06, 32 150 M32 150 C11.41 148.22, 0.67 137.39, 0 118 M32 150 C10.62 151.07, 1.68 140.28, 0 118 M0 118 C-0.73 96.04, 1.52 76.02, 0 32 M0 118 C0.71 87.23, -0.42 56.95, 0 32 M0 32 C-0.38 11.95, 10.81 1.12, 32 0 M0 32 C-0.48 8.37, 12.02 1.37, 32 0" stroke="#000000" stroke-width="1" fill="none"></path></g><g transform="translate(350 50) rotate(0 50 10)"><text x="0" y="14.3203125" font-family="Helvetica, Segoe UI Emoji" font-size="16px" fill="#000000" text-anchor="start" style="white-space: pre;" direction="ltr" dominant-baseline="alphabetic">Quilt A</text></g><g stroke-linecap="round" transform="translate(350 80) rotate(0 115 15)"><path d="M7.5 0 C48.97 1.33, 93.1 1.73, 222.5 0 M7.5 0 C53.51 1.34, 99.54 0.72, 222.5 0 M222.5 0 C228.14 -0.57, 228.42 0.86, 230 7.5 M222.5 0 C226.44 -1.06, 230.42 4.39, 230 7.5 M230 7.5 C230 13.44, 229.35 19.4, 230 22.5 M230 7.5 C229.74 11.48, 229.85 15.72, 230 22.5 M230 22.5 C230.86 26.99, 225.77 28.79, 222.5 30 M230 22.5 C232.09 26.45, 228.87 28.86, 222.5 30 M222.5 30 C141.98 32.13, 59.48 32.26, 7.5 30 M222.5 30 C176.18 30.84, 131.43 30.08, 7.5 30 M7.5 30 C3.47 31.64, 0.32 26.61, 0 22.5 M7.5 30 C1.52 31.03, 1.4 28.64, 0 22.5 M0 22.5 C1.39 18.31, 0.05 17.14, 0 7.5 M0 22.5 C-0.35 17.4, 0.63 12.74, 0 7.5 M0 7.5 C0.49 3.78, 3.54 -1.5, 7.5 0 M0 7.5 C-1.72 0.66, 1.28 1.31, 7.5 0" stroke="#000000" stroke-width="1" fill="none"></path></g><g transform="translate(360 85) rotate(0 50 10)"><text x="0" y="14.3203125" font-family="Helvetica, Segoe UI Emoji" font-size="16px" fill="#000000" text-anchor="start" style="white-space: pre;" direction="ltr" dominant-baseline="alphabetic">my-file.pdf</text></g><g transform="translate(360 120) rotate(0 75 10)"><text x="0" y="14.3203125" font-family="Helvetica, Segoe UI Emoji" font-size="16px" fill="#666666" text-anchor="start" style="white-space: pre;" direction="ltr" dominant-baseline="alphabetic">other-file.txt</text></g><g stroke-linecap="round"><g transform="translate(580 95) rotate(0 20 0)"><path d="M0.41 -0.39 C7.19 -0.38, 33.48 0.04, 40.15 0.04 M-0.04 0.61 C6.73 0.7, 33.07 0.85, 39.8 0.75" stroke="#000000" stroke-width="1" fill="none"></path></g><g transform="translate(580 95) rotate(0 20 0)"><path d="M19.28 -7.02 C14.79 -5.33, 11.76 -3.47, 0.41 -0.39 M19.28 -7.02 C14.66 -5.06, 10.59 -4.06, 0.41 -0.39" stroke="#000000" stroke-width="1" fill="none"></path></g><g transform="translate(580 95) rotate(0 20 0)"><path d="M19.13 6.66 C14.66 5.6, 11.67 4.71, 0.41 -0.39 M19.13 6.66 C14.49 5.46, 10.45 3.31, 0.41 -0.39" stroke="#000000" stroke-width="1" fill="none"></path></g></g><mask></mask><g transform="translate(630 95) rotate(0 125 10)"><text x="0" y="14.3203125" font-family="Helvetica, Segoe UI Emoji" font-size="16px" fill="#000000" text-anchor="start" style="white-space: pre;" direction="ltr" dominant-baseline="alphabetic">QuiltPatchId: ABC123...XYZ</text></g><g transform="translate(340 210) rotate(0 100 11.5)"><text x="0" y="16.900390625" font-family="Helvetica, Segoe UI Emoji" font-size="20px" fill="#000000" text-anchor="start" style="white-space: pre;" direction="ltr" dominant-baseline="alphabetic">Same File in Quilt B:</text></g><g stroke-linecap="round" transform="translate(340 240) rotate(0 125 60)"><path d="M30 0 C66.29 -3.77, 106.27 -3.78, 220 0 M30 0 C80.37 -1.8, 131.94 -1.13, 220 0 M220 0 C241.5 -0.71, 250.55 11.85, 250 30 M220 0 C240.01 -1.26, 248.41 11.37, 250 30 M250 30 C247.96 47.51, 248.18 60.49, 250 90 M250 30 C248.6 45.64, 250.19 59.67, 250 90 M250 90 C249.2 108.84, 241.7 118.21, 220 120 M250 90 C252.15 110.51, 241.08 120.06, 220 120 M220 120 C160.58 119.31, 97.54 121.46, 30 120 M220 120 C150.51 121.23, 83.11 121.19, 30 120 M30 120 C10.06 121.47, -0.9 108.82, 0 90 M30 120 C9.02 119.31, 1.43 111.37, 0 90 M0 90 C-1.17 69.5, -0.78 50.4, 0 30 M0 90 C1.03 77.85, -0.27 65.41, 0 30 M0 30 C-0.79 10.93, 10.99 -1.67, 30 0 M0 30 C1.88 12.19, 11.52 -1.39, 30 0" stroke="#000000" stroke-width="1" fill="none"></path></g><g transform="translate(350 250) rotate(0 50 10)"><text x="0" y="14.3203125" font-family="Helvetica, Segoe UI Emoji" font-size="16px" fill="#000000" text-anchor="start" style="white-space: pre;" direction="ltr" dominant-baseline="alphabetic">Quilt B</text></g><g stroke-linecap="round" transform="translate(350 280) rotate(0 115 15)"><path d="M7.5 0 C50.57 1.17, 93.31 1.51, 222.5 0 M7.5 0 C53.05 0.17, 100.3 1.14, 222.5 0 M222.5 0 C226.41 0.35, 228.31 3.6, 230 7.5 M222.5 0 C227.91 -0.14, 230.34 2.74, 230 7.5 M230 7.5 C231.23 13.49, 230.74 17.17, 230 22.5 M230 7.5 C230.13 11.06, 229.45 14.97, 230 22.5 M230 22.5 C230.39 27.14, 226.17 28.77, 222.5 30 M230 22.5 C228.77 28.13, 225.85 31.68, 222.5 30 M222.5 30 C146.64 28.93, 72.73 30.84, 7.5 30 M222.5 30 C138.64 30.43, 53.41 31.02, 7.5 30 M7.5 30 C2.78 30.9, -1.25 27.37, 0 22.5 M7.5 30 C0.58 29.27, 1.15 29.06, 0 22.5 M0 22.5 C1.26 16.99, -1.48 14.08, 0 7.5 M0 22.5 C-0.43 16.6, 0.42 12.05, 0 7.5 M0 7.5 C0.08 3.42, 4.39 -0.29, 7.5 0 M0 7.5 C0.64 0.55, 1.45 -1.44, 7.5 0" stroke="#000000" stroke-width="1" fill="none"></path></g><g transform="translate(360 285) rotate(0 50 10)"><text x="0" y="14.3203125" font-family="Helvetica, Segoe UI Emoji" font-size="16px" fill="#000000" text-anchor="start" style="white-space: pre;" direction="ltr" dominant-baseline="alphabetic">my-file.pdf</text></g><g transform="translate(360 320) rotate(0 75 10)"><text x="0" y="14.3203125" font-family="Helvetica, Segoe UI Emoji" font-size="16px" fill="#666666" text-anchor="start" style="white-space: pre;" direction="ltr" dominant-baseline="alphabetic">another-file.doc</text></g><g stroke-linecap="round"><g transform="translate(580 295) rotate(0 20 0)"><path d="M-0.54 0.09 C6.26 0.18, 33.42 0.12, 40.26 0.04 M0.18 -0.34 C6.98 -0.1, 33.25 0.7, 39.96 0.76" stroke="#000000" stroke-width="1" fill="none"></path></g><g transform="translate(580 295) rotate(0 20 0)"><path d="M18.25 -6.74 C14.6 -4.98, 10.73 -3.12, -0.54 0.09 M18.25 -6.74 C13.45 -5.04, 9.19 -4.08, -0.54 0.09" stroke="#000000" stroke-width="1" fill="none"></path></g><g transform="translate(580 295) rotate(0 20 0)"><path d="M18.25 6.94 C14.66 5.94, 10.79 5.05, -0.54 0.09 M18.25 6.94 C13.43 5.49, 9.16 3.3, -0.54 0.09" stroke="#000000" stroke-width="1" fill="none"></path></g></g><mask></mask><g transform="translate(630 295) rotate(0 125 10)"><text x="0" y="14.3203125" font-family="Helvetica, Segoe UI Emoji" font-size="16px" fill="#000000" text-anchor="start" style="white-space: pre;" direction="ltr" dominant-baseline="alphabetic">QuiltPatchId: DEF456...UVW</text></g><g transform="translate(630 320) rotate(0 125 10)"><text x="0" y="14.3203125" font-family="Helvetica, Segoe UI Emoji" font-size="16px" fill="#e03131" text-anchor="start" style="white-space: pre;" direction="ltr" dominant-baseline="alphabetic">(DIFFERENT from Quilt A!)</text></g></svg>