<svg version="1.1" xmlns="http://www.w3.org/2000/svg" viewBox="0 0 618.8515625 694.08984375" width="1237.703125" height="1388.1796875"><!-- svg-source:excalidraw --><metadata></metadata><defs><style class="style-fonts">
      </style></defs><rect x="0" y="0" width="618.8515625" height="694.08984375" fill="#ffffff"></rect><g stroke-linecap="round" transform="translate(10 10) rotate(0 299.42578125 337.044921875)"><path d="M32 0 C150.96 -1.83, 266.05 -1.35, 566.85 0 C590.94 -2.71, 599.28 14.22, 598.85 32 C596.13 230.59, 595.58 429.98, 598.85 642.09 C596.59 666.73, 590.41 672.06, 566.85 674.09 C387.65 672.56, 209.03 672.08, 32 674.09 C7.68 671.31, 0.36 665.81, 0 642.09 C0.66 492.73, 1.98 346.58, 0 32 C2.2 9.91, 9.94 -0.48, 32 0" stroke="none" stroke-width="0" fill="#ffffff"></path><path d="M32 0 C139.32 -0.05, 245.82 0.03, 566.85 0 M32 0 C177.55 0.53, 322.86 1.02, 566.85 0 M566.85 0 C586.89 0.53, 599.73 12.29, 598.85 32 M566.85 0 C588.38 0.56, 597.52 12.4, 598.85 32 M598.85 32 C598.34 164, 598.16 297.88, 598.85 642.09 M598.85 32 C596.68 269.52, 596.98 507.05, 598.85 642.09 M598.85 642.09 C599.45 661.82, 588.67 672.37, 566.85 674.09 M598.85 642.09 C597.16 663.49, 589.12 674.9, 566.85 674.09 M566.85 674.09 C451.92 676.12, 336.56 676.13, 32 674.09 M566.85 674.09 C451.34 676.36, 335.89 676.1, 32 674.09 M32 674.09 C8.78 673.8, -0.18 663.95, 0 642.09 M32 674.09 C12.5 674.07, 2.16 663.52, 0 642.09 M0 642.09 C-2.06 467, -1.27 291.52, 0 32 M0 642.09 C-0.46 473.71, 0.03 304.54, 0 32 M0 32 C0.44 12.66, 9.12 -1.31, 32 0 M0 32 C-0.62 8.6, 11.68 2.27, 32 0" stroke="#000000" stroke-width="2" fill="none"></path></g><g transform="translate(22.0802001953125 30) rotate(0 287.9197998046875 22.5)"><text x="287.9197998046875" y="12.900390625" font-family="Helvetica, Segoe UI Emoji" font-size="20px" fill="#000000" text-anchor="middle" style="white-space: pre;" direction="ltr" dominant-baseline="alphabetic">QUILT</text><text x="287.9197998046875" y="27.900390625" font-family="Helvetica, Segoe UI Emoji" font-size="20px" fill="#000000" text-anchor="middle" style="white-space: pre;" direction="ltr" dominant-baseline="alphabetic"></text><text x="287.9197998046875" y="42.900390625" font-family="Helvetica, Segoe UI Emoji" font-size="20px" fill="#000000" text-anchor="middle" style="white-space: pre;" direction="ltr" dominant-baseline="alphabetic">(BlobId: 057MX9PAaUIQLliItM_khR_cp5jPHzJWf-CuJr1z1ik)</text></g><g stroke-linecap="round" transform="translate(30 90) rotate(0 280 80)"><path d="M32 0 C161.99 2.12, 288.92 0.67, 528 0 C550.41 -0.94, 561.28 14.13, 560 32 C563.43 68.82, 559.24 104.44, 560 128 C560.4 152.06, 548.8 161.11, 528 160 C426.3 163, 323.45 161.53, 32 160 C8.92 158.86, 1.08 149.3, 0 128 C-1.09 96.31, 1.66 67.13, 0 32 C-0.6 8.39, 8.49 -1.43, 32 0" stroke="none" stroke-width="0" fill="#e6fcff"></path><path d="M32 0 C130.63 -1.68, 230.02 -1.43, 528 0 M32 0 C139.37 -1.78, 245.98 -1.92, 528 0 M528 0 C549.44 1.59, 558.64 11.55, 560 32 M528 0 C549.93 1.68, 560.6 11.26, 560 32 M560 32 C561.2 54.99, 559.89 80.17, 560 128 M560 32 C560.25 66.43, 560.5 102.99, 560 128 M560 128 C561.79 148.54, 550.79 158.84, 528 160 M560 128 C559.53 149.52, 547.54 157.83, 528 160 M528 160 C405.14 161.69, 282.59 161.72, 32 160 M528 160 C405.01 161.63, 282.23 161.66, 32 160 M32 160 C9.01 159.14, -0.53 150.92, 0 128 M32 160 C11.56 159.95, 1.88 149.62, 0 128 M0 128 C1.67 102.15, -0.39 77.41, 0 32 M0 128 C-0.07 105.9, -0.41 83.97, 0 32 M0 32 C1.31 12.66, 10.01 0.08, 32 0 M0 32 C-1.86 9.05, 9.11 2.22, 32 0" stroke="#000000" stroke-width="1" fill="none"></path></g><g transform="translate(50 110) rotate(0 260 60)"><text x="0" y="16.3203125" font-family="Helvetica, Segoe UI Emoji" font-size="16px" fill="#000000" text-anchor="start" style="white-space: pre;" direction="ltr" dominant-baseline="alphabetic">Quilt Index (Metadata)</text><text x="0" y="40.3203125" font-family="Helvetica, Segoe UI Emoji" font-size="16px" fill="#000000" text-anchor="start" style="white-space: pre;" direction="ltr" dominant-baseline="alphabetic">- Version byte</text><text x="0" y="64.3203125" font-family="Helvetica, Segoe UI Emoji" font-size="16px" fill="#000000" text-anchor="start" style="white-space: pre;" direction="ltr" dominant-baseline="alphabetic">- Index size</text><text x="0" y="88.3203125" font-family="Helvetica, Segoe UI Emoji" font-size="16px" fill="#000000" text-anchor="start" style="white-space: pre;" direction="ltr" dominant-baseline="alphabetic">- Patch locations and sizes</text><text x="0" y="112.3203125" font-family="Helvetica, Segoe UI Emoji" font-size="16px" fill="#000000" text-anchor="start" style="white-space: pre;" direction="ltr" dominant-baseline="alphabetic">- Identifiers and tags</text></g><g stroke-linecap="round" transform="translate(30 270) rotate(0 280 80)"><path d="M32 0 C181.53 -1.3, 328.92 -1.77, 528 0 C548.73 0.83, 562.14 14.04, 560 32 C558.61 54.97, 558.83 73.54, 560 128 C563.07 151.48, 546.05 157.05, 528 160 C391.56 160.15, 252.25 157.71, 32 160 C10.16 160.5, 1.8 146.88, 0 128 C2.89 109.58, -2.13 88.14, 0 32 C-3.4 14.08, 14.23 -2.38, 32 0" stroke="none" stroke-width="0" fill="#fff5f5"></path><path d="M32 0 C131.33 2.32, 229.77 2.73, 528 0 M32 0 C210.94 0, 389.44 0.03, 528 0 M528 0 C550.85 -1.35, 560.39 10.8, 560 32 M528 0 C550.33 -1.79, 557.93 10.12, 560 32 M560 32 C559.39 58.85, 561.2 85.35, 560 128 M560 32 C559.73 65.79, 559.48 97.79, 560 128 M560 128 C558.98 149.34, 547.75 159.4, 528 160 M560 128 C560.75 149.65, 549.41 159.45, 528 160 M528 160 C390.45 161.47, 252.33 161.52, 32 160 M528 160 C389.97 161.11, 251.46 161.42, 32 160 M32 160 C9.23 158.56, -0.88 147.97, 0 128 M32 160 C10.62 159.91, 1.6 149.81, 0 128 M0 128 C0.75 104.12, -1.34 83.42, 0 32 M0 128 C0.55 90.51, -1.36 55.28, 0 32 M0 32 C-1.82 12.65, 10.91 1.46, 32 0 M0 32 C1.5 9.51, 11.14 2.16, 32 0" stroke="#000000" stroke-width="1" fill="none"></path></g><g transform="translate(50 290) rotate(0 260 60)"><text x="0" y="19.3203125" font-family="Helvetica, Segoe UI Emoji" font-size="16px" fill="#000000" text-anchor="start" style="white-space: pre;" direction="ltr" dominant-baseline="alphabetic">Patch 1: "document.pdf"</text><text x="0" y="49.3203125" font-family="Helvetica, Segoe UI Emoji" font-size="16px" fill="#000000" text-anchor="start" style="white-space: pre;" direction="ltr" dominant-baseline="alphabetic">QuiltPatchId: 057MX...1ikBAAACAAA</text><text x="0" y="79.3203125" font-family="Helvetica, Segoe UI Emoji" font-size="16px" fill="#000000" text-anchor="start" style="white-space: pre;" direction="ltr" dominant-baseline="alphabetic">Tags: {author: "Alice", status: "final"}</text><text x="0" y="109.3203125" font-family="Helvetica, Segoe UI Emoji" font-size="16px" fill="#000000" text-anchor="start" style="white-space: pre;" direction="ltr" dominant-baseline="alphabetic">Data: [PDF bytes...]</text></g><g stroke-linecap="round" transform="translate(30 450) rotate(0 280 80)"><path d="M32 0 C201.08 2.54, 368.91 0.12, 528 0 C547.04 2.6, 562.99 13.95, 560 32 C564.45 60.31, 561.88 88.24, 560 128 C558.54 150.9, 550.49 160.2, 528 160 C356.83 161.64, 183.97 164.08, 32 160 C11.39 162.13, 2.52 151.66, 0 128 C-0.32 96.46, 1.28 70.76, 0 32 C1 12.56, 12.78 -3.34, 32 0" stroke="none" stroke-width="0" fill="#f3f0ff"></path><path d="M32 0 C130.4 0.66, 231.15 1.23, 528 0 M32 0 C182.51 1.77, 333.69 1.17, 528 0 M528 0 C548.25 -0.3, 558.15 10.06, 560 32 M528 0 C550.72 -0.67, 559.86 8.99, 560 32 M560 32 C559.49 62.72, 560.43 94.53, 560 128 M560 32 C561.2 63.15, 560.45 94.58, 560 128 M560 128 C560.17 150.14, 548.72 159.96, 528 160 M560 128 C561.98 149.77, 551.28 161.07, 528 160 M528 160 C374.13 161.26, 220.45 161.32, 32 160 M528 160 C374.11 160.58, 219.88 161.19, 32 160 M32 160 C9.46 161.99, -1.23 149.03, 0 128 M32 160 C9.68 159.88, 1.32 150.01, 0 128 M0 128 C-0.16 106.09, 1.71 89.43, 0 32 M0 128 C-0.83 96.31, -0.3 62.99, 0 32 M0 32 C-0.95 12.64, 11.81 -1.16, 32 0 M0 32 C0.26 9.97, 8.56 2.11, 32 0" stroke="#000000" stroke-width="1" fill="none"></path></g><g transform="translate(50 470) rotate(0 260 60)"><text x="0" y="19.3203125" font-family="Helvetica, Segoe UI Emoji" font-size="16px" fill="#000000" text-anchor="start" style="white-space: pre;" direction="ltr" dominant-baseline="alphabetic">Patch 2: "image.png"</text><text x="0" y="49.3203125" font-family="Helvetica, Segoe UI Emoji" font-size="16px" fill="#000000" text-anchor="start" style="white-space: pre;" direction="ltr" dominant-baseline="alphabetic">QuiltPatchId: 057MX...1ikBAgADAAA</text><text x="0" y="79.3203125" font-family="Helvetica, Segoe UI Emoji" font-size="16px" fill="#000000" text-anchor="start" style="white-space: pre;" direction="ltr" dominant-baseline="alphabetic">Tags: {type: "thumbnail"}</text><text x="0" y="109.3203125" font-family="Helvetica, Segoe UI Emoji" font-size="16px" fill="#000000" text-anchor="start" style="white-space: pre;" direction="ltr" dominant-baseline="alphabetic">Data: [PNG bytes...]</text></g><g transform="translate(50 630) rotate(0 260 15)"><text x="260" y="19.3203125" font-family="Helvetica, Segoe UI Emoji" font-size="16px" fill="#000000" text-anchor="middle" style="white-space: pre;" direction="ltr" dominant-baseline="alphabetic">[... more patches ...]</text></g></svg>