<svg version="1.1" xmlns="http://www.w3.org/2000/svg" viewBox="0 0 1071.46484375 848.8828125" width="2142.9296875" height="1697.765625"><!-- svg-source:excalidraw --><metadata></metadata><defs><style class="style-fonts">
      </style></defs><rect x="0" y="0" width="1071.46484375" height="848.8828125" fill="#ffffff"></rect><g transform="translate(222.046875 10) rotate(0 259.223876953125 20)"><text x="259.223876953125" y="27.560546875" font-family="Helvetica, Segoe UI Emoji" font-size="28px" fill="#1e1e1e" text-anchor="middle" style="white-space: pre;" direction="ltr" dominant-baseline="alphabetic">Quilt Structure: Batching Small Blobs</text></g><g stroke-linecap="round" transform="translate(245.9609375 83.4296875) rotate(0 60 40)"><path d="M20 0 C42.12 -2.75, 55.64 -0.33, 100 0 C115.25 -1.83, 117.25 10.18, 120 20 C120.46 26.91, 117.67 41.42, 120 60 C119.07 76.35, 114.18 79.54, 100 80 C75.72 77.76, 57.98 82.56, 20 80 C4.3 78.04, -2.88 74.51, 0 60 C-1.05 47.32, -1.62 39.9, 0 20 C0.8 8.75, 8.81 2.65, 20 0" stroke="none" stroke-width="0" fill="#e7f5ff"></path><path d="M20 0 C35.72 0.4, 53.36 0.8, 100 0 M20 0 C46.91 -0.74, 75.58 -0.3, 100 0 M100 0 C112.74 -0.94, 119.76 7.92, 120 20 M100 0 C111.43 -1.18, 119.63 7.83, 120 20 M120 20 C121.1 27.9, 120.23 39.26, 120 60 M120 20 C119.87 35.53, 119.37 50.14, 120 60 M120 60 C119.19 72.14, 112.3 78.56, 100 80 M120 60 C118.92 71.16, 112.9 79.32, 100 80 M100 80 C81.6 82.36, 63.05 82.4, 20 80 M100 80 C82.07 81.19, 63.46 79.9, 20 80 M20 80 C4.89 81.43, 1.65 72.39, 0 60 M20 80 C8.03 82.26, 2.02 71.23, 0 60 M0 60 C0.38 46.49, 0.34 29.05, 0 20 M0 60 C0.12 46.16, 0.56 31.43, 0 20 M0 20 C-1.13 8.66, 5.56 -0.62, 20 0 M0 20 C1.06 4.82, 6.39 2.24, 20 0" stroke="#1e1e1e" stroke-width="2" fill="none"></path></g><g transform="translate(265.9609375 103.4296875) rotate(0 40 10)"><text x="40" y="14.3203125" font-family="Helvetica, Segoe UI Emoji" font-size="16px" fill="#1e1e1e" text-anchor="middle" style="white-space: pre;" direction="ltr" dominant-baseline="alphabetic">file1.pdf</text></g><g transform="translate(255.9609375 128.4296875) rotate(0 50 7.5)"><text x="50" y="10.740234375" font-family="Helvetica, Segoe UI Emoji" font-size="12px" fill="#666666" text-anchor="middle" style="white-space: pre;" direction="ltr" dominant-baseline="alphabetic">id: paper-v2</text></g><g transform="translate(255.9609375 143.4296875) rotate(0 50 7.5)"><text x="50" y="10.740234375" font-family="Helvetica, Segoe UI Emoji" font-size="12px" fill="#666666" text-anchor="middle" style="white-space: pre;" direction="ltr" dominant-baseline="alphabetic">tags: author=Alice</text></g><g stroke-linecap="round" transform="translate(395.9609375 83.4296875) rotate(0 60 40)"><path d="M20 0 C47.15 -1.06, 70.11 -1, 100 0 C111.88 1.71, 118.96 10, 120 20 C121.37 31.92, 120.2 45.05, 120 60 C117.2 75.19, 115.87 78.62, 100 80 C82.37 80.48, 62.74 80.48, 20 80 C6.77 81.31, -1.44 76.87, 0 60 C-3.14 53.15, 2.35 40.51, 0 20 C2.4 5.72, 5.91 0.74, 20 0" stroke="none" stroke-width="0" fill="#e7f5ff"></path><path d="M20 0 C35.15 -0.39, 52.09 0.81, 100 0 M20 0 C38.73 -0.21, 56.74 -0.91, 100 0 M100 0 C111.55 1.18, 119.27 6.43, 120 20 M100 0 C112.23 1.07, 118.89 5.56, 120 20 M120 20 C119.31 31.7, 120.69 45.78, 120 60 M120 20 C120.42 32.59, 120.92 46.43, 120 60 M120 60 C121.57 73.74, 114.24 79.68, 100 80 M120 60 C121.36 71.41, 112.05 77.96, 100 80 M100 80 C76.79 81.47, 53.14 81.59, 20 80 M100 80 C76.2 79.96, 52.39 80.09, 20 80 M20 80 C5.35 80.28, 0.95 74.5, 0 60 M20 80 C6.15 82.19, 1.46 71.61, 0 60 M0 60 C1.93 47.48, 1.82 35.16, 0 20 M0 60 C-0.43 50.49, 0.88 40.29, 0 20 M0 20 C0.62 8.65, 7.36 -1.85, 20 0 M0 20 C-1.42 5.74, 5.85 2.13, 20 0" stroke="#1e1e1e" stroke-width="2" fill="none"></path></g><g transform="translate(415.9609375 103.4296875) rotate(0 40 10)"><text x="40" y="14.3203125" font-family="Helvetica, Segoe UI Emoji" font-size="16px" fill="#1e1e1e" text-anchor="middle" style="white-space: pre;" direction="ltr" dominant-baseline="alphabetic">file2.pdf</text></g><g transform="translate(405.9609375 128.4296875) rotate(0 50 7.5)"><text x="50" y="10.740234375" font-family="Helvetica, Segoe UI Emoji" font-size="12px" fill="#666666" text-anchor="middle" style="white-space: pre;" direction="ltr" dominant-baseline="alphabetic">id: paper-v3</text></g><g transform="translate(405.9609375 143.4296875) rotate(0 50 7.5)"><text x="50" y="10.740234375" font-family="Helvetica, Segoe UI Emoji" font-size="12px" fill="#666666" text-anchor="middle" style="white-space: pre;" direction="ltr" dominant-baseline="alphabetic">tags: author=Bob</text></g><g stroke-linecap="round" transform="translate(545.9609375 83.4296875) rotate(0 60 40)"><path d="M20 0 C52.19 0.64, 84.59 -1.67, 100 0 C115.72 -1.95, 120.67 9.82, 120 20 C122.29 28.93, 122.73 39.88, 120 60 C122.54 74.03, 110.36 77.71, 100 80 C73.02 83.21, 42.7 78.41, 20 80 C9.25 77.39, 0 72.03, 0 60 C3.4 51.78, 0.55 41.12, 0 20 C-3.19 9.89, 10.2 -1.17, 20 0" stroke="none" stroke-width="0" fill="#e7f5ff"></path><path d="M20 0 C34.58 0.42, 50.81 2.41, 100 0 M20 0 C46.56 -0.09, 71.91 0.09, 100 0 M100 0 C114.36 -0.71, 118.79 4.94, 120 20 M100 0 C113.02 -1.29, 118.15 7.88, 120 20 M120 20 C121.52 35.51, 121.14 48.3, 120 60 M120 20 C120.97 31.65, 120.47 42.71, 120 60 M120 60 C119.95 71.35, 112.17 80.8, 100 80 M120 60 C119.21 71.66, 111.19 81.2, 100 80 M100 80 C71.99 80.58, 43.23 80.78, 20 80 M100 80 C72.33 80.74, 43.32 80.29, 20 80 M20 80 C5.8 79.13, 0.24 72.61, 0 60 M20 80 C8.87 82.12, 0.9 72, 0 60 M0 60 C-1.31 48.46, -1.5 37.27, 0 20 M0 60 C1.01 44.81, -0.81 31.14, 0 20 M0 20 C-1.64 8.63, 5.15 0.92, 20 0 M0 20 C0.7 6.66, 5.3 2.02, 20 0" stroke="#1e1e1e" stroke-width="2" fill="none"></path></g><g transform="translate(565.9609375 103.4296875) rotate(0 40 10)"><text x="40" y="14.3203125" font-family="Helvetica, Segoe UI Emoji" font-size="16px" fill="#1e1e1e" text-anchor="middle" style="white-space: pre;" direction="ltr" dominant-baseline="alphabetic">file3.pdf</text></g><g transform="translate(555.9609375 128.4296875) rotate(0 50 7.5)"><text x="50" y="10.740234375" font-family="Helvetica, Segoe UI Emoji" font-size="12px" fill="#666666" text-anchor="middle" style="white-space: pre;" direction="ltr" dominant-baseline="alphabetic">id: report-2024</text></g><g transform="translate(555.9609375 143.4296875) rotate(0 50 7.5)"><text x="50" y="10.740234375" font-family="Helvetica, Segoe UI Emoji" font-size="12px" fill="#666666" text-anchor="middle" style="white-space: pre;" direction="ltr" dominant-baseline="alphabetic">tags: status=final</text></g><g transform="translate(695.9609375 123.4296875) rotate(0 20 10)"><text x="20" y="15.400390625" font-family="Helvetica, Segoe UI Emoji" font-size="20px" fill="#1e1e1e" text-anchor="middle" style="white-space: pre;" direction="ltr" dominant-baseline="alphabetic">...</text></g><g stroke-linecap="round"><g transform="translate(365.9609375 123.4296875) rotate(0 15 0)"><path d="M-0.53 0.24 C4.49 0.24, 24.42 -0.16, 29.58 -0.22 M0.2 -0.12 C5.44 -0.02, 25.58 0.28, 30.59 0.37" stroke="#1e1e1e" stroke-width="2" fill="none"></path></g><g transform="translate(365.9609375 123.4296875) rotate(0 15 0)"><path d="M16.42 5.27 C19.58 3.78, 21.8 3.92, 30.59 0.37 M16.42 5.27 C20.76 3.97, 24.59 2.7, 30.59 0.37" stroke="#1e1e1e" stroke-width="2" fill="none"></path></g><g transform="translate(365.9609375 123.4296875) rotate(0 15 0)"><path d="M16.58 -4.99 C19.69 -4.43, 21.88 -2.24, 30.59 0.37 M16.58 -4.99 C20.83 -3.42, 24.61 -1.82, 30.59 0.37" stroke="#1e1e1e" stroke-width="2" fill="none"></path></g></g><mask></mask><g stroke-linecap="round"><g transform="translate(515.9609375 123.4296875) rotate(0 15 0)"><path d="M0.13 -0.08 C5.29 -0.01, 25.39 0.18, 30.39 0.24 M-0.46 -0.59 C4.7 -0.68, 25.1 -0.59, 30.16 -0.6" stroke="#1e1e1e" stroke-width="2" fill="none"></path></g><g transform="translate(515.9609375 123.4296875) rotate(0 15 0)"><path d="M16.06 4.51 C18.78 4, 22.04 2.68, 30.16 -0.6 M16.06 4.51 C21.09 2.82, 25.76 0.83, 30.16 -0.6" stroke="#1e1e1e" stroke-width="2" fill="none"></path></g><g transform="translate(515.9609375 123.4296875) rotate(0 15 0)"><path d="M16.07 -5.75 C18.78 -4.2, 22.03 -3.48, 30.16 -0.6 M16.07 -5.75 C21.06 -3.83, 25.72 -2.2, 30.16 -0.6" stroke="#1e1e1e" stroke-width="2" fill="none"></path></g></g><mask></mask><g stroke-linecap="round"><g transform="translate(665.9609375 123.4296875) rotate(0 15 0)"><path d="M-0.31 -0.39 C4.8 -0.45, 25.07 -0.39, 30.11 -0.39 M0.54 0.6 C5.63 0.6, 24.89 0.21, 29.73 0.1" stroke="#1e1e1e" stroke-width="2" fill="none"></path></g><g transform="translate(665.9609375 123.4296875) rotate(0 15 0)"><path d="M15.74 5.52 C18.01 4.62, 20.8 3.31, 29.73 0.1 M15.74 5.52 C18.64 4.6, 22.07 2.9, 29.73 0.1" stroke="#1e1e1e" stroke-width="2" fill="none"></path></g><g transform="translate(665.9609375 123.4296875) rotate(0 15 0)"><path d="M15.53 -4.74 C17.83 -3.58, 20.67 -2.85, 29.73 0.1 M15.53 -4.74 C18.44 -3.36, 21.92 -2.76, 29.73 0.1" stroke="#1e1e1e" stroke-width="2" fill="none"></path></g></g><mask></mask><g transform="translate(321.9140625 192.75) rotate(0 147.04986572265625 12.5)"><text x="147.04986572265625" y="17.900390625" font-family="Helvetica, Segoe UI Emoji" font-size="20px" fill="#1e1e1e" text-anchor="middle" style="white-space: pre;" direction="ltr" dominant-baseline="alphabetic">walrus store-quilt --epochs 10</text></g><g stroke-linecap="round"><g transform="translate(478.7732248867176 217.81421355267042) rotate(0 0 30.676089053059798)"><path d="M-0.18 0.17 C-0.15 10.54, -0.85 52.17, -1.01 62.51 M-1.73 -0.78 C-1.23 9.26, 0.69 50.82, 1.17 60.99" stroke="#1e1e1e" stroke-width="2" fill="none"></path></g><g transform="translate(478.7732248867176 217.81421355267042) rotate(0 0 30.676089053059798)"><path d="M-8.47 37.92 C-6.2 40.87, -2.63 45.27, 1.17 60.99 M-8.47 37.92 C-5.3 45.42, -1.82 55.05, 1.17 60.99" stroke="#1e1e1e" stroke-width="2" fill="none"></path></g><g transform="translate(478.7732248867176 217.81421355267042) rotate(0 0 30.676089053059798)"><path d="M8.61 37.12 C7.47 40.2, 7.61 44.76, 1.17 60.99 M8.61 37.12 C5.5 45, 2.69 54.92, 1.17 60.99" stroke="#1e1e1e" stroke-width="2" fill="none"></path></g></g><mask></mask><g stroke-linecap="round" transform="translate(233.3645124622392 279.16639165879) rotate(0 245.40871242447838 110.43392059101527)"><path d="M32 0 C200.92 1.31, 371.95 2.66, 458.82 0 C481.32 -0.29, 488.57 13.37, 490.82 32 C490.06 81.36, 490.95 131.14, 490.82 188.87 C492.3 208, 477.8 219.88, 458.82 220.87 C326.71 220.83, 196.75 219.58, 32 220.87 C12.23 219.25, 3.6 211.2, 0 188.87 C2.53 145.88, -3.17 108.81, 0 32 C-2.79 13.52, 14.14 1.26, 32 0" stroke="none" stroke-width="0" fill="#d4edda"></path><path d="M32 0 C116.96 2.78, 202.6 2.77, 458.82 0 M32 0 C134.87 1.7, 236.99 1.89, 458.82 0 M458.82 0 C480.2 0.58, 490.4 9.21, 490.82 32 M458.82 0 C481.82 -0.27, 489.42 10.8, 490.82 32 M490.82 32 C491.18 85.92, 490.43 140.43, 490.82 188.87 M490.82 32 C492.05 93.93, 491.04 153.68, 490.82 188.87 M490.82 188.87 C492.72 208.23, 479.83 220.46, 458.82 220.87 M490.82 188.87 C491.53 209.16, 478.17 220.97, 458.82 220.87 M458.82 220.87 C324.54 223.52, 190.52 221.65, 32 220.87 M458.82 220.87 C324.27 219.55, 188.86 219.08, 32 220.87 M32 220.87 C10.93 221.12, -1.51 210.75, 0 188.87 M32 220.87 C12.78 222.82, -0.51 209.83, 0 188.87 M0 188.87 C0.35 136.5, -0.02 82.83, 0 32 M0 188.87 C-0.32 137.12, -1.95 85.41, 0 32 M0 32 C-1.28 12.6, 9.64 -0.16, 32 0 M0 32 C-0.91 12.94, 10.24 1.75, 32 0" stroke="#1e1e1e" stroke-width="3" fill="none"></path></g><g transform="translate(290.31658904481054 297.4857685901642) rotate(0 191.63957965234422 18.405653431835873)"><text x="191.6395796523442" y="26.357470891058725" font-family="Helvetica, Segoe UI Emoji" font-size="29.449045490937408px" fill="#1e1e1e" text-anchor="middle" style="white-space: pre;" direction="ltr" dominant-baseline="alphabetic">Quilt (Single Storage Unit)</text></g><g transform="translate(257.90538370468704 340.5185697649096) rotate(0 220.86784118203056 12.270435621223925)"><text x="0" y="16.90899580577058" font-family="Helvetica, Segoe UI Emoji" font-size="17.17860986971349px" fill="#666666" text-anchor="start" style="white-space: pre;" direction="ltr" dominant-baseline="alphabetic">Quilt ID: VaLUNS4dLkh0GSx0TpPvyf0iHzrTyliMfREUgiXkBDM</text></g><g stroke-linecap="round" transform="translate(257.90538370468704 377.32987662858136) rotate(0 67.48739591673157 42.94652467428372)"><path d="M21.47 0 C55.03 -2.88, 87.28 -2.04, 113.5 0 C130.12 -1.69, 131.8 4.85, 134.97 21.47 C136.48 34.54, 135.32 42.85, 134.97 64.42 C136.08 78.1, 126.36 89.36, 113.5 85.89 C75.97 89.57, 42.3 88.35, 21.47 85.89 C9.23 86.14, 2.9 79.2, 0 64.42 C-3.67 52.13, 0.45 36.38, 0 21.47 C-0.73 4.6, 7.65 2.61, 21.47 0" stroke="none" stroke-width="0" fill="#f8f9fa"></path><path d="M21.47 0 C39.61 -2.44, 58.95 -1.86, 113.5 0 M113.5 0 C126.93 0.21, 136.72 8.18, 134.97 21.47 M134.97 21.47 C133.46 34.15, 135.51 47.91, 134.97 64.42 M134.97 64.42 C134.95 77.96, 129.12 84.52, 113.5 85.89 M113.5 85.89 C94.21 84.96, 77.5 85.5, 21.47 85.89 M21.47 85.89 C8.34 84.15, -0.02 78.74, 0 64.42 M0 64.42 C2.02 47.63, -0.54 32.81, 0 21.47 M0 21.47 C-1.78 8.41, 5.87 0.2, 21.47 0" stroke="#666666" stroke-width="1.5" fill="none" stroke-dasharray="8 9"></path></g><g transform="translate(270.175819325911 389.6003122498053) rotate(0 55.21696029550763 9.20282671591795)"><text x="55.21696029550764" y="13.178735445529362" font-family="Helvetica, Segoe UI Emoji" font-size="14.724522745468704px" fill="#1e1e1e" text-anchor="middle" style="white-space: pre;" direction="ltr" dominant-baseline="alphabetic">Patch 1</text></g><g transform="translate(264.04060151529904 414.14118349225316) rotate(0 61.35217810611961 21.473262337141875)"><text x="61.3521781061196" y="10.471011387056805" font-family="Helvetica, Segoe UI Emoji" font-size="12.270435621223921px" fill="#666666" text-anchor="middle" style="white-space: pre;" direction="ltr" dominant-baseline="alphabetic">id: paper-v2</text><text x="61.3521781061196" y="24.786519611818044" font-family="Helvetica, Segoe UI Emoji" font-size="12.270435621223921px" fill="#666666" text-anchor="middle" style="white-space: pre;" direction="ltr" dominant-baseline="alphabetic">QuiltPatchId:</text><text x="61.3521781061196" y="39.10202783657928" font-family="Helvetica, Segoe UI Emoji" font-size="12.270435621223921px" fill="#666666" text-anchor="middle" style="white-space: pre;" direction="ltr" dominant-baseline="alphabetic">ABC123...</text></g><g stroke-linecap="round" transform="translate(411.2858289699861 377.32987662858136) rotate(0 67.48739591673157 42.94652467428372)"><path d="M21.47 0 C43.04 -0.38, 61.09 0.57, 113.5 0 C124.62 -2.07, 138.12 6.27, 134.97 21.47 C137.32 34.87, 138.2 53.07, 134.97 64.42 C133.87 81.62, 125.7 86.21, 113.5 85.89 C88.52 82.48, 64 81.72, 21.47 85.89 C10.28 83.52, 2.5 76.29, 0 64.42 C1.63 56.78, 2.22 42.26, 0 21.47 C-0.04 5.67, 8.81 2.48, 21.47 0" stroke="none" stroke-width="0" fill="#f8f9fa"></path><path d="M21.47 0 C40.18 -1.19, 59.99 -0.01, 113.5 0 M113.5 0 C127.25 1.02, 136.34 7.36, 134.97 21.47 M134.97 21.47 C134.84 36.48, 135.42 52.29, 134.97 64.42 M134.97 64.42 C133.47 77.42, 127.64 87.04, 113.5 85.89 M113.5 85.89 C91.98 87.26, 65.13 88.74, 21.47 85.89 M21.47 85.89 C7.71 85.23, -1.85 78.13, 0 64.42 M0 64.42 C1.83 48.61, -1.06 33.2, 0 21.47 M0 21.47 C-0.19 6.58, 6.32 0.32, 21.47 0" stroke="#666666" stroke-width="1.5" fill="none" stroke-dasharray="8 9"></path></g><g transform="translate(423.55626459121 389.6003122498053) rotate(0 55.21696029550765 9.20282671591795)"><text x="55.21696029550764" y="13.178735445529362" font-family="Helvetica, Segoe UI Emoji" font-size="14.724522745468704px" fill="#1e1e1e" text-anchor="middle" style="white-space: pre;" direction="ltr" dominant-baseline="alphabetic">Patch 2</text></g><g transform="translate(417.42104678059803 414.14118349225316) rotate(0 61.352178106119595 21.473262337141875)"><text x="61.3521781061196" y="10.471011387056805" font-family="Helvetica, Segoe UI Emoji" font-size="12.270435621223921px" fill="#666666" text-anchor="middle" style="white-space: pre;" direction="ltr" dominant-baseline="alphabetic">id: paper-v3</text><text x="61.3521781061196" y="24.786519611818044" font-family="Helvetica, Segoe UI Emoji" font-size="12.270435621223921px" fill="#666666" text-anchor="middle" style="white-space: pre;" direction="ltr" dominant-baseline="alphabetic">QuiltPatchId:</text><text x="61.3521781061196" y="39.10202783657928" font-family="Helvetica, Segoe UI Emoji" font-size="12.270435621223921px" fill="#666666" text-anchor="middle" style="white-space: pre;" direction="ltr" dominant-baseline="alphabetic">DEF456...</text></g><g stroke-linecap="round" transform="translate(564.6662742352851 377.32987662858136) rotate(0 67.48739591673154 42.94652467428372)"><path d="M21.47 0 C42.25 2.12, 71.7 -4.02, 113.5 0 C126.33 -2.45, 137.24 7.69, 134.97 21.47 C136.6 33.81, 132.32 46.11, 134.97 64.42 C131.67 77.94, 125.04 83.06, 113.5 85.89 C82.67 85.91, 56.08 85.62, 21.47 85.89 C4.14 88.09, 2.09 80.58, 0 64.42 C1.28 52.84, -1.67 30.95, 0 21.47 C0.64 6.75, 9.97 2.35, 21.47 0" stroke="none" stroke-width="0" fill="#f8f9fa"></path><path d="M21.47 0 C40.75 0.07, 57.04 1.85, 113.5 0 M113.5 0 C127.57 1.83, 135.96 6.54, 134.97 21.47 M134.97 21.47 C133.09 30.23, 136.2 39.5, 134.97 64.42 M134.97 64.42 C135.99 76.89, 126.16 85.56, 113.5 85.89 M113.5 85.89 C85.76 87.73, 56.76 86.14, 21.47 85.89 M21.47 85.89 C7.08 86.31, 0.33 77.52, 0 64.42 M0 64.42 C1.64 49.59, -1.59 29.59, 0 21.47 M0 21.47 C1.4 8.74, 6.76 0.43, 21.47 0" stroke="#666666" stroke-width="1.5" fill="none" stroke-dasharray="8 9"></path></g><g transform="translate(576.936709856509 389.6003122498053) rotate(0 55.21696029550765 9.20282671591795)"><text x="55.21696029550764" y="13.178735445529362" font-family="Helvetica, Segoe UI Emoji" font-size="14.724522745468704px" fill="#1e1e1e" text-anchor="middle" style="white-space: pre;" direction="ltr" dominant-baseline="alphabetic">Patch 3</text></g><g transform="translate(570.801492045897 414.14118349225316) rotate(0 61.352178106119595 21.473262337141875)"><text x="61.3521781061196" y="10.471011387056805" font-family="Helvetica, Segoe UI Emoji" font-size="12.270435621223921px" fill="#666666" text-anchor="middle" style="white-space: pre;" direction="ltr" dominant-baseline="alphabetic">id: report-2024</text><text x="61.3521781061196" y="24.786519611818044" font-family="Helvetica, Segoe UI Emoji" font-size="12.270435621223921px" fill="#666666" text-anchor="middle" style="white-space: pre;" direction="ltr" dominant-baseline="alphabetic">QuiltPatchId:</text><text x="61.3521781061196" y="39.10202783657928" font-family="Helvetica, Segoe UI Emoji" font-size="12.270435621223921px" fill="#666666" text-anchor="middle" style="white-space: pre;" direction="ltr" dominant-baseline="alphabetic">GHI789...</text></g><g transform="translate(711.9115016899722 414.14118349225316) rotate(0 12.270435621223896 12.270435621223925)"><text x="12.270435621223921" y="17.571647260705817" font-family="Helvetica, Segoe UI Emoji" font-size="19.632696993958273px" fill="#1e1e1e" text-anchor="middle" style="white-space: pre;" direction="ltr" dominant-baseline="alphabetic">...</text></g><g transform="translate(326.078125 653.83203125) rotate(0 150 12.5)"><text x="150" y="17.900390625" font-family="Helvetica, Segoe UI Emoji" font-size="20px" fill="#1e1e1e" text-anchor="middle" style="white-space: pre;" direction="ltr" dominant-baseline="alphabetic">Retrieval Methods</text></g><g stroke-linecap="round"><g transform="translate(325.39277962141864 463.22292597714886) rotate(0 -1.20703125 80.23513498867175)"><path d="M-0.13 -0.51 C-0.46 25.99, -2.93 133.22, -3.15 159.95 M-1.66 -1.83 C-1.49 24.75, -0.81 134.1, -0.83 161.21" stroke="#28a745" stroke-width="2" fill="none"></path></g><g transform="translate(325.39277962141864 463.22292597714886) rotate(0 -1.20703125 80.23513498867175)"><path d="M-9.45 137.75 C-8.4 141.22, -6.69 148.7, -0.83 161.21 M-9.45 137.75 C-7.74 143.86, -6.04 149.1, -0.83 161.21" stroke="#28a745" stroke-width="2" fill="none"></path></g><g transform="translate(325.39277962141864 463.22292597714886) rotate(0 -1.20703125 80.23513498867175)"><path d="M7.65 137.69 C5.28 141.16, 3.57 148.64, -0.83 161.21 M7.65 137.69 C5.12 143.74, 2.59 148.98, -0.83 161.21" stroke="#28a745" stroke-width="2" fill="none"></path></g></g><mask></mask><g transform="translate(329.1875 537.7151325151043) rotate(0 61.557407598035695 16.896773225456116)"><text x="0" y="11.642107762910701" font-family="Helvetica, Segoe UI Emoji" font-size="11.827741257819277px" fill="#28a745" text-anchor="start" style="white-space: pre;" direction="ltr" dominant-baseline="alphabetic">By Identifier:</text><text x="0" y="28.53888098836681" font-family="Helvetica, Segoe UI Emoji" font-size="11.827741257819277px" fill="#28a745" text-anchor="start" style="white-space: pre;" direction="ltr" dominant-baseline="alphabetic">--identifiers paper-v2</text></g><g stroke-linecap="round"><g transform="translate(478.7732248867177 463.22292597714886) rotate(0 -0.5722656250000568 88.31325998867175)"><path d="M0.35 0.52 C0.43 29.98, -0.46 146.18, -0.72 175.72 M-0.92 -0.26 C-0.86 29.42, -1.27 147.41, -1.45 176.78" stroke="#007bff" stroke-width="2" fill="none"></path></g><g transform="translate(478.7732248867177 463.22292597714886) rotate(0 -0.5722656250000568 88.31325998867175)"><path d="M-9.9 153.25 C-7.55 158.64, -8.23 162.52, -1.45 176.78 M-9.9 153.25 C-6.56 163.1, -2.53 172.17, -1.45 176.78" stroke="#007bff" stroke-width="2" fill="none"></path></g><g transform="translate(478.7732248867177 463.22292597714886) rotate(0 -0.5722656250000568 88.31325998867175)"><path d="M7.21 153.33 C6.13 158.75, 2.02 162.62, -1.45 176.78 M7.21 153.33 C3.84 163.27, 1.17 172.31, -1.45 176.78" stroke="#007bff" stroke-width="2" fill="none"></path></g></g><mask></mask><g transform="translate(485.2407436744784 537.8401325151043) rotate(0 60.7274173572838 19.235815429041224)"><text x="0" y="13.253739820273449" font-family="Helvetica, Segoe UI Emoji" font-size="13.465070800328832px" fill="#007bff" text-anchor="start" style="white-space: pre;" direction="ltr" dominant-baseline="alphabetic">By Tag:</text><text x="0" y="32.489555249314634" font-family="Helvetica, Segoe UI Emoji" font-size="13.465070800328832px" fill="#007bff" text-anchor="start" style="white-space: pre;" direction="ltr" dominant-baseline="alphabetic">--tag author Alice</text></g><g stroke-linecap="round"><g transform="translate(632.1536701520166 463.22292597714886) rotate(0 0.73828125 82.95388498867175)"><path d="M0.84 -0.85 C1.15 27.09, 0.73 139.15, 0.65 167.02 M-0.18 1.31 C0.62 29, 2.45 138.33, 2.93 165.48" stroke="#6f42c1" stroke-width="2" fill="none"></path></g><g transform="translate(632.1536701520166 463.22292597714886) rotate(0 0.73828125 82.95388498867175)"><path d="M-6.03 142.14 C-5.78 145.37, -0.72 149.62, 2.93 165.48 M-6.03 142.14 C-2.53 149.09, 0.35 157.22, 2.93 165.48" stroke="#6f42c1" stroke-width="2" fill="none"></path></g><g transform="translate(632.1536701520166 463.22292597714886) rotate(0 0.73828125 82.95388498867175)"><path d="M11.07 141.84 C7.89 145.26, 9.54 149.56, 2.93 165.48 M11.07 141.84 C8.82 148.88, 5.96 157.11, 2.93 165.48" stroke="#6f42c1" stroke-width="2" fill="none"></path></g></g><mask></mask><g transform="translate(650.3564873489568 532.8987262651043) rotate(0 82.66744419173256 19.604325652666432)"><text x="0" y="13.507648402576935" font-family="Helvetica, Segoe UI Emoji" font-size="13.723027956866481px" fill="#6f42c1" text-anchor="start" style="white-space: pre;" direction="ltr" dominant-baseline="alphabetic">By QuiltPatchId:</text><text x="0" y="33.11197405524334" font-family="Helvetica, Segoe UI Emoji" font-size="13.723027956866481px" fill="#6f42c1" text-anchor="start" style="white-space: pre;" direction="ltr" dominant-baseline="alphabetic">--quilt-patch-ids ABC123</text></g><g stroke-linecap="round" transform="translate(10 698.6875) rotate(0 525.732421875 70.09765625)"><path d="M32 0 C425.25 0.74, 820.29 -0.07, 1019.46 0 C1039.54 3.01, 1050.56 12.47, 1051.46 32 C1049.12 47.09, 1050.9 66.63, 1051.46 108.2 C1050.82 128.73, 1039.71 141.82, 1019.46 140.2 C806.04 143.95, 591.58 144.91, 32 140.2 C10.19 140.56, 3.6 127.93, 0 108.2 C0.03 83.78, -4.17 60.4, 0 32 C-1.98 12.77, 14 -1.07, 32 0" stroke="none" stroke-width="0" fill="#fff3cd"></path><path d="M32 0 C229.79 3.75, 427.83 3.74, 1019.46 0 M32 0 C308.58 3.26, 584.44 3.55, 1019.46 0 M1019.46 0 C1038.9 -0.83, 1052.62 9.76, 1051.46 32 M1019.46 0 C1041.85 1.75, 1050.97 8.63, 1051.46 32 M1051.46 32 C1051.34 54.89, 1053.83 76.94, 1051.46 108.2 M1051.46 32 C1051.22 61.38, 1051.2 89.41, 1051.46 108.2 M1051.46 108.2 C1053.28 127.59, 1042.16 141.39, 1019.46 140.2 M1051.46 108.2 C1050.6 129.74, 1039.13 138.1, 1019.46 140.2 M1019.46 140.2 C795.45 143.03, 571.04 141.76, 32 140.2 M1019.46 140.2 C789.94 138.87, 559.48 138.96, 32 140.2 M32 140.2 C9.19 138.7, -1.03 128.63, 0 108.2 M32 140.2 C12.59 141.79, 1.28 131.08, 0 108.2 M0 108.2 C1.15 86.18, 0.41 67.55, 0 32 M0 108.2 C0.42 89.15, -0.85 69.18, 0 32 M0 32 C-0.56 12.52, 10.61 1.68, 32 0 M0 32 C0.49 12.92, 12.11 1.2, 32 0" stroke="#ffc107" stroke-width="2" fill="none"></path></g><g transform="translate(45.048828125 716.2119140625) rotate(0 87.6220703125 17.5244140625)"><text x="0" y="25.095508575439453" font-family="Helvetica, Segoe UI Emoji" font-size="28.0390625px" fill="#856404" text-anchor="start" style="white-space: pre;" direction="ltr" dominant-baseline="alphabetic">Important:</text></g><g transform="translate(45.048828125 760.02294921875) rotate(0 490.68359375 35.048828125)"><text x="0" y="18.307650407155357" font-family="Helvetica, Segoe UI Emoji" font-size="24.5341796875px" fill="#856404" text-anchor="start" style="white-space: pre;" direction="ltr" dominant-baseline="alphabetic">• Patches use QuiltPatchId (not standard BlobId)</text><text x="0" y="41.67353582382202" font-family="Helvetica, Segoe UI Emoji" font-size="24.5341796875px" fill="#856404" text-anchor="start" style="white-space: pre;" direction="ltr" dominant-baseline="alphabetic">• Individual patches cannot be deleted/extended - operations apply to entire quilt</text><text x="0" y="65.03942124048869" font-family="Helvetica, Segoe UI Emoji" font-size="24.5341796875px" fill="#856404" text-anchor="start" style="white-space: pre;" direction="ltr" dominant-baseline="alphabetic">• Quilts reduce storage overhead for many small blobs</text></g><g stroke-linecap="round" transform="translate(287.421875 640.828125) rotate(0 197.1640625 24.927734375)"><path d="M12.46 0 C138.5 -0.34, 262.84 0.44, 381.86 0 M12.46 0 C128.36 2.68, 244.13 2.27, 381.86 0 M381.86 0 C390.15 1.16, 392.33 5.68, 394.33 12.46 M381.86 0 C391.06 -0.83, 396.1 5.73, 394.33 12.46 M394.33 12.46 C394.29 23.46, 394.08 30.35, 394.33 37.39 M394.33 12.46 C394.3 21.34, 394.06 29.58, 394.33 37.39 M394.33 37.39 C395.55 45.41, 389.69 50.65, 381.86 49.86 M394.33 37.39 C394.65 45.2, 391.92 49.14, 381.86 49.86 M381.86 49.86 C246.02 50.86, 109.41 51.5, 12.46 49.86 M381.86 49.86 C238.35 51.05, 95.55 51.44, 12.46 49.86 M12.46 49.86 C5.36 48.41, -1.33 44.04, 0 37.39 M12.46 49.86 C5.1 51.39, -1.74 45.97, 0 37.39 M0 37.39 C0.69 30.28, -1.17 21.19, 0 12.46 M0 37.39 C0.01 27.72, 0.96 20.16, 0 12.46 M0 12.46 C1.55 5.48, 4.15 0.79, 12.46 0 M0 12.46 C0.63 2.43, 5.18 -0.63, 12.46 0" stroke="#1e1e1e" stroke-width="2" fill="none"></path></g></svg>