<svg version="1.1" xmlns="http://www.w3.org/2000/svg" viewBox="0 0 1448.2047334558824 857.7109375" width="2896.409466911765" height="1715.421875"><!-- svg-source:excalidraw --><metadata></metadata><defs><style class="style-fonts">
      </style></defs><rect x="0" y="0" width="1448.2047334558824" height="857.7109375" fill="#f8f9fa"></rect><g stroke-linecap="round" transform="translate(10 216.671875) rotate(0 95.54765625 79.623046875)"><path d="M32 0 C60.54 0.22, 92.03 2.99, 159.1 0 C181.46 -2.32, 190.54 7.59, 191.1 32 C186.8 51.29, 193.12 71.67, 191.1 127.25 C190.8 150.71, 182.71 159.88, 159.1 159.25 C112.36 158.38, 62.36 162.31, 32 159.25 C12.81 160.47, 2.69 150.45, 0 127.25 C-2.2 94.84, -1.91 59.31, 0 32 C0.59 9.43, 13.43 2.92, 32 0" stroke="none" stroke-width="0" fill="#d4edda"></path><path d="M32 0 C65.7 0.81, 99.53 -1.61, 159.1 0 M32 0 C68.93 -1.85, 104.6 0.09, 159.1 0 M159.1 0 C182.01 1.21, 190.61 9.76, 191.1 32 M159.1 0 C179.78 -2.06, 192.28 9.99, 191.1 32 M191.1 32 C191.32 62.63, 188.72 95.89, 191.1 127.25 M191.1 32 C191.99 56.76, 190.52 82.5, 191.1 127.25 M191.1 127.25 C192.52 146.99, 179.71 157.46, 159.1 159.25 M191.1 127.25 C189.47 149.45, 180.06 160.16, 159.1 159.25 M159.1 159.25 C128.83 158.82, 96.41 161.42, 32 159.25 M159.1 159.25 C130.07 158.94, 100.82 160.42, 32 159.25 M32 159.25 C10.2 158.52, 1.98 149.93, 0 127.25 M32 159.25 C10.07 157.39, 0.95 148.85, 0 127.25 M0 127.25 C0.26 95.95, -0.54 68.02, 0 32 M0 127.25 C0.9 95.97, 1 65.58, 0 32 M0 32 C1.63 11.53, 11.16 -1.28, 32 0 M0 32 C-2.22 12.45, 12.3 1.66, 32 0" stroke="#28a745" stroke-width="2" fill="none"></path></g><g transform="translate(50.134992065429685 239.420428314209) rotate(0 47.773828125 19.90576171875)"><text x="47.773828125" y="26.78569061279297" font-family="Helvetica, Segoe UI Emoji" font-size="25.479375px" fill="#333333" text-anchor="middle" style="white-space: pre;" direction="ltr" dominant-baseline="alphabetic">Client</text></g><g transform="translate(57.599652709960935 293.0353533935547) rotate(0 47.773828125 31.849218750000006)"><text x="47.773828125" y="21.084556045532228" font-family="Helvetica, Segoe UI Emoji" font-size="19.10953125px" fill="#333333" text-anchor="middle" style="white-space: pre;" direction="ltr" dominant-baseline="alphabetic">HTTP GET</text><text x="47.773828125" y="52.93377479553223" font-family="Helvetica, Segoe UI Emoji" font-size="19.10953125px" fill="#333333" text-anchor="middle" style="white-space: pre;" direction="ltr" dominant-baseline="alphabetic">Blob ID</text></g><g stroke-linecap="round" transform="translate(391.3125 10) rotate(0 261.3194056919643 292.677734375)"><path d="M32 0 C149.47 0.78, 267.31 0.81, 490.64 0 C509.55 -3.23, 520.5 11.84, 522.64 32 C521.89 171.3, 520.9 311.28, 522.64 553.36 C522.17 577.86, 513.46 585.96, 490.64 585.36 C358.33 589.41, 225.69 587, 32 585.36 C11.47 583.87, 0.81 572.15, 0 553.36 C1.01 409.37, 0.57 265.28, 0 32 C0.63 12.75, 7.6 -2.51, 32 0" stroke="none" stroke-width="0" fill="#d1ecf1"></path><path d="M32 0 C155.24 -1.16, 279.1 0.21, 490.64 0 M32 0 C208.98 -1.12, 385.26 -0.3, 490.64 0 M490.64 0 C510.26 -0.98, 524.35 10.68, 522.64 32 M490.64 0 C512.65 1.77, 522.78 11.93, 522.64 32 M522.64 32 C520.56 207.35, 521.03 383.21, 522.64 553.36 M522.64 32 C521.47 171.37, 521.45 309.95, 522.64 553.36 M522.64 553.36 C521.77 575.98, 513.95 585.16, 490.64 585.36 M522.64 553.36 C520.71 576.95, 511.13 583.55, 490.64 585.36 M490.64 585.36 C397.81 583.94, 305.61 582.99, 32 585.36 M490.64 585.36 C368.37 586.77, 246.08 586.6, 32 585.36 M32 585.36 C12.51 586.24, -1.99 572.85, 0 553.36 M32 585.36 C11.64 583.92, -1.15 575.65, 0 553.36 M0 553.36 C1.5 445.8, 1.77 340.08, 0 32 M0 553.36 C-1.93 395.86, -1.8 238.74, 0 32 M0 32 C1.89 12.29, 9.81 -0.41, 32 0 M0 32 C-0.85 9.74, 10.72 0.63, 32 0" stroke="#0dcaf0" stroke-width="3" fill="none"></path></g><g transform="translate(536.6570870535714 29.627511160714278) rotate(0 104.52776227678572 26.13194056919643)"><text x="104.52776227678571" y="37.42175551823207" font-family="Helvetica, Segoe UI Emoji" font-size="41.811104910714285px" fill="#333333" text-anchor="middle" style="white-space: pre;" direction="ltr" dominant-baseline="alphabetic">Aggregator</text></g><g stroke-linecap="round" transform="translate(413.1275111607143 114.52776227678572) rotate(0 235.70166015624997 52.26388113839286)"><path d="M26.13 0 C170.62 2.29, 316.66 0.89, 445.27 0 C461.68 -0.17, 473.21 7.1, 471.4 26.13 C468.55 45.81, 470.15 64.34, 471.4 78.4 C473.59 94.62, 459.63 104.16, 445.27 104.53 C340.61 108.01, 235.89 107.8, 26.13 104.53 C11.22 107.95, 0.73 97.28, 0 78.4 C-2.09 63.47, -2.1 48.11, 0 26.13 C1.52 6.84, 11.09 0.12, 26.13 0" stroke="none" stroke-width="0" fill="#e8f4f8"></path><path d="M26.13 0 C186.91 -1.36, 350.21 -1.62, 445.27 0 M26.13 0 C187.19 -0.97, 348.71 -0.5, 445.27 0 M445.27 0 C462 -0.59, 471.6 8.64, 471.4 26.13 M445.27 0 C462.93 1.99, 473.34 10.54, 471.4 26.13 M471.4 26.13 C469.99 42.87, 469.16 59.87, 471.4 78.4 M471.4 26.13 C471.58 45.04, 470.93 63.54, 471.4 78.4 M471.4 78.4 C472.29 96.65, 464.64 104.69, 445.27 104.53 M471.4 78.4 C470.78 97.33, 461.05 102.4, 445.27 104.53 M445.27 104.53 C316.98 104, 189.51 103.77, 26.13 104.53 M445.27 104.53 C311.14 107.02, 177.36 106.2, 26.13 104.53 M26.13 104.53 C7.68 105.77, 0.38 96.81, 0 78.4 M26.13 104.53 C6.62 103.54, 1.23 97.94, 0 78.4 M0 78.4 C-0.76 64.14, 0.11 47.16, 0 26.13 M0 78.4 C0.13 62.98, -1.07 45.41, 0 26.13 M0 26.13 C-1.59 8.6, 6.94 0.68, 26.13 0 M0 26.13 C1.4 8.94, 9.17 0.23, 26.13 0" stroke="#4a90e2" stroke-width="2" fill="none"></path></g><g transform="translate(536.6922433035714 117.42905970982144) rotate(0 104.52776227678572 26.131940569196416)"><text x="104.52776227678571" y="34.03481103352138" font-family="Helvetica, Segoe UI Emoji" font-size="29.267773437499997px" fill="#333333" text-anchor="middle" style="white-space: pre;" direction="ltr" dominant-baseline="alphabetic">1. Query Sui</text></g><g transform="translate(463.04771205357144 161.75188337053567) rotate(0 188.14997209821428 26.131940569196416)"><text x="188.14997209821428" y="32.34133879116604" font-family="Helvetica, Segoe UI Emoji" font-size="22.996107700892857px" fill="#333333" text-anchor="middle" style="white-space: pre;" direction="ltr" dominant-baseline="alphabetic">Get blob metadata &amp; shard info</text></g><g stroke-linecap="round" transform="translate(414.0728236607143 260.86662946428567) rotate(0 239.93798828124997 52.26388113839286)"><path d="M26.13 0 C172.92 -2.24, 319.94 -2.41, 453.74 0 C472.73 1.01, 480.42 6.39, 479.88 26.13 C481.41 39.07, 478.79 56.9, 479.88 78.4 C483.04 96.52, 474.05 107.29, 453.74 104.53 C355.39 103.17, 260.2 104.09, 26.13 104.53 C6.08 105.33, -0.97 96.57, 0 78.4 C-2.34 70.84, 3.22 56.61, 0 26.13 C1.98 8.42, 7.55 0.5, 26.13 0" stroke="none" stroke-width="0" fill="#e8f4f8"></path><path d="M26.13 0 C139.73 0.74, 251.6 0.69, 453.74 0 M26.13 0 C124.8 -1.03, 223.66 -0.89, 453.74 0 M453.74 0 C470.54 1.4, 479.25 7.82, 479.88 26.13 M453.74 0 C471.62 -1.04, 480.04 10.89, 479.88 26.13 M479.88 26.13 C479.85 42.01, 479.96 63.38, 479.88 78.4 M479.88 26.13 C478.95 38.62, 479.68 51.4, 479.88 78.4 M479.88 78.4 C480.56 96.05, 470.8 103.58, 453.74 104.53 M479.88 78.4 C477.74 96.86, 470.01 102.44, 453.74 104.53 M453.74 104.53 C345.7 104.35, 238.65 103.93, 26.13 104.53 M453.74 104.53 C333.54 102.53, 212.38 102.73, 26.13 104.53 M26.13 104.53 C8.07 105.29, -1.79 93.95, 0 78.4 M26.13 104.53 C7.48 105.86, 0.66 98.05, 0 78.4 M0 78.4 C0.09 62.95, 1.42 50, 0 26.13 M0 78.4 C0.56 65.81, -0.07 51.05, 0 26.13 M0 26.13 C-0.58 8.02, 10.67 1.04, 26.13 0 M0 26.13 C1.75 9.71, 7.12 0.48, 26.13 0" stroke="#4a90e2" stroke-width="2" fill="none"></path></g><g transform="translate(562.6570870535714 268.2210518973214) rotate(0 104.52776227678572 26.131940569196416)"><text x="104.52776227678571" y="34.03481103352138" font-family="Helvetica, Segoe UI Emoji" font-size="29.267773437499997px" fill="#333333" text-anchor="middle" style="white-space: pre;" direction="ltr" dominant-baseline="alphabetic">2. Fetch Slivers</text></g><g transform="translate(442.9641331263951 310.40325055803567) rotate(0 220.38198852539065 26.131940569196445)"><text x="220.38198852539062" y="32.34133879116604" font-family="Helvetica, Segoe UI Emoji" font-size="22.996107700892857px" fill="#333333" text-anchor="middle" style="white-space: pre;" direction="ltr" dominant-baseline="alphabetic">Request from Storage Nodes (parallel)</text></g><g stroke-linecap="round" transform="translate(420.9087611607143 403.38127790178567) rotate(0 236.96923828124997 52.26388113839283)"><path d="M26.13 0 C172.06 -3.35, 318.96 -3.24, 447.81 0 C464.47 -0.35, 474.67 8.23, 473.94 26.13 C472.06 38.7, 474.61 51.74, 473.94 78.4 C476.23 93.16, 466.43 103.2, 447.81 104.53 C314.36 107.77, 183.57 106.39, 26.13 104.53 C5.95 108.11, -1.86 98.75, 0 78.4 C-2.54 55.48, 1.27 38.5, 0 26.13 C3.18 6.87, 6.9 -0.15, 26.13 0" stroke="none" stroke-width="0" fill="#e8f4f8"></path><path d="M26.13 0 C190.43 0.77, 356.32 0.5, 447.81 0 M26.13 0 C163.01 0.77, 299.91 1.72, 447.81 0 M447.81 0 C465.99 -0.14, 475.9 9.8, 473.94 26.13 M447.81 0 C463.08 -1.22, 475.24 7.64, 473.94 26.13 M473.94 26.13 C473.65 36.67, 473.09 46.78, 473.94 78.4 M473.94 26.13 C473.67 43.02, 473.54 61.77, 473.94 78.4 M473.94 78.4 C472.11 96.37, 465.7 103.09, 447.81 104.53 M473.94 78.4 C473.62 98.02, 465.08 103.85, 447.81 104.53 M447.81 104.53 C291.71 102.35, 135.77 102.6, 26.13 104.53 M447.81 104.53 C331.79 106.3, 216.96 106.63, 26.13 104.53 M26.13 104.53 C6.96 106.01, -0.24 93.83, 0 78.4 M26.13 104.53 C10.63 106.34, 1.91 97.46, 0 78.4 M0 78.4 C-0.89 58.94, 0.4 42.6, 0 26.13 M0 78.4 C-0.44 66.44, 0.83 52.62, 0 26.13 M0 26.13 C-1.7 7.88, 8.59 0.71, 26.13 0 M0 26.13 C-0.82 9.14, 8.34 -0.96, 26.13 0" stroke="#4a90e2" stroke-width="2" fill="none"></path></g><g transform="translate(531.7696162632533 413.25913783482133) rotate(0 145.2465667724609 26.131940569196445)"><text x="145.24656677246094" y="34.03481103352138" font-family="Helvetica, Segoe UI Emoji" font-size="29.267773437499997px" fill="#333333" text-anchor="middle" style="white-space: pre;" direction="ltr" dominant-baseline="alphabetic">3. Reconstruct Blob</text></g><g transform="translate(508.7763889857701 456.11321149553567) rotate(0 154.14785766601565 26.131940569196445)"><text x="154.14785766601562" y="32.34133879116604" font-family="Helvetica, Segoe UI Emoji" font-size="22.996107700892857px" fill="#333333" text-anchor="middle" style="white-space: pre;" direction="ltr" dominant-baseline="alphabetic">Decode 334 primary slivers</text><text x="154.14785766601562" y="84.6052199295589" font-family="Helvetica, Segoe UI Emoji" font-size="22.996107700892857px" fill="#333333" text-anchor="middle" style="white-space: pre;" direction="ltr" dominant-baseline="alphabetic">(default consistency check)</text></g><g stroke-linecap="round" transform="translate(415.140625 675.296875) rotate(0 246.798828125 86.20703125)"><path d="M32 0 C119.95 0.43, 213.01 0.73, 461.6 0 C481.03 0.41, 491.13 13.13, 493.6 32 C490.78 70.9, 492.31 105.5, 493.6 140.41 C496.13 165.06, 482.85 174.47, 461.6 172.41 C314.13 177.23, 164.72 174.67, 32 172.41 C13.41 174.11, -1.41 158.75, 0 140.41 C-0.65 106.67, -1.78 75.2, 0 32 C-1.71 10.66, 11.43 -2.39, 32 0" stroke="none" stroke-width="0" fill="#4a90e2"></path><path d="M32 0 C158.15 -1.44, 283.26 -0.4, 461.6 0 M32 0 C172.54 -1.05, 312.3 -1.64, 461.6 0 M461.6 0 C482.31 0.46, 494.03 11.93, 493.6 32 M461.6 0 C481.81 -1.62, 493.84 10.76, 493.6 32 M493.6 32 C494.33 54.61, 491.91 78.55, 493.6 140.41 M493.6 32 C492.61 67.54, 492.1 103.15, 493.6 140.41 M493.6 140.41 C491.68 163.54, 482.64 173.37, 461.6 172.41 M493.6 140.41 C495.89 163.97, 485.22 172.06, 461.6 172.41 M461.6 172.41 C309.3 170.22, 156.25 171.37, 32 172.41 M461.6 172.41 C312.78 174.33, 164.61 173.85, 32 172.41 M32 172.41 C9.13 172.71, 0.39 161.8, 0 140.41 M32 172.41 C11.93 173.58, 1.63 163.79, 0 140.41 M0 140.41 C0.36 98.86, 0.87 57.61, 0 32 M0 140.41 C1.11 111.98, -0.09 82.23, 0 32 M0 32 C1.76 8.86, 9.74 1.81, 32 0 M0 32 C1.76 9.4, 12.39 -0.1, 32 0" stroke="#2c5aa0" stroke-width="2" fill="none"></path></g><g transform="translate(577.6350555419922 691.51796875) rotate(0 93.45478820800781 21.5517578125)"><text x="93.45478820800781" y="29.000584106445313" font-family="Helvetica, Segoe UI Emoji" font-size="27.58625px" fill="#ffffff" text-anchor="middle" style="white-space: pre;" direction="ltr" dominant-baseline="alphabetic">Sui Blockchain</text></g><g transform="translate(581.984375 742.777734375) rotate(0 86.20703125 21.5517578125)"><text x="86.20703125" y="27.138377532958984" font-family="Helvetica, Segoe UI Emoji" font-size="20.689687499999998px" fill="#ffffff" text-anchor="middle" style="white-space: pre;" direction="ltr" dominant-baseline="alphabetic">Blob Metadata</text></g><g transform="translate(584.90234375 788.108203125) rotate(0 86.20703125 21.5517578125)"><text x="86.20703125" y="27.138377532958984" font-family="Helvetica, Segoe UI Emoji" font-size="20.689687499999998px" fill="#ffffff" text-anchor="middle" style="white-space: pre;" direction="ltr" dominant-baseline="alphabetic">Shard Assignments</text></g><g stroke-linecap="round" transform="translate(1238.421875 24.166341145833258) rotate(0 99.89142922794122 83.242857689951)"><path d="M32 0 C78.38 -1.61, 128.29 0.98, 167.78 0 C190.76 -1.88, 202.32 11.98, 199.78 32 C198.7 68.27, 196.05 101.43, 199.78 134.49 C197.11 155.43, 189.03 163.51, 167.78 166.49 C136.41 167.06, 107.62 161.33, 32 166.49 C12.95 169.96, 2.63 157.49, 0 134.49 C3.81 107.84, 4.03 71.67, 0 32 C-0.94 8.83, 13.68 1.49, 32 0" stroke="none" stroke-width="0" fill="#cfe2ff"></path><path d="M32 0 C68.25 0.8, 105.44 1.38, 167.78 0 M32 0 C72.33 -0.56, 113.1 -1.83, 167.78 0 M167.78 0 C190.96 0.39, 199.14 10.7, 199.78 32 M167.78 0 C187.02 1.26, 201.4 8.89, 199.78 32 M199.78 32 C197.59 57.54, 198.8 79.95, 199.78 134.49 M199.78 32 C201.04 59.19, 199.6 86.19, 199.78 134.49 M199.78 134.49 C200.95 154.4, 190.72 167.99, 167.78 166.49 M199.78 134.49 C199.76 154.86, 190.34 166.98, 167.78 166.49 M167.78 166.49 C129.47 165.96, 91.34 164.72, 32 166.49 M167.78 166.49 C114.7 166.64, 63.09 167.85, 32 166.49 M32 166.49 C10.66 168.44, -0.9 157.75, 0 134.49 M32 166.49 C10.95 166.16, -1.24 153.63, 0 134.49 M0 134.49 C-0.12 95.56, -0.98 56.77, 0 32 M0 134.49 C-0.75 113.89, 0.25 91.05, 0 32 M0 32 C1.52 10.75, 12.27 0.74, 32 0 M0 32 C1.15 12.18, 11.77 0.58, 32 0" stroke="#0d6efd" stroke-width="2" fill="none"></path></g><g transform="translate(1287.1996259738564 46.65780022234162) rotate(0 47.89398650767919 26.51083284389479)"><text x="47.8939865076792" y="19.936629568999265" font-family="Helvetica, Segoe UI Emoji" font-size="24.74344398763514px" fill="#333333" text-anchor="middle" style="white-space: pre;" direction="ltr" dominant-baseline="alphabetic">Storage</text><text x="47.8939865076792" y="46.447462412894055" font-family="Helvetica, Segoe UI Emoji" font-size="24.74344398763514px" fill="#333333" text-anchor="middle" style="white-space: pre;" direction="ltr" dominant-baseline="alphabetic">Node 1</text></g><g transform="translate(1264.9749985882827 124.05777037377442) rotate(0 73.13029403881967 24.86885150656599)"><text x="73.13029403881968" y="16.911142837635524" font-family="Helvetica, Segoe UI Emoji" font-size="16.579234337710655px" fill="#333333" text-anchor="middle" style="white-space: pre;" direction="ltr" dominant-baseline="alphabetic">Serves Slivers</text><text x="73.13029403881968" y="41.779994344201505" font-family="Helvetica, Segoe UI Emoji" font-size="16.579234337710655px" fill="#333333" text-anchor="middle" style="white-space: pre;" direction="ltr" dominant-baseline="alphabetic">Primary/Secondary</text></g><g stroke-linecap="round"><g transform="translate(925.7038948530014 145.4401737311718) rotate(0 155.80494051961944 -0.7067195783320415)"><path d="M0.27 -0.82 C51.98 -0.95, 259.72 -1.52, 311.44 -1.69 M-1.04 1.37 C50.39 1.49, 258.07 0.06, 310.41 -0.3" stroke="#0d6efd" stroke-width="2" fill="none"></path></g><g transform="translate(925.7038948530014 145.4401737311718) rotate(0 155.80494051961944 -0.7067195783320415)"><path d="M286.97 8.41 C295.03 4.6, 305.28 -0.29, 310.41 -0.3 M286.97 8.41 C292.66 5.52, 298.43 3.89, 310.41 -0.3" stroke="#0d6efd" stroke-width="2" fill="none"></path></g><g transform="translate(925.7038948530014 145.4401737311718) rotate(0 155.80494051961944 -0.7067195783320415)"><path d="M286.86 -8.69 C294.83 -5.67, 305.13 -3.75, 310.41 -0.3 M286.86 -8.69 C292.58 -7.07, 298.38 -4.18, 310.41 -0.3" stroke="#0d6efd" stroke-width="2" fill="none"></path></g></g><mask></mask><g stroke-linecap="round"><g transform="translate(1235.2799547152572 118.03617285242458) rotate(0 -157.38684043371273 0.7861374351769399)"><path d="M0.26 0.64 C-52.26 0.74, -261.27 0.11, -313.94 0.41" stroke="#0dcaf0" stroke-width="2.5" fill="none" stroke-dasharray="8 10"></path></g><g transform="translate(1235.2799547152572 118.03617285242458) rotate(0 -157.38684043371273 0.7861374351769399)"><path d="M-290.46 -8.16 C-298.79 -3.3, -311.18 -2.91, -313.94 0.41" stroke="#0dcaf0" stroke-width="2.5" fill="none"></path></g><g transform="translate(1235.2799547152572 118.03617285242458) rotate(0 -157.38684043371273 0.7861374351769399)"><path d="M-290.45 8.94 C-298.76 6.97, -311.15 0.52, -313.94 0.41" stroke="#0dcaf0" stroke-width="2.5" fill="none"></path></g></g><mask></mask><g stroke-linecap="round" transform="translate(1238.421875 223.94919960171563) rotate(0 99.89142922794122 83.24285768995097)"><path d="M32 0 C83.85 -0.08, 140.59 4.34, 167.78 0 C191.66 0.31, 199.93 7.83, 199.78 32 C200.93 68.84, 198.35 111.52, 199.78 134.49 C202.99 158.69, 189.7 163.73, 167.78 166.49 C119.95 168.02, 71.95 166.41, 32 166.49 C12.56 163.64, 0.74 152.59, 0 134.49 C-2.35 98.7, -3.1 67.86, 0 32 C0.36 9.17, 10.3 -3.17, 32 0" stroke="none" stroke-width="0" fill="#cfe2ff"></path><path d="M32 0 C80.87 2.34, 127.51 0.19, 167.78 0 M32 0 C65.16 0.74, 96.28 -0.86, 167.78 0 M167.78 0 C189.21 1.8, 199.86 11.62, 199.78 32 M167.78 0 C191.41 -1.26, 199.22 8.62, 199.78 32 M199.78 32 C197.58 58.52, 201.17 85.49, 199.78 134.49 M199.78 32 C200.95 56.83, 199.55 81.67, 199.78 134.49 M199.78 134.49 C200.09 154.93, 190.59 165.46, 167.78 166.49 M199.78 134.49 C197.98 156.18, 187.09 167.75, 167.78 166.49 M167.78 166.49 C126.08 166.11, 88.33 168.37, 32 166.49 M167.78 166.49 C128.16 166.21, 88.94 166, 32 166.49 M32 166.49 C11.72 167.72, 1.9 155.02, 0 134.49 M32 166.49 C10.02 166.34, 0.51 154.99, 0 134.49 M0 134.49 C-0.47 100.61, 1.1 66.87, 0 32 M0 134.49 C0.37 100.73, 0.86 64.09, 0 32 M0 32 C-0.78 9.36, 11.68 1.92, 32 0 M0 32 C-1.29 9.74, 10.27 1.46, 32 0" stroke="#0d6efd" stroke-width="2" fill="none"></path></g><g transform="translate(1264.8871029382976 323.84062882965685) rotate(0 73.42620128964359 24.972857306985304)"><text x="73.42620128964364" y="16.981868136162852" font-family="Helvetica, Segoe UI Emoji" font-size="16.648571537990197px" fill="#333333" text-anchor="middle" style="white-space: pre;" direction="ltr" dominant-baseline="alphabetic">Serves Slivers</text><text x="73.42620128964364" y="41.95472544314815" font-family="Helvetica, Segoe UI Emoji" font-size="16.648571537990197px" fill="#333333" text-anchor="middle" style="white-space: pre;" direction="ltr" dominant-baseline="alphabetic">Primary/Secondary</text></g><g stroke-linecap="round"><g transform="translate(924.45703125 301.40625) rotate(0 150.603515625 -0.49609375)"><path d="M-0.23 1.18 C49.87 0.93, 251.14 -0.72, 301.4 -1.18 M-1.81 0.75 C48.08 0.67, 250.14 0.48, 300.55 0.26" stroke="#0d6efd" stroke-width="2" fill="none"></path></g><g transform="translate(924.45703125 301.40625) rotate(0 150.603515625 -0.49609375)"><path d="M277.08 8.86 C287.61 6.08, 293.91 2.82, 300.55 0.26 M277.08 8.86 C283.67 7.32, 288.2 4.61, 300.55 0.26" stroke="#0d6efd" stroke-width="2" fill="none"></path></g><g transform="translate(924.45703125 301.40625) rotate(0 150.603515625 -0.49609375)"><path d="M277.04 -8.24 C287.62 -4.77, 293.94 -1.77, 300.55 0.26 M277.04 -8.24 C283.71 -5.49, 288.25 -3.91, 300.55 0.26" stroke="#0d6efd" stroke-width="2" fill="none"></path></g></g><mask></mask><g stroke-linecap="round"><g transform="translate(1226.3769339538817 265.9897860051344) rotate(0 -157.37792010194084 1.4426069974327902)"><path d="M0.68 0.59 C-52.08 0.99, -262.98 1.54, -315.5 1.88" stroke="#0dcaf0" stroke-width="2.5" fill="none" stroke-dasharray="8 10"></path></g><g transform="translate(1226.3769339538817 265.9897860051344) rotate(0 -157.37792010194084 1.4426069974327902)"><path d="M-292.05 -6.77 C-300.21 -4.52, -311.98 0.65, -315.5 1.88" stroke="#0dcaf0" stroke-width="2.5" fill="none"></path></g><g transform="translate(1226.3769339538817 265.9897860051344) rotate(0 -157.37792010194084 1.4426069974327902)"><path d="M-291.97 10.33 C-300.09 5.94, -311.89 4.46, -315.5 1.88" stroke="#0dcaf0" stroke-width="2.5" fill="none"></path></g></g><mask></mask><g stroke-linecap="round" transform="translate(1238.421875 423.7320580575981) rotate(0 99.89142922794122 83.242857689951)"><path d="M32 0 C70.72 -4.69, 119.58 -3.69, 167.78 0 C189.11 1.15, 196.61 10.08, 199.78 32 C201.73 60, 202.75 88.69, 199.78 134.49 C201.67 153.44, 190.3 165.5, 167.78 166.49 C116.74 165.21, 61.52 166.73, 32 166.49 C14.22 168.21, 2.3 153.96, 0 134.49 C-3.68 108.92, 2.35 87.47, 0 32 C3.18 9.01, 7.53 -3.44, 32 0" stroke="none" stroke-width="0" fill="#cfe2ff"></path><path d="M32 0 C76.22 -0.91, 121.16 -0.13, 167.78 0 M32 0 C85.47 0.49, 138.68 1.22, 167.78 0 M167.78 0 C187.54 -0.53, 200.35 12.34, 199.78 32 M167.78 0 C191.21 0.06, 199.96 11.24, 199.78 32 M199.78 32 C198.01 73.93, 199.12 111.84, 199.78 134.49 M199.78 32 C199.95 60.66, 199.16 88.2, 199.78 134.49 M199.78 134.49 C201.07 157.08, 187.88 167.53, 167.78 166.49 M199.78 134.49 C201.75 156.08, 190.97 164.87, 167.78 166.49 M167.78 166.49 C112.33 167.57, 59.51 165.37, 32 166.49 M167.78 166.49 C126.17 166.8, 83.31 164.87, 32 166.49 M32 166.49 C11.42 166.02, -0.97 155, 0 134.49 M32 166.49 C9.01 164.74, -1.28 157.62, 0 134.49 M0 134.49 C-1.2 98.85, -0.66 59.87, 0 32 M0 134.49 C-0.59 111.18, 0.57 85.26, 0 32 M0 32 C1.86 9.78, 11.62 0.48, 32 0 M0 32 C0.8 10.24, 12.13 1.69, 32 0" stroke="#0d6efd" stroke-width="2" fill="none"></path></g><g transform="translate(1254.4915162663997 516.8128255208333) rotate(0 87.19793685860043 29.65673828125)"><text x="87.19793685860046" y="20.166968186696373" font-family="Helvetica, Segoe UI Emoji" font-size="19.771158854166668px" fill="#333333" text-anchor="middle" style="white-space: pre;" direction="ltr" dominant-baseline="alphabetic">Serves Slivers</text><text x="87.19793685860046" y="49.82370646794637" font-family="Helvetica, Segoe UI Emoji" font-size="19.771158854166668px" fill="#333333" text-anchor="middle" style="white-space: pre;" direction="ltr" dominant-baseline="alphabetic">Primary/Secondary</text></g><g stroke-linecap="round"><g transform="translate(927.4375 492.25390625) rotate(0 149.634765625 -0.6796875)"><path d="M-0.15 -0.55 C50.04 -0.81, 250.17 -1.52, 299.97 -1.81 M-1.69 1.78 C48.51 1.7, 249.51 0.03, 299.39 -0.51" stroke="#0d6efd" stroke-width="2" fill="none"></path></g><g transform="translate(927.4375 492.25390625) rotate(0 149.634765625 -0.6796875)"><path d="M275.98 8.26 C279.8 7.69, 284.69 3.73, 299.39 -0.51 M275.98 8.26 C280.62 5.97, 286.24 5.08, 299.39 -0.51" stroke="#0d6efd" stroke-width="2" fill="none"></path></g><g transform="translate(927.4375 492.25390625) rotate(0 149.634765625 -0.6796875)"><path d="M275.82 -8.84 C279.64 -5.97, 284.56 -6.47, 299.39 -0.51 M275.82 -8.84 C280.53 -7.32, 286.19 -4.4, 299.39 -0.51" stroke="#0d6efd" stroke-width="2" fill="none"></path></g></g><mask></mask><g stroke-linecap="round"><g transform="translate(1222.640625 456.00390625) rotate(0 -150.126953125 0.685546875)"><path d="M-1.12 0.06 C-51.03 0.3, -250.4 1.55, -300.11 1.83" stroke="#0dcaf0" stroke-width="2.5" fill="none" stroke-dasharray="8 10"></path></g><g transform="translate(1222.640625 456.00390625) rotate(0 -150.126953125 0.685546875)"><path d="M-276.67 -6.86 C-282.32 -4.7, -287.41 -1.36, -300.11 1.83" stroke="#0dcaf0" stroke-width="2.5" fill="none"></path></g><g transform="translate(1222.640625 456.00390625) rotate(0 -150.126953125 0.685546875)"><path d="M-276.57 10.24 C-282.3 8.19, -287.41 7.33, -300.11 1.83" stroke="#0dcaf0" stroke-width="2.5" fill="none"></path></g></g><mask></mask><g stroke-linecap="round"><g transform="translate(215.87890625 265.45703125) rotate(0 85.013671875 -0.060546875)"><path d="M0.45 0.5 C28.86 0.59, 142.8 0.62, 170.97 0.57 M-0.77 -0.28 C27.52 -0.54, 142.33 -0.91, 170.51 -1.19" stroke="#28a745" stroke-width="3" fill="none"></path></g><g transform="translate(215.87890625 265.45703125) rotate(0 85.013671875 -0.060546875)"><path d="M147.07 7.5 C155.93 6.01, 164.28 0.46, 170.51 -1.19 M147.07 7.5 C154.15 5.23, 161.73 1.32, 170.51 -1.19" stroke="#28a745" stroke-width="3" fill="none"></path></g><g transform="translate(215.87890625 265.45703125) rotate(0 85.013671875 -0.060546875)"><path d="M146.97 -9.6 C155.87 -5.24, 164.25 -4.93, 170.51 -1.19 M146.97 -9.6 C154.07 -6.23, 161.69 -4.51, 170.51 -1.19" stroke="#28a745" stroke-width="3" fill="none"></path></g></g><mask></mask><g transform="translate(253.57421875 213.29296875) rotate(0 71.125 17.78125)"><text x="0" y="22.390483398437503" font-family="Helvetica, Segoe UI Emoji" font-size="17.070000000000004px" fill="#666666" text-anchor="start" style="white-space: pre;" direction="ltr" dominant-baseline="alphabetic">HTTP GET</text></g><g stroke-linecap="round"><g transform="translate(627.6640625 607.2109375) rotate(0 0.74609375 29.14453125)"><path d="M0.83 1.11 C1.26 11.09, 1.8 49.71, 1.76 59.39 M-0.19 0.65 C0.17 10.35, 0.42 48.4, 0.96 57.85" stroke="#4a90e2" stroke-width="4" fill="none"></path></g><g transform="translate(627.6640625 607.2109375) rotate(0 0.74609375 29.14453125)"><path d="M-8.25 34.61 C-4.34 40.43, -2.2 43.94, 0.96 57.85 M-8.25 34.61 C-4.91 43.87, -2.27 51.49, 0.96 57.85" stroke="#4a90e2" stroke-width="4" fill="none"></path></g><g transform="translate(627.6640625 607.2109375) rotate(0 0.74609375 29.14453125)"><path d="M8.84 34.12 C8.76 40.17, 6.9 43.8, 0.96 57.85 M8.84 34.12 C5.75 43.42, 1.96 51.22, 0.96 57.85" stroke="#4a90e2" stroke-width="4" fill="none"></path></g></g><mask></mask><g stroke-linecap="round"><g transform="translate(724.8938405569638 661.1135655234468) rotate(0 -0.3277025301928802 -28.86702862970583)"><path d="M-0.56 0.01 C-0.93 -9.7, -1.51 -47.75, -1.65 -57.23" stroke="#4a90e2" stroke-width="4.5" fill="none" stroke-dasharray="8 12"></path></g><g transform="translate(724.8938405569638 661.1135655234468) rotate(0 -0.3277025301928802 -28.86702862970583)"><path d="M7.26 -33.87 C4 -43.63, 1.75 -51.29, -1.65 -57.23" stroke="#4a90e2" stroke-width="4.5" fill="none"></path></g><g transform="translate(724.8938405569638 661.1135655234468) rotate(0 -0.3277025301928802 -28.86702862970583)"><path d="M-9.84 -33.61 C-7.2 -43.38, -3.55 -51.13, -1.65 -57.23" stroke="#4a90e2" stroke-width="4.5" fill="none"></path></g></g><mask></mask><g stroke-linecap="round"><g transform="translate(387.80859375 351.65625) rotate(0 -85.0859375 -1.37890625)"><path d="M0.08 0.1 C-28.27 -0.42, -141.32 -1.89, -169.87 -2.33" stroke="#28a745" stroke-width="3.5" fill="none" stroke-dasharray="8 11"></path></g><g transform="translate(387.80859375 351.65625) rotate(0 -85.0859375 -1.37890625)"><path d="M-146.26 -10.55 C-153.59 -7.39, -160.59 -6.97, -169.87 -2.33" stroke="#28a745" stroke-width="3.5" fill="none"></path></g><g transform="translate(387.80859375 351.65625) rotate(0 -85.0859375 -1.37890625)"><path d="M-146.5 6.55 C-153.87 4.24, -160.79 -0.81, -169.87 -2.33" stroke="#28a745" stroke-width="3.5" fill="none"></path></g></g><mask></mask><g transform="translate(243.578125 307.623046875) rotate(0 59.26171875 14.8154296875)"><text x="0" y="18.65586685180665" font-family="Helvetica, Segoe UI Emoji" font-size="14.222812500000007px" fill="#666666" text-anchor="start" style="white-space: pre;" direction="ltr" dominant-baseline="alphabetic">HTTP Response</text></g><g transform="translate(1292.0178950621403 252.66790361041774) rotate(0 47.89398650767919 26.510832843894775)"><text x="47.8939865076792" y="19.936629568999265" font-family="Helvetica, Segoe UI Emoji" font-size="24.74344398763514px" fill="#333333" text-anchor="middle" style="white-space: pre;" direction="ltr" dominant-baseline="alphabetic">Storage</text><text x="47.8939865076792" y="46.447462412894055" font-family="Helvetica, Segoe UI Emoji" font-size="24.74344398763514px" fill="#333333" text-anchor="middle" style="white-space: pre;" direction="ltr" dominant-baseline="alphabetic">Node 2</text></g><g transform="translate(1290.6486218471707 450.39357647060433) rotate(0 47.89398650767919 26.510832843894775)"><text x="47.8939865076792" y="19.936629568999265" font-family="Helvetica, Segoe UI Emoji" font-size="24.74344398763514px" fill="#333333" text-anchor="middle" style="white-space: pre;" direction="ltr" dominant-baseline="alphabetic">Storage</text><text x="47.8939865076792" y="46.447462412894055" font-family="Helvetica, Segoe UI Emoji" font-size="24.74344398763514px" fill="#333333" text-anchor="middle" style="white-space: pre;" direction="ltr" dominant-baseline="alphabetic">Node 3</text></g><g transform="translate(950.83984375 315.1015625) rotate(0 128.09988403320312 8.75)"><text x="0" y="12.5302734375" font-family="Helvetica, Segoe UI Emoji" font-size="14px" fill="#0d6efd" text-anchor="start" style="white-space: pre;" direction="ltr" dominant-baseline="alphabetic">Request slivers (parallel, by blob ID)</text></g><g transform="translate(965.69921875 233.60546875) rotate(0 110 10)"><text x="0" y="12.5302734375" font-family="Helvetica, Segoe UI Emoji" font-size="14px" fill="#0dcaf0" text-anchor="start" style="white-space: pre;" direction="ltr" dominant-baseline="alphabetic">Serve slivers (primary/secondary)</text></g><g transform="translate(966.9695542279412 84.21875) rotate(0 110 10)"><text x="0" y="12.5302734375" font-family="Helvetica, Segoe UI Emoji" font-size="14px" fill="#0dcaf0" text-anchor="start" style="white-space: pre;" direction="ltr" dominant-baseline="alphabetic">Serve slivers (primary/secondary)</text></g><g transform="translate(953.2212326947381 166.29296875) rotate(0 128.09988403320312 8.75)"><text x="0" y="12.5302734375" font-family="Helvetica, Segoe UI Emoji" font-size="14px" fill="#0d6efd" text-anchor="start" style="white-space: pre;" direction="ltr" dominant-baseline="alphabetic">Request slivers (parallel, by blob ID)</text></g><g transform="translate(946.9790451947381 510.421875) rotate(0 128.09988403320312 8.75)"><text x="0" y="12.5302734375" font-family="Helvetica, Segoe UI Emoji" font-size="14px" fill="#0d6efd" text-anchor="start" style="white-space: pre;" direction="ltr" dominant-baseline="alphabetic">Request slivers (parallel, by blob ID)</text></g><g transform="translate(966.8679917279412 419.34765625) rotate(0 110 10)"><text x="0" y="12.5302734375" font-family="Helvetica, Segoe UI Emoji" font-size="14px" fill="#0dcaf0" text-anchor="start" style="white-space: pre;" direction="ltr" dominant-baseline="alphabetic">Serve slivers (primary/secondary)</text></g></svg>