<svg version="1.1" xmlns="http://www.w3.org/2000/svg" viewBox="0 0 1197.4859375 1140" width="2394.971875" height="2280"><!-- svg-source:excalidraw --><metadata></metadata><defs><style class="style-fonts">
      </style></defs><rect x="0" y="0" width="1197.4859375" height="1140" fill="#f8f9fa"></rect><g transform="translate(73.91562499999998 10) rotate(0 105.6 16)"><text x="0" y="28.640625" font-family="Helvetica, Segoe UI Emoji" font-size="32px" fill="#333333" text-anchor="start" style="white-space: pre;" direction="ltr" dominant-baseline="alphabetic">Upload Flow</text></g><g stroke-linecap="round" transform="translate(36.09140624999998 127.3125) rotate(0 90 50)"><path d="M25 0 C76.39 0.76, 125.99 1.29, 155 0 C171.27 -0.49, 182.57 7.06, 180 25 C176.1 44.22, 176.28 59.13, 180 75 C182.51 95.14, 171.91 99.93, 155 100 C111.19 99.57, 69.78 101.6, 25 100 C6.55 100.61, -2.06 89.96, 0 75 C1.82 60.61, -0.4 47.2, 0 25 C-3.26 7.72, 10.28 -0.94, 25 0" stroke="none" stroke-width="0" fill="#d4edda"></path><path d="M25 0 C68.14 -1.97, 108.03 -1.44, 155 0 M25 0 C57.39 0.47, 90.53 0.08, 155 0 M155 0 C171.17 -1.54, 180.24 6.93, 180 25 M155 0 C173.32 1.39, 181.42 8.93, 180 25 M180 25 C181.29 45.36, 178.99 64.64, 180 75 M180 25 C180.25 38.77, 179.2 52.73, 180 75 M180 75 C180.07 90.59, 169.84 101.84, 155 100 M180 75 C179.87 92.03, 171.37 97.97, 155 100 M155 100 C114.38 99.63, 70.23 100.33, 25 100 M155 100 C114.32 99.64, 74.22 99.89, 25 100 M25 100 C9.97 98.76, -0.03 90.71, 0 75 M25 100 C7.33 101.46, 0.9 93.05, 0 75 M0 75 C-0.27 56.87, 1.48 36.97, 0 25 M0 75 C0.2 59.01, -0.02 41.28, 0 25 M0 25 C-0.11 7.57, 8.76 0.16, 25 0 M0 25 C2.24 9.24, 6.2 1.06, 25 0" stroke="#28a745" stroke-width="3" fill="none"></path></g><g transform="translate(85.97031249999998 161.875) rotate(0 43.19999999999999 12)"><text x="43.199999999999996" y="21.48046875" font-family="Helvetica, Segoe UI Emoji" font-size="24px" fill="#333333" text-anchor="middle" style="white-space: pre;" direction="ltr" dominant-baseline="alphabetic">Client</text></g><g transform="translate(228.55624999999998 155.484375) rotate(0 86.39999999999998 16)"><text x="86.39999999999999" y="14.3203125" font-family="Helvetica, Segoe UI Emoji" font-size="16px" fill="#666666" text-anchor="middle" style="white-space: pre;" direction="ltr" dominant-baseline="alphabetic">HTTP PUT</text><text x="86.39999999999999" y="34.3203125" font-family="Helvetica, Segoe UI Emoji" font-size="16px" fill="#666666" text-anchor="middle" style="white-space: pre;" direction="ltr" dominant-baseline="alphabetic">Blob Data</text></g><g stroke-linecap="round"><g transform="translate(225.33124999999995 174.765625) rotate(0 83.560546875 0.51171875)"><path d="M-0.88 0.97 C26.96 0.99, 138.13 0.09, 166.19 -0.07 M0.85 0.43 C29.14 0.58, 140.74 0.83, 168.41 0.9" stroke="#28a745" stroke-width="3" fill="none"></path></g><g transform="translate(225.33124999999995 174.765625) rotate(0 83.560546875 0.51171875)"><path d="M144.9 9.39 C151.9 6.08, 153.83 6.26, 168.41 0.9 M144.9 9.39 C150.63 7.74, 155.14 5.65, 168.41 0.9" stroke="#28a745" stroke-width="3" fill="none"></path></g><g transform="translate(225.33124999999995 174.765625) rotate(0 83.560546875 0.51171875)"><path d="M144.94 -7.71 C151.9 -7.12, 153.82 -3.03, 168.41 0.9 M144.94 -7.71 C150.54 -5.64, 155.05 -4.02, 168.41 0.9" stroke="#28a745" stroke-width="3" fill="none"></path></g></g><mask></mask><g stroke-linecap="round" transform="translate(403.915625 80) rotate(0 100 100)"><path d="M32 0 C82.16 -1.6, 127.49 -5.09, 168 0 C185.82 -3.11, 198.48 10.62, 200 32 C197.43 84.35, 196.84 143.75, 200 168 C201.14 189.89, 185.8 201.09, 168 200 C128.49 200.02, 81.99 200.46, 32 200 C10.2 200.72, 3.53 190.92, 0 168 C1.38 137.35, -0.59 114.69, 0 32 C-3.13 10.78, 9.74 2.68, 32 0" stroke="none" stroke-width="0" fill="#fff3cd"></path><path d="M32 0 C60.51 -1.76, 89.63 -2.04, 168 0 M32 0 C75.82 0.74, 120.16 -0.78, 168 0 M168 0 C189.87 1.7, 199.56 9.39, 200 32 M168 0 C190.47 -2.16, 201.21 11.94, 200 32 M200 32 C201.39 68.93, 199.25 109.01, 200 168 M200 32 C199.87 86.33, 200.35 140.81, 200 168 M200 168 C201.06 188.25, 190.5 201.02, 168 200 M200 168 C199.07 187.77, 188.04 200.98, 168 200 M168 200 C133.63 196.71, 103.85 199.07, 32 200 M168 200 C128.56 198.75, 87.3 199.43, 32 200 M32 200 C10.61 198.02, 1.68 190.72, 0 168 M32 200 C8.75 201.19, 1.07 187.2, 0 168 M0 168 C-1.4 137.12, -1.12 106.35, 0 32 M0 168 C0.08 115.58, -0.45 63.64, 0 32 M0 32 C0.71 11.89, 10.1 -0.42, 32 0 M0 32 C0.98 12.22, 9.51 0.06, 32 0" stroke="#ffc107" stroke-width="3" fill="none"></path></g><g transform="translate(433.5796875 90.5390625) rotate(0 64.80000000000001 12)"><text x="64.8" y="21.48046875" font-family="Helvetica, Segoe UI Emoji" font-size="24px" fill="#333333" text-anchor="middle" style="white-space: pre;" direction="ltr" dominant-baseline="alphabetic">Publisher</text></g><g transform="translate(413.915625 130) rotate(0 58.80000000000001 7)"><text x="0" y="12.5302734375" font-family="Helvetica, Segoe UI Emoji" font-size="14px" fill="#333333" text-anchor="start" style="white-space: pre;" direction="ltr" dominant-baseline="alphabetic">1. Encode blob</text></g><g transform="translate(413.915625 155) rotate(0 75.60000000000002 7)"><text x="0" y="12.5302734375" font-family="Helvetica, Segoe UI Emoji" font-size="14px" fill="#333333" text-anchor="start" style="white-space: pre;" direction="ltr" dominant-baseline="alphabetic">2. Register on Sui</text></g><g transform="translate(413.915625 180) rotate(0 88.19999999999999 7)"><text x="0" y="12.5302734375" font-family="Helvetica, Segoe UI Emoji" font-size="14px" fill="#333333" text-anchor="start" style="white-space: pre;" direction="ltr" dominant-baseline="alphabetic">3. Distribute slivers</text></g><g transform="translate(413.915625 205) rotate(0 63.42041015625 17.5)"><text x="0" y="12.5302734375" font-family="Helvetica, Segoe UI Emoji" font-size="14px" fill="#333333" text-anchor="start" style="white-space: pre;" direction="ltr" dominant-baseline="alphabetic">4. Collect signatures</text><text x="0" y="30.0302734375" font-family="Helvetica, Segoe UI Emoji" font-size="14px" fill="#333333" text-anchor="start" style="white-space: pre;" direction="ltr" dominant-baseline="alphabetic">(2/3 shard quorum)</text></g><g transform="translate(416.12265625 246.41796875) rotate(0 79.80000000000001 7)"><text x="0" y="12.5302734375" font-family="Helvetica, Segoe UI Emoji" font-size="14px" fill="#333333" text-anchor="start" style="white-space: pre;" direction="ltr" dominant-baseline="alphabetic">5. Post certificate</text></g><g stroke-linecap="round"><g transform="translate(503.915625 280) rotate(0 0 40)"><path d="M-0.79 0.11 C-0.88 13.48, -0.82 66.67, -0.49 80.03 M0.99 -0.88 C0.7 12.72, -1.71 67.82, -1.7 81.59" stroke="#4a90e2" stroke-width="3" fill="none"></path></g><g transform="translate(503.915625 280) rotate(0 0 40)"><path d="M-9.67 57.89 C-7.1 64.32, -4.81 74.32, -1.7 81.59 M-9.67 57.89 C-7.03 66.39, -3.45 72.6, -1.7 81.59" stroke="#4a90e2" stroke-width="3" fill="none"></path></g><g transform="translate(503.915625 280) rotate(0 0 40)"><path d="M7.42 58.31 C4.8 64.5, 1.89 74.37, -1.7 81.59 M7.42 58.31 C4.57 66.58, 2.65 72.66, -1.7 81.59" stroke="#4a90e2" stroke-width="3" fill="none"></path></g></g><mask></mask><g stroke-linecap="round" transform="translate(353.915625 360) rotate(0 150 50)"><path d="M25 0 C90.62 4.37, 149.26 0.44, 275 0 C293.91 1.79, 298.81 7.98, 300 25 C297.24 46.11, 302.64 59.55, 300 75 C299.63 94.59, 292.75 98.35, 275 100 C198.3 95.1, 124.3 96.04, 25 100 C10.3 103.24, 0.01 92.26, 0 75 C2.29 58.5, 2.08 37.34, 0 25 C1.78 10.5, 10.55 -2.05, 25 0" stroke="none" stroke-width="0" fill="#4a90e2"></path><path d="M25 0 C98.59 -0.98, 169.2 -1.57, 275 0 M25 0 C101.69 1.1, 179.5 0.57, 275 0 M275 0 C293.15 -0.95, 301.13 8.74, 300 25 M275 0 C292.23 0.52, 300.96 8.91, 300 25 M300 25 C302.21 39.74, 301.09 57.56, 300 75 M300 25 C299.82 36.41, 299.38 46.61, 300 75 M300 75 C301.02 91.37, 292.6 98.4, 275 100 M300 75 C299.4 93.45, 293.05 100.97, 275 100 M275 100 C221.86 97.79, 169.11 97.91, 25 100 M275 100 C208.09 101.41, 140.37 101.81, 25 100 M25 100 C10.2 99.19, 0.74 93.25, 0 75 M25 100 C8.99 100.78, -0.6 91.93, 0 75 M0 75 C0.34 55.79, -0.43 35.26, 0 25 M0 75 C-0.01 59.61, 0.71 42.93, 0 25 M0 25 C1.49 7.21, 7.81 -1.49, 25 0 M0 25 C1.1 9.22, 8.12 -0.88, 25 0" stroke="#2c5aa0" stroke-width="3" fill="none"></path></g><g transform="translate(419.5328125 374.33984375) rotate(0 84 10)"><text x="84" y="17.900390625" font-family="Helvetica, Segoe UI Emoji" font-size="20px" fill="#ffffff" text-anchor="middle" style="white-space: pre;" direction="ltr" dominant-baseline="alphabetic">Sui Blockchain</text></g><g transform="translate(376.230078125 410.9765625) rotate(0 126.333984375 14.037109375)"><text x="126.333984375" y="12.563487052917475" font-family="Helvetica, Segoe UI Emoji" font-size="14.037109374999995px" fill="#ffffff" text-anchor="middle" style="white-space: pre;" direction="ltr" dominant-baseline="alphabetic">Register Blob</text><text x="126.333984375" y="30.109873771667466" font-family="Helvetica, Segoe UI Emoji" font-size="14.037109374999995px" fill="#ffffff" text-anchor="middle" style="white-space: pre;" direction="ltr" dominant-baseline="alphabetic">Post Certificate</text></g><g stroke-linecap="round"><g transform="translate(603.915625 179.78701275126548) rotate(0 172.24974587323885 -0.37976591097753953)"><path d="M-1.17 -0.81 C56.47 -0.6, 287.26 0.46, 344.97 0.28 M0.41 1.38 C58.01 1.36, 286.89 -0.87, 344.27 -1.3" stroke="#0d6efd" stroke-width="3" fill="none"></path></g><g transform="translate(603.915625 179.78701275126548) rotate(0 172.24974587323885 -0.37976591097753953)"><path d="M320.85 7.45 C324.91 6.47, 333.33 4.71, 344.27 -1.3 M320.85 7.45 C326.22 4.94, 331.05 4.34, 344.27 -1.3" stroke="#0d6efd" stroke-width="3" fill="none"></path></g><g transform="translate(603.915625 179.78701275126548) rotate(0 172.24974587323885 -0.37976591097753953)"><path d="M320.7 -9.65 C324.66 -6.73, 333.11 -4.59, 344.27 -1.3 M320.7 -9.65 C326.08 -8.69, 330.94 -5.83, 344.27 -1.3" stroke="#0d6efd" stroke-width="3" fill="none"></path></g></g><mask></mask><g stroke-linecap="round" transform="translate(951.04453125 79.03125) rotate(0 110 100)"><path d="M32 0 C74.43 4.79, 118.45 2.35, 188 0 C212.87 -2.12, 216.56 10.52, 220 32 C224.42 77.8, 223.36 124.35, 220 168 C220.98 189.33, 207.27 197.82, 188 200 C154.22 196.64, 122.27 197.95, 32 200 C10.75 199.85, 0.37 191.78, 0 168 C-2.9 138.13, -0.43 109.41, 0 32 C0.96 7.82, 9.27 0.63, 32 0" stroke="none" stroke-width="0" fill="#cfe2ff"></path><path d="M32 0 C83.03 1.07, 137.52 0.22, 188 0 M32 0 C87.46 -1.07, 141.64 -1.9, 188 0 M188 0 C209.13 1.01, 220.39 10.28, 220 32 M188 0 C208.01 -0.57, 221.44 9.57, 220 32 M220 32 C222.43 68.26, 220.85 102.8, 220 168 M220 32 C221.74 82.09, 221.55 133.21, 220 168 M220 168 C220.09 188.98, 210.06 199.85, 188 200 M220 168 C219.17 190.52, 211.41 197.84, 188 200 M188 200 C144.66 201.82, 96.99 203.1, 32 200 M188 200 C151.43 199.4, 115.64 198.99, 32 200 M32 200 C9.11 200.41, -0.84 189.52, 0 168 M32 200 C9.49 199.6, -1.6 191.26, 0 168 M0 168 C0.32 127.14, -0.64 87.71, 0 32 M0 168 C-1.5 117.6, -1.13 66.3, 0 32 M0 32 C0.43 10.65, 9.12 0.15, 32 0 M0 32 C-1.35 9.35, 10.12 -1.97, 32 0" stroke="#0d6efd" stroke-width="3" fill="none"></path></g><g transform="translate(984.27890625 101.48046875) rotate(0 78 10)"><text x="78" y="17.900390625" font-family="Helvetica, Segoe UI Emoji" font-size="20px" fill="#333333" text-anchor="middle" style="white-space: pre;" direction="ltr" dominant-baseline="alphabetic">Storage Nodes</text></g><g transform="translate(977.2515625 161.87890625) rotate(0 54.60000000000002 7)"><text x="0" y="12.5302734375" font-family="Helvetica, Segoe UI Emoji" font-size="14px" fill="#333333" text-anchor="start" style="white-space: pre;" direction="ltr" dominant-baseline="alphabetic">Store slivers</text></g><g transform="translate(977.2515625 186.87890625) rotate(0 71.39999999999998 7)"><text x="0" y="12.5302734375" font-family="Helvetica, Segoe UI Emoji" font-size="14px" fill="#333333" text-anchor="start" style="white-space: pre;" direction="ltr" dominant-baseline="alphabetic">Sign certificates</text></g><g stroke-linecap="round"><g transform="translate(945.7294560406341 214.5676185106635) rotate(0 -170.39910302031706 0.9223800049115738)"><path d="M-0.64 -1.01 C-57.32 -0.68, -284.47 1.82, -341.02 2.29" stroke="#ffc107" stroke-width="2.5" fill="none" stroke-dasharray="8 10"></path></g><g transform="translate(945.7294560406341 214.5676185106635) rotate(0 -170.39910302031706 0.9223800049115738)"><path d="M-317.61 -6.49 C-324.37 -5.07, -327.03 -1.35, -341.02 2.29" stroke="#ffc107" stroke-width="2.5" fill="none"></path></g><g transform="translate(945.7294560406341 214.5676185106635) rotate(0 -170.39910302031706 0.9223800049115738)"><path d="M-317.45 10.61 C-324.28 8.31, -326.98 8.31, -341.02 2.29" stroke="#ffc107" stroke-width="2.5" fill="none"></path></g></g><mask></mask><g stroke-linecap="round"><g transform="translate(503.915625 460) rotate(0 0 30)"><path d="M0.33 0.62 C0.67 10.73, 0.89 50.63, 0.95 60.63 M-0.96 -0.09 C-0.6 9.66, 0.29 49.06, 0.5 58.83" stroke="#28a745" stroke-width="3" fill="none"></path></g><g transform="translate(503.915625 460) rotate(0 0 30)"><path d="M-8.57 35.54 C-5.64 41.95, -3.75 46.4, 0.5 58.83 M-8.57 35.54 C-5.99 43.73, -1.36 51.89, 0.5 58.83" stroke="#28a745" stroke-width="3" fill="none"></path></g><g transform="translate(503.915625 460) rotate(0 0 30)"><path d="M8.52 35.15 C7.9 41.69, 6.23 46.23, 0.5 58.83 M8.52 35.15 C5.14 43.48, 3.79 51.77, 0.5 58.83" stroke="#28a745" stroke-width="3" fill="none"></path></g></g><mask></mask><g stroke-linecap="round" transform="translate(303.915625 520) rotate(0 200 30)"><path d="M15 0 C146.48 -1.38, 282.57 -4.66, 385 0 C394.08 2.81, 399.93 7.03, 400 15 C398.96 22.38, 402.6 34.12, 400 45 C403.11 55.86, 396.34 56.88, 385 60 C258.77 65.02, 132.39 65.42, 15 60 C6.57 57.19, 2.78 53.74, 0 45 C2.53 34.29, -3.7 28.92, 0 15 C0.79 6.73, 2.35 -2.48, 15 0" stroke="none" stroke-width="0" fill="#d4edda"></path><path d="M15 0 C145.18 -0.79, 275.01 -0.03, 385 0 M15 0 C91.72 -2.12, 167.56 -1.55, 385 0 M385 0 C395.18 0.33, 398.09 3.01, 400 15 M385 0 C393.9 -1.75, 399.86 4.98, 400 15 M400 15 C401.4 27.1, 399.05 37.55, 400 45 M400 15 C400.06 22.84, 399.33 32.67, 400 45 M400 45 C400.49 56.51, 395.86 60.09, 385 60 M400 45 C401.09 55.41, 393.38 59.43, 385 60 M385 60 C282.34 61.8, 182.29 62.91, 15 60 M385 60 C276.13 59.11, 166.52 59.16, 15 60 M15 60 C4.5 61.85, 1.25 55.9, 0 45 M15 60 C5.54 57.82, 1.38 54.34, 0 45 M0 45 C1.05 35.02, -1.14 24.62, 0 15 M0 45 C0.87 38.23, 0.08 32.11, 0 15 M0 15 C0.99 6.96, 3.3 0, 15 0 M0 15 C-1.18 5.18, 5.53 1.13, 15 0" stroke="#28a745" stroke-width="3" fill="none"></path></g><g transform="translate(385.39609375 530.3203125) rotate(0 126 10)"><text x="126" y="17.900390625" font-family="Helvetica, Segoe UI Emoji" font-size="20px" fill="#333333" text-anchor="middle" style="white-space: pre;" direction="ltr" dominant-baseline="alphabetic">Point of Availability</text></g><g transform="translate(395.09921875 558.7421875) rotate(0 117.60000000000002 7)"><text x="117.6" y="12.5302734375" font-family="Helvetica, Segoe UI Emoji" font-size="14px" fill="#666666" text-anchor="middle" style="white-space: pre;" direction="ltr" dominant-baseline="alphabetic">Blob is stored and available</text></g><g transform="translate(73.91562499999998 660) rotate(0 134.4 16)"><text x="0" y="28.640625" font-family="Helvetica, Segoe UI Emoji" font-size="32px" fill="#333333" text-anchor="start" style="white-space: pre;" direction="ltr" dominant-baseline="alphabetic">Retrieval Flow</text></g><g stroke-linecap="round" transform="translate(10 749.86328125) rotate(0 119.62968749999999 66.4609375)"><path d="M32 0 C81.28 -6.21, 137.98 -6.24, 207.26 0 C226.97 3.28, 237.89 8.34, 239.26 32 C238.16 53.88, 239.93 75.93, 239.26 100.92 C241.55 120.72, 226.63 136.21, 207.26 132.92 C149.75 128.39, 94.36 131.73, 32 132.92 C13.52 136.47, 0.69 118.9, 0 100.92 C3.28 84.59, 0.02 62.27, 0 32 C-1.09 13.14, 13.47 -2.89, 32 0" stroke="none" stroke-width="0" fill="#d4edda"></path><path d="M32 0 C101.45 0.21, 169.54 -0.25, 207.26 0 M32 0 C80.21 -1.16, 128.28 -1.76, 207.26 0 M207.26 0 C228.79 1.41, 239.99 11.67, 239.26 32 M207.26 0 C229.35 -1.77, 237.53 9.94, 239.26 32 M239.26 32 C238.13 49.97, 237.66 68.53, 239.26 100.92 M239.26 32 C238.12 46.29, 238.22 59.44, 239.26 100.92 M239.26 100.92 C237.92 120.26, 228.27 133.26, 207.26 132.92 M239.26 100.92 C240.98 123.97, 227.19 131.97, 207.26 132.92 M207.26 132.92 C152.35 133.36, 100.11 131, 32 132.92 M207.26 132.92 C160.13 133.63, 112.62 133.27, 32 132.92 M32 132.92 C12.48 133.73, -0.02 123.26, 0 100.92 M32 132.92 C8.82 134.87, -1.89 120.17, 0 100.92 M0 100.92 C1.53 85.97, -1.98 71.24, 0 32 M0 100.92 C1.34 78.74, 0.15 57.52, 0 32 M0 32 C1.95 9.12, 12.6 1.88, 32 0 M0 32 C-0.97 11.45, 10.74 1.45, 32 0" stroke="#28a745" stroke-width="3" fill="none"></path></g><g transform="translate(82.43437499999999 797.396875) rotate(0 57.42224999999999 15.950625000000002)"><text x="57.42224999999999" y="28.552241821289062" font-family="Helvetica, Segoe UI Emoji" font-size="31.901249999999997px" fill="#333333" text-anchor="middle" style="white-space: pre;" direction="ltr" dominant-baseline="alphabetic">Client</text></g><g transform="translate(296.88714904785155 826.125) rotate(0 31.015975952148438 10)"><text x="31.015975952148438" y="14.3203125" font-family="Helvetica, Segoe UI Emoji" font-size="16px" fill="#666666" text-anchor="middle" style="white-space: pre;" direction="ltr" dominant-baseline="alphabetic">Blob ID</text></g><g stroke-linecap="round"><g transform="translate(253.91562499999998 780) rotate(0 75 0)"><path d="M1.16 0.56 C25.89 0.45, 124.72 -0.64, 149.47 -0.64 M0.31 -0.19 C24.74 -0.15, 123.52 0.77, 148.25 0.57" stroke="#28a745" stroke-width="3" fill="none"></path></g><g transform="translate(253.91562499999998 780) rotate(0 75 0)"><path d="M124.74 9.08 C134.87 4.64, 142.07 1.59, 148.25 0.57 M124.74 9.08 C133.87 5.16, 142.16 3.79, 148.25 0.57" stroke="#28a745" stroke-width="3" fill="none"></path></g><g transform="translate(253.91562499999998 780) rotate(0 75 0)"><path d="M124.77 -8.02 C134.89 -5.77, 142.08 -2.12, 148.25 0.57 M124.77 -8.02 C133.98 -5.93, 142.26 -1.29, 148.25 0.57" stroke="#28a745" stroke-width="3" fill="none"></path></g></g><mask></mask><g stroke-linecap="round" transform="translate(403.915625 730) rotate(0 100 110)"><path d="M32 0 C74.44 -0.56, 111.16 2.93, 168 0 C187.55 -0.77, 197.43 11.67, 200 32 C201.19 81.15, 199.39 125.93, 200 188 C201.47 209.04, 192.78 217.24, 168 220 C135.29 220.81, 98.8 221.8, 32 220 C9.12 218.15, -2.94 209, 0 188 C0.65 132.41, -4.13 73.16, 0 32 C-1.03 8.62, 7.63 -2.41, 32 0" stroke="none" stroke-width="0" fill="#d1ecf1"></path><path d="M32 0 C85.77 1.29, 139.67 2.19, 168 0 M32 0 C80.17 0.71, 125.85 0.3, 168 0 M168 0 C190.91 0.39, 198.95 12.06, 200 32 M168 0 C187.53 0.95, 201.65 9.95, 200 32 M200 32 C200.04 68.05, 201.93 105.6, 200 188 M200 32 C202.07 76.57, 201.2 118.64, 200 188 M200 188 C200.52 208.63, 187.83 221.33, 168 220 M200 188 C197.93 207.16, 188.2 217.89, 168 220 M168 220 C133.05 219.38, 99.87 219.18, 32 220 M168 220 C119.1 219.15, 71.95 219.04, 32 220 M32 220 C9.18 220.96, -0.44 207.93, 0 188 M32 220 C9.67 220.1, 1.94 210.1, 0 188 M0 188 C-0.13 141.15, -0.23 99.29, 0 32 M0 188 C1.17 138.77, 0.23 88.94, 0 32 M0 32 C1.91 9.95, 11.75 1.87, 32 0 M0 32 C-1.05 12.74, 11.34 -0.05, 32 0" stroke="#0dcaf0" stroke-width="3" fill="none"></path></g><g transform="translate(437.52890625 761.14453125) rotate(0 72 12)"><text x="72" y="21.48046875" font-family="Helvetica, Segoe UI Emoji" font-size="24px" fill="#333333" text-anchor="middle" style="white-space: pre;" direction="ltr" dominant-baseline="alphabetic">Aggregator</text></g><g transform="translate(415.77109375 806.6953125) rotate(0 50.39999999999998 7)"><text x="0" y="12.5302734375" font-family="Helvetica, Segoe UI Emoji" font-size="14px" fill="#333333" text-anchor="start" style="white-space: pre;" direction="ltr" dominant-baseline="alphabetic">1. Query Sui</text></g><g transform="translate(415.77109375 831.6953125) rotate(0 57.651939392089844 17.5)"><text x="0" y="12.5302734375" font-family="Helvetica, Segoe UI Emoji" font-size="14px" fill="#333333" text-anchor="start" style="white-space: pre;" direction="ltr" dominant-baseline="alphabetic">2. Fetch slivers </text><text x="0" y="30.0302734375" font-family="Helvetica, Segoe UI Emoji" font-size="14px" fill="#333333" text-anchor="start" style="white-space: pre;" direction="ltr" dominant-baseline="alphabetic"></text></g><g transform="translate(415.77109375 856.6953125) rotate(0 67.96295166015625 8.75)"><text x="0" y="12.5302734375" font-family="Helvetica, Segoe UI Emoji" font-size="14px" fill="#333333" text-anchor="start" style="white-space: pre;" direction="ltr" dominant-baseline="alphabetic">3. Reconstruct blob</text></g><g transform="translate(415.77109375 881.6953125) rotate(0 84 7)"><text x="0" y="12.5302734375" font-family="Helvetica, Segoe UI Emoji" font-size="14px" fill="#333333" text-anchor="start" style="white-space: pre;" direction="ltr" dominant-baseline="alphabetic">4. Consistency check</text></g><g transform="translate(415.77109375 906.6953125) rotate(0 58.80000000000001 7)"><text x="0" y="12.5302734375" font-family="Helvetica, Segoe UI Emoji" font-size="14px" fill="#333333" text-anchor="start" style="white-space: pre;" direction="ltr" dominant-baseline="alphabetic">5. Return blob</text></g><g stroke-linecap="round"><g transform="translate(465.8140625 950) rotate(0 0 40)"><path d="M0.13 0.15 C0.32 13.5, 1.23 66.32, 1.09 79.45 M-1.26 -0.81 C-1.13 12.74, 0.21 67.28, 0.71 80.7" stroke="#4a90e2" stroke-width="3" fill="none"></path></g><g transform="translate(465.8140625 950) rotate(0 0 40)"><path d="M-8.53 57.48 C-5.64 66.21, -4.05 70.1, 0.71 80.7 M-8.53 57.48 C-6.26 62.3, -3.76 68.07, 0.71 80.7" stroke="#4a90e2" stroke-width="3" fill="none"></path></g><g transform="translate(465.8140625 950) rotate(0 0 40)"><path d="M8.56 56.97 C6.35 65.87, 2.85 69.91, 0.71 80.7 M8.56 56.97 C7.18 62.04, 6.01 67.92, 0.71 80.7" stroke="#4a90e2" stroke-width="3" fill="none"></path></g></g><mask></mask><g stroke-linecap="round" transform="translate(353.915625 1030) rotate(0 150 50)"><path d="M25 0 C124.62 -2.38, 222.56 0.75, 275 0 C294.36 2.95, 297.43 6.3, 300 25 C298.03 43.88, 302.58 56.71, 300 75 C299.24 90.29, 290.3 99.6, 275 100 C212.64 99.39, 155.36 98.43, 25 100 C8.04 101, -1.63 89.07, 0 75 C2 55.71, 2.02 42.95, 0 25 C2.9 4.82, 9.13 -2.14, 25 0" stroke="none" stroke-width="0" fill="#4a90e2"></path><path d="M25 0 C91.78 0.69, 157.25 2.16, 275 0 M25 0 C107.22 0.23, 190.11 -0.55, 275 0 M275 0 C292.47 -1.1, 298.47 6.74, 300 25 M275 0 C290.79 0.59, 298.81 7.53, 300 25 M300 25 C300.32 37.49, 301.42 50.28, 300 75 M300 25 C300.63 40, 300.45 53.89, 300 75 M300 75 C300.45 91.71, 293 100.89, 275 100 M300 75 C299.12 89.58, 292.75 99.88, 275 100 M275 100 C178.51 101.46, 83.45 100.93, 25 100 M275 100 C211.76 101.07, 150.79 101.82, 25 100 M25 100 C7.06 99.79, 0.68 91.42, 0 75 M25 100 C9.63 100.07, 0.11 93.1, 0 75 M0 75 C-0.14 62.01, -0.22 50.04, 0 25 M0 75 C-0.29 60.23, 0.09 43.32, 0 25 M0 25 C1.01 9.77, 6.49 -1.44, 25 0 M0 25 C-2 10.1, 7.05 0.16, 25 0" stroke="#2c5aa0" stroke-width="3" fill="none"></path></g><g transform="translate(427.7046875 1050.45703125) rotate(0 84 10)"><text x="84" y="17.900390625" font-family="Helvetica, Segoe UI Emoji" font-size="20px" fill="#ffffff" text-anchor="middle" style="white-space: pre;" direction="ltr" dominant-baseline="alphabetic">Sui Blockchain</text></g><g transform="translate(442.123567199707 1083.17578125) rotate(0 62.663932800293 17.5)"><text x="62.66393280029297" y="12.5302734375" font-family="Helvetica, Segoe UI Emoji" font-size="14px" fill="#ffffff" text-anchor="middle" style="white-space: pre;" direction="ltr" dominant-baseline="alphabetic">Blob Metadata</text><text x="62.66393280029297" y="30.0302734375" font-family="Helvetica, Segoe UI Emoji" font-size="14px" fill="#ffffff" text-anchor="middle" style="white-space: pre;" direction="ltr" dominant-baseline="alphabetic">Shard Assignments</text></g><g stroke-linecap="round"><g transform="translate(544.7828125 1030.2890625) rotate(0 0 -40)"><path d="M0.14 0.33 C-0.02 -13.04, -0.84 -67.64, -1.02 -81.07" stroke="#4a90e2" stroke-width="2.5" fill="none" stroke-dasharray="8 10"></path></g><g transform="translate(544.7828125 1030.2890625) rotate(0 0 -40)"><path d="M7.86 -57.7 C5.97 -66.24, 1.04 -72.96, -1.02 -81.07" stroke="#4a90e2" stroke-width="2.5" fill="none"></path></g><g transform="translate(544.7828125 1030.2890625) rotate(0 0 -40)"><path d="M-9.24 -57.45 C-6.12 -66.09, -6.04 -72.87, -1.02 -81.07" stroke="#4a90e2" stroke-width="2.5" fill="none"></path></g></g><mask></mask><g stroke-linecap="round"><g transform="translate(608.7486269094574 824.1206562178364) rotate(0 173.89432070965762 1.071501405957065)"><path d="M-0.12 1.17 C57.68 1.49, 289.13 2.38, 347.22 2.58 M-1.64 0.74 C55.92 0.63, 287.71 0.18, 345.97 0.68" stroke="#0d6efd" stroke-width="3" fill="none"></path></g><g transform="translate(608.7486269094574 824.1206562178364) rotate(0 173.89432070965762 1.071501405957065)"><path d="M322.46 9.17 C332.2 5.41, 338.8 4.54, 345.97 0.68 M322.46 9.17 C329.48 7.47, 337.5 4.71, 345.97 0.68" stroke="#0d6efd" stroke-width="3" fill="none"></path></g><g transform="translate(608.7486269094574 824.1206562178364) rotate(0 173.89432070965762 1.071501405957065)"><path d="M322.5 -7.93 C332.33 -5.99, 338.91 -1.16, 345.97 0.68 M322.5 -7.93 C329.35 -4.24, 337.35 -1.6, 345.97 0.68" stroke="#0d6efd" stroke-width="3" fill="none"></path></g></g><mask></mask><g stroke-linecap="round" transform="translate(967.4859375 727.640625) rotate(0 110 110)"><path d="M32 0 C85.88 1.94, 143.44 2.79, 188 0 C207.34 1.2, 218.12 12.01, 220 32 C218.46 70.41, 218.91 112.63, 220 188 C220.53 212.93, 210.41 223.22, 188 220 C149.44 219.89, 112.4 217.95, 32 220 C11.54 222.08, -3 212.02, 0 188 C2.14 139.59, 0.64 89.28, 0 32 C2.99 13.54, 10.19 3.34, 32 0" stroke="none" stroke-width="0" fill="#cfe2ff"></path><path d="M32 0 C72.71 -0.54, 113.49 -0.41, 188 0 M32 0 C66.38 -0.91, 103.36 -0.93, 188 0 M188 0 C209.64 -1.64, 219.24 12.47, 220 32 M188 0 C211.16 0.22, 220.91 11.17, 220 32 M220 32 C219.28 90.21, 222.04 152.34, 220 188 M220 32 C218.13 88.34, 217.92 146.29, 220 188 M220 188 C218.57 208.88, 208.2 218.86, 188 220 M220 188 C219.53 208.21, 209.01 218.2, 188 220 M188 220 C142.47 219.95, 93.94 219.73, 32 220 M188 220 C131.73 220.23, 77.42 220.15, 32 220 M32 220 C9.62 220.23, -0.98 210.03, 0 188 M32 220 C12.53 219.03, 0.09 211.26, 0 188 M0 188 C-1.9 125.48, -0.09 61.42, 0 32 M0 188 C-2.05 155.37, -0.59 124.86, 0 32 M0 32 C-1.6 10.49, 10.09 -1.29, 32 0 M0 32 C1.27 10.73, 12.93 -0.26, 32 0" stroke="#0d6efd" stroke-width="3" fill="none"></path></g><g transform="translate(992.978125 767.97265625) rotate(0 78 10)"><text x="78" y="17.900390625" font-family="Helvetica, Segoe UI Emoji" font-size="20px" fill="#333333" text-anchor="middle" style="white-space: pre;" direction="ltr" dominant-baseline="alphabetic">Storage Nodes</text></g><g transform="translate(986.0171875 821.58203125) rotate(0 54.60000000000002 7)"><text x="0" y="12.5302734375" font-family="Helvetica, Segoe UI Emoji" font-size="14px" fill="#333333" text-anchor="start" style="white-space: pre;" direction="ltr" dominant-baseline="alphabetic">Serve slivers</text></g><g transform="translate(986.0171875 846.58203125) rotate(0 71.39999999999998 7)"><text x="0" y="12.5302734375" font-family="Helvetica, Segoe UI Emoji" font-size="14px" fill="#333333" text-anchor="start" style="white-space: pre;" direction="ltr" dominant-baseline="alphabetic">Primary/Secondary</text></g><g stroke-linecap="round"><g transform="translate(965.0642111688394 887.1481334484736) rotate(0 -177.754791343163 0.5027311219243416)"><path d="M0.12 0.45 C-59.08 0.6, -296.92 0.82, -356.14 0.86" stroke="#0dcaf0" stroke-width="2.5" fill="none" stroke-dasharray="8 10"></path></g><g transform="translate(965.0642111688394 887.1481334484736) rotate(0 -177.754791343163 0.5027311219243416)"><path d="M-332.66 -7.71 C-337.12 -6.83, -343.33 -3.34, -356.14 0.86" stroke="#0dcaf0" stroke-width="2.5" fill="none"></path></g><g transform="translate(965.0642111688394 887.1481334484736) rotate(0 -177.754791343163 0.5027311219243416)"><path d="M-332.64 9.39 C-337.11 6.47, -343.33 6.16, -356.14 0.86" stroke="#0dcaf0" stroke-width="2.5" fill="none"></path></g></g><mask></mask><g stroke-linecap="round"><g transform="translate(398.81796875 858.94921875) rotate(0 -75 0)"><path d="M0.42 -0.92 C-24.63 -1.05, -125.33 -0.44, -150.45 -0.19" stroke="#28a745" stroke-width="3.5" fill="none" stroke-dasharray="8 11"></path></g><g transform="translate(398.81796875 858.94921875) rotate(0 -75 0)"><path d="M-127.02 -8.92 C-135.22 -7.09, -140.71 -4.3, -150.45 -0.19" stroke="#28a745" stroke-width="3.5" fill="none"></path></g><g transform="translate(398.81796875 858.94921875) rotate(0 -75 0)"><path d="M-126.89 8.18 C-135.21 5.12, -140.74 3.01, -150.45 -0.19" stroke="#28a745" stroke-width="3.5" fill="none"></path></g></g><mask></mask><g transform="translate(639.8406249999999 114.84765625) rotate(0 120.2899169921875 25)"><text x="0" y="17.900390625" font-family="Helvetica, Segoe UI Emoji" font-size="20px" fill="#1e1e1e" text-anchor="start" style="white-space: pre;" direction="ltr" dominant-baseline="alphabetic">send slivers + metadata </text><text x="0" y="42.900390625" font-family="Helvetica, Segoe UI Emoji" font-size="20px" fill="#1e1e1e" text-anchor="start" style="white-space: pre;" direction="ltr" dominant-baseline="alphabetic">(store request)</text></g><g transform="translate(658.3485290527343 229.984375) rotate(0 110.23991394042969 25)"><text x="0" y="17.900390625" font-family="Helvetica, Segoe UI Emoji" font-size="20px" fill="#1e1e1e" text-anchor="start" style="white-space: pre;" direction="ltr" dominant-baseline="alphabetic">signed receipts ,</text><text x="0" y="42.900390625" font-family="Helvetica, Segoe UI Emoji" font-size="20px" fill="#1e1e1e" text-anchor="start" style="white-space: pre;" direction="ltr" dominant-baseline="alphabetic"> storage confirmations</text></g><g transform="translate(609.5428497314452 781.27734375) rotate(0 173.9598846435547 12.5)"><text x="0" y="17.900390625" font-family="Helvetica, Segoe UI Emoji" font-size="20px" fill="#1e1e1e" text-anchor="start" style="white-space: pre;" direction="ltr" dominant-baseline="alphabetic">request slivers (parallel, by blob ID)</text></g><g transform="translate(638.632403564453 860.92578125) rotate(0 160.13986206054688 12.5)"><text x="0" y="17.900390625" font-family="Helvetica, Segoe UI Emoji" font-size="20px" fill="#1e1e1e" text-anchor="start" style="white-space: pre;" direction="ltr" dominant-baseline="alphabetic">serve slivers (primary/secondary)</text></g><g transform="translate(289.6778823852538 748.26171875) rotate(0 39.527976989746094 10)"><text x="39.527976989746094" y="14.3203125" font-family="Helvetica, Segoe UI Emoji" font-size="16px" fill="#666666" text-anchor="middle" style="white-space: pre;" direction="ltr" dominant-baseline="alphabetic">Http GET</text></g></svg>