<svg version="1.1" xmlns="http://www.w3.org/2000/svg" viewBox="0 0 1532.3475647112903 933.03515625" width="3064.6951294225805" height="1866.0703125"><!-- svg-source:excalidraw --><metadata></metadata><defs><style class="style-fonts">
      </style></defs><rect x="0" y="0" width="1532.3475647112903" height="933.03515625" fill="#f8f9fa"></rect><g stroke-linecap="round" transform="translate(10.308502211290175 323.4296875) rotate(359.81085424895764 112.3640625 93.63671875)"><path d="M32 0 C92.86 -5.17, 147.86 -3.77, 192.73 0 C210.68 1.82, 222.81 7.98, 224.73 32 C225.67 77.5, 224.01 119.05, 224.73 155.27 C221.68 178.99, 214.82 186.61, 192.73 187.27 C162.43 191.29, 127.62 184.57, 32 187.27 C7.87 187.35, 1.18 180.19, 0 155.27 C-1.3 128.59, 0.69 104.11, 0 32 C-0.79 12.54, 10.28 3.06, 32 0" stroke="none" stroke-width="0" fill="#d4edda"></path><path d="M32 0 C68.77 -0.72, 106.29 0.48, 192.73 0 M32 0 C70.18 -0.91, 109.01 -1.19, 192.73 0 M192.73 0 C214.82 -1.69, 225.65 10.26, 224.73 32 M192.73 0 C212.97 -0.95, 226.43 9.78, 224.73 32 M224.73 32 C224.79 66.38, 226.31 97.32, 224.73 155.27 M224.73 32 C223.3 70.53, 223.64 107.46, 224.73 155.27 M224.73 155.27 C226.65 175.61, 213.9 186.55, 192.73 187.27 M224.73 155.27 C226.42 175.49, 215.47 186.17, 192.73 187.27 M192.73 187.27 C144.56 189.94, 97.97 190.26, 32 187.27 M192.73 187.27 C152.45 187.68, 110.45 188.47, 32 187.27 M32 187.27 C9.32 187.53, 1.68 174.67, 0 155.27 M32 187.27 C11.08 189.46, -1.12 175.79, 0 155.27 M0 155.27 C-2.76 129.92, -1.07 103.97, 0 32 M0 155.27 C0.91 108.06, 1.14 61.71, 0 32 M0 32 C1.67 8.75, 11.05 1.93, 32 0 M0 32 C1.71 11.93, 11.99 2.27, 32 0" stroke="#28a745" stroke-width="2" fill="none"></path></g><g transform="translate(66.49053346129017 360.884375) rotate(0 56.18203125 23.4091796875)"><text x="56.18203125" y="31.499977416992188" font-family="Helvetica, Segoe UI Emoji" font-size="29.96375px" fill="#333333" text-anchor="middle" style="white-space: pre;" direction="ltr" dominant-baseline="alphabetic">Client</text></g><g transform="translate(66.49053346129017 417.06640625) rotate(0 56.18203125 37.454687500000006)"><text x="56.18203125" y="24.79544204711914" font-family="Helvetica, Segoe UI Emoji" font-size="22.4728125px" fill="#333333" text-anchor="middle" style="white-space: pre;" direction="ltr" dominant-baseline="alphabetic">HTTP PUT</text><text x="56.18203125" y="62.25012954711914" font-family="Helvetica, Segoe UI Emoji" font-size="22.4728125px" fill="#333333" text-anchor="middle" style="white-space: pre;" direction="ltr" dominant-baseline="alphabetic">Blob Data</text></g><g stroke-linecap="round" transform="translate(394.01260377379015 183.51171875) rotate(0 215.033203125 215.033203125)"><path d="M32 0 C117.44 -1.34, 200.05 -0.86, 398.07 0 C418.78 2.85, 430.27 8.84, 430.07 32 C432.9 109.85, 432.37 188.27, 430.07 398.07 C427.37 416.66, 419.98 430.31, 398.07 430.07 C267.16 431.98, 140.83 431.4, 32 430.07 C13.8 430.58, -2.82 418.17, 0 398.07 C-1.11 311.61, -3.69 219.51, 0 32 C-0.67 12.1, 12.43 1.88, 32 0" stroke="none" stroke-width="0" fill="#fff3cd"></path><path d="M32 0 C174.48 -2.24, 314.79 -2.43, 398.07 0 M32 0 C129.07 1.27, 226.5 0.76, 398.07 0 M398.07 0 C421 -0.06, 428.54 9.82, 430.07 32 M398.07 0 C420.28 -1.05, 431.06 12.93, 430.07 32 M430.07 32 C428.19 121.02, 428.71 207.83, 430.07 398.07 M430.07 32 C429.16 178.17, 430.01 323.89, 430.07 398.07 M430.07 398.07 C429.12 421.1, 418.31 428.19, 398.07 430.07 M430.07 398.07 C429.95 419.39, 419.96 431.25, 398.07 430.07 M398.07 430.07 C276.67 430.71, 153.06 430.23, 32 430.07 M398.07 430.07 C321.33 431.78, 244.53 430.6, 32 430.07 M32 430.07 C12.47 428.89, 0.63 420.76, 0 398.07 M32 430.07 C8.57 429.39, -0.47 418.88, 0 398.07 M0 398.07 C-2.43 261.72, -2.27 126.46, 0 32 M0 398.07 C-0.8 284.95, -1.21 171.12, 0 32 M0 32 C-1.01 12.08, 10.23 1.24, 32 0 M0 32 C1.35 9.62, 10.99 -0.23, 32 0" stroke="#ffc107" stroke-width="3" fill="none"></path></g><g transform="translate(490.80654908629015 203.506640625) rotate(0 107.5166015625 26.879150390625)"><text x="107.5166015625" y="38.49178333282471" font-family="Helvetica, Segoe UI Emoji" font-size="43.006640625px" fill="#333333" text-anchor="middle" style="white-space: pre;" direction="ltr" dominant-baseline="alphabetic">Publisher</text></g><g stroke-linecap="round" transform="translate(435.19033814879026 272.9306640625) rotate(0 174.57031249999997 54.55322265625)"><path d="M27.28 0 C123 2.67, 215.85 2.83, 321.86 0 C339.7 3.55, 351.73 10.45, 349.14 27.28 C352.03 35.98, 347.64 54.16, 349.14 81.83 C350.85 98.56, 339.67 108.04, 321.86 109.11 C253.67 108.8, 186.83 110.73, 27.28 109.11 C9.27 111.78, -0.44 100.3, 0 81.83 C-1.71 65.42, -0.31 47.45, 0 27.28 C-1.02 6.77, 9.84 -1.19, 27.28 0" stroke="none" stroke-width="0" fill="#e8f4f8"></path><path d="M27.28 0 C88.68 1.06, 150.24 0.32, 321.86 0 M27.28 0 C124.31 -1.76, 222.61 -1.45, 321.86 0 M321.86 0 C341.33 -0.67, 348.32 8.32, 349.14 27.28 M321.86 0 C340.86 -1.85, 348.58 7.72, 349.14 27.28 M349.14 27.28 C349.88 40.01, 346.84 50.12, 349.14 81.83 M349.14 27.28 C347.73 43.47, 349.11 60.65, 349.14 81.83 M349.14 81.83 C348.93 100.48, 338.81 107.53, 321.86 109.11 M349.14 81.83 C348.7 99.43, 339.29 110.86, 321.86 109.11 M321.86 109.11 C214.17 110.82, 108.71 109.14, 27.28 109.11 M321.86 109.11 C237.68 107.7, 151.92 107.71, 27.28 109.11 M27.28 109.11 C9.07 107.5, -0.09 99.55, 0 81.83 M27.28 109.11 C10.43 110.06, 2.03 101.54, 0 81.83 M0 81.83 C-0.32 60.38, -0.3 42.94, 0 27.28 M0 81.83 C0.01 61.24, -0.01 42.25, 0 27.28 M0 27.28 C0.76 9.54, 10.59 1.37, 27.28 0 M0 27.28 C0.88 10.41, 10.6 -0.79, 27.28 0" stroke="#4a90e2" stroke-width="2" fill="none"></path></g><g transform="translate(502.9600708635354 283.2698963266838) rotate(0 109.1064453125 27.276611328125)"><text x="109.1064453125" y="35.5256552696228" font-family="Helvetica, Segoe UI Emoji" font-size="30.5498046875px" fill="#333333" text-anchor="middle" style="white-space: pre;" direction="ltr" dominant-baseline="alphabetic">1. Encode Blob</text></g><g transform="translate(526.5452661018294 323.8324374658327) rotate(0 86.21891610961117 27.276611328125)"><text x="86.21891610961117" y="33.7580029964447" font-family="Helvetica, Segoe UI Emoji" font-size="24.00341796875px" fill="#333333" text-anchor="middle" style="white-space: pre;" direction="ltr" dominant-baseline="alphabetic">Blob → Slivers</text></g><g stroke-linecap="round" transform="translate(437.0192443987902 420.0482421875) rotate(0 172.0265625 53.75830078125)"><path d="M26.88 0 C115.71 -0.63, 208.58 -2.06, 317.17 0 C333.47 -1.11, 343.95 7.99, 344.05 26.88 C344.35 44.83, 343.94 63.29, 344.05 80.64 C341.29 99.41, 334.32 105.88, 317.17 107.52 C243.79 104.18, 166.42 106.89, 26.88 107.52 C8.03 107.58, -0.14 96.19, 0 80.64 C-1.12 67.24, 4.24 58.05, 0 26.88 C-0.37 8.8, 11.49 -2.94, 26.88 0" stroke="none" stroke-width="0" fill="#e8f4f8"></path><path d="M26.88 0 C89.13 1.63, 153.85 0.52, 317.17 0 M26.88 0 C100.86 0.95, 175.57 1.45, 317.17 0 M317.17 0 C334.61 -1.67, 344.01 8.8, 344.05 26.88 M317.17 0 C336.18 -2.09, 344.27 8.47, 344.05 26.88 M344.05 26.88 C341.72 36.93, 343.51 47.8, 344.05 80.64 M344.05 26.88 C342.87 37.9, 342.83 48.7, 344.05 80.64 M344.05 80.64 C342.1 100.53, 334.04 108.22, 317.17 107.52 M344.05 80.64 C343.05 98.09, 333.21 108.66, 317.17 107.52 M317.17 107.52 C205.95 107.91, 94.25 107.98, 26.88 107.52 M317.17 107.52 C241.06 105.75, 163.92 106.75, 26.88 107.52 M26.88 107.52 C8.67 106.63, 0.71 98.93, 0 80.64 M26.88 107.52 C7.33 107.89, 0 96.92, 0 80.64 M0 80.64 C-0.31 67.47, 0.11 50.64, 0 26.88 M0 80.64 C1.19 60.44, 0.71 37.98, 0 26.88 M0 26.88 C1.53 7.43, 10.67 0.79, 26.88 0 M0 26.88 C0.95 8.87, 10.51 2.17, 26.88 0" stroke="#4a90e2" stroke-width="2" fill="none"></path></g><g transform="translate(509.0788147112902 429.79541015625) rotate(0 107.5166015625 26.879150390625)"><text x="107.5166015625" y="35.0079934501648" font-family="Helvetica, Segoe UI Emoji" font-size="30.1046484375px" fill="#333333" text-anchor="middle" style="white-space: pre;" direction="ltr" dominant-baseline="alphabetic">2. Distribute</text></g><g transform="translate(484.8366272112902 472.02861328125) rotate(0 129.019921875 26.879150390625)"><text x="129.019921875" y="33.266098508834844" font-family="Helvetica, Segoe UI Emoji" font-size="23.65365234375px" fill="#333333" text-anchor="middle" style="white-space: pre;" direction="ltr" dominant-baseline="alphabetic">Send to Storage Nodes</text></g><g stroke-linecap="round" transform="translate(1221.4920959612903 10) rotate(0 150.427734375 125.35644531250001)"><path d="M32 0 C105.54 2.95, 181.85 0.64, 268.86 0 C293 -3.56, 300.97 7.31, 300.86 32 C296.64 83.11, 298.16 141.86, 300.86 218.71 C297.75 236.46, 290.13 250.61, 268.86 250.71 C189.07 256.38, 108.31 252.05, 32 250.71 C10.86 253.27, -0.39 240.01, 0 218.71 C-3.38 177.09, -1.94 138.9, 0 32 C3.01 11.23, 8.26 1.63, 32 0" stroke="none" stroke-width="0" fill="#cfe2ff"></path><path d="M32 0 C99.88 -1.63, 167.06 -0.63, 268.86 0 M32 0 C95.12 1.7, 159.26 1.73, 268.86 0 M268.86 0 C290.6 1.76, 302.02 12.49, 300.86 32 M268.86 0 C287.98 -0.01, 301.95 12.34, 300.86 32 M300.86 32 C298.82 84.29, 301.25 138.51, 300.86 218.71 M300.86 32 C298.48 94.43, 298.41 158.77, 300.86 218.71 M300.86 218.71 C302.48 239.41, 289.31 250.1, 268.86 250.71 M300.86 218.71 C299.61 239.1, 290.86 249.75, 268.86 250.71 M268.86 250.71 C217.03 249.74, 168.57 249.94, 32 250.71 M268.86 250.71 C200.51 252.48, 130.65 251.09, 32 250.71 M32 250.71 C11.57 249.56, -0.4 239.74, 0 218.71 M32 250.71 C9.01 248.94, -0.03 238.89, 0 218.71 M0 218.71 C1.53 152.94, 1.6 86.39, 0 32 M0 218.71 C-1 147.26, -1.57 75.25, 0 32 M0 32 C0.88 10.47, 8.9 0.08, 32 0 M0 32 C0.72 11.81, 10.25 -0.01, 32 0" stroke="#0d6efd" stroke-width="2" fill="none"></path></g><g transform="translate(1296.7059631487903 60.142578125) rotate(0 75.2138671875 37.60693359375)"><text x="75.2138671875" y="28.281099605560303" font-family="Helvetica, Segoe UI Emoji" font-size="35.099804687500004px" fill="#333333" text-anchor="middle" style="white-space: pre;" direction="ltr" dominant-baseline="alphabetic">Storage</text><text x="75.2138671875" y="65.8880331993103" font-family="Helvetica, Segoe UI Emoji" font-size="35.099804687500004px" fill="#333333" text-anchor="middle" style="white-space: pre;" direction="ltr" dominant-baseline="alphabetic">Node 1</text></g><g transform="translate(1268.769378676134 160.427734375) rotate(0 103.15045166015625 37.60693359375)"><text x="103.15045166015625" y="25.573204517364502" font-family="Helvetica, Segoe UI Emoji" font-size="25.0712890625px" fill="#333333" text-anchor="middle" style="white-space: pre;" direction="ltr" dominant-baseline="alphabetic">Receives Sliver</text><text x="103.15045166015625" y="63.1801381111145" font-family="Helvetica, Segoe UI Emoji" font-size="25.0712890625px" fill="#333333" text-anchor="middle" style="white-space: pre;" direction="ltr" dominant-baseline="alphabetic">Signs Certificate</text></g><g stroke-linecap="round"><g transform="translate(832.2537862419031 303.75324748435537) rotate(0 190.1283131517115 -89.99732297759768)"><path d="M0.55 -0.88 C64.03 -30.96, 317.14 -150.1, 380.31 -180.13 M-0.62 1.27 C62.76 -28.64, 316.21 -148.39, 379.39 -178.67" stroke="#0d6efd" stroke-width="2" fill="none"></path></g><g transform="translate(832.2537862419031 303.75324748435537) rotate(0 190.1283131517115 -89.99732297759768)"><path d="M361.84 -160.86 C364.7 -165.3, 370.31 -170.99, 379.39 -178.67 M361.84 -160.86 C365.22 -164.58, 369.72 -168.79, 379.39 -178.67" stroke="#0d6efd" stroke-width="2" fill="none"></path></g><g transform="translate(832.2537862419031 303.75324748435537) rotate(0 190.1283131517115 -89.99732297759768)"><path d="M354.5 -176.31 C359.23 -176.92, 366.68 -178.76, 379.39 -178.67 M354.5 -176.31 C359.4 -176.9, 365.41 -177.91, 379.39 -178.67" stroke="#0d6efd" stroke-width="2" fill="none"></path></g></g><mask></mask><g stroke-linecap="round"><g transform="translate(1216.5781899956733 157.1648857098083) rotate(0 -191.7384550615733 90.121250431095)"><path d="M0.65 0.6 C-63.2 30.71, -319.92 151.13, -383.99 181.01" stroke="#ffc107" stroke-width="2.5" fill="none" stroke-dasharray="8 10"></path></g><g transform="translate(1216.5781899956733 157.1648857098083) rotate(0 -191.7384550615733 90.121250431095)"><path d="M-366.34 163.31 C-369.32 166.61, -373.09 170.99, -383.99 181.01" stroke="#ffc107" stroke-width="2.5" fill="none"></path></g><g transform="translate(1216.5781899956733 157.1648857098083) rotate(0 -191.7384550615733 90.121250431095)"><path d="M-359.09 178.8 C-363.79 178.58, -369.22 179.42, -383.99 181.01" stroke="#ffc107" stroke-width="2.5" fill="none"></path></g></g><mask></mask><g stroke-linecap="round" transform="translate(1221.4920959612903 310.85546875) rotate(0 150.427734375 125.3564453125)"><path d="M32 0 C99.02 -4.28, 161.85 0.12, 268.86 0 C292.43 -1.66, 297.28 13.26, 300.86 32 C296.8 76.15, 302.16 118.41, 300.86 218.71 C299.83 242.58, 288.93 252.33, 268.86 250.71 C193.36 248.62, 114.49 251.11, 32 250.71 C8.06 253.39, -2.44 243.08, 0 218.71 C3.45 183.14, 2.93 141.4, 0 32 C-3.11 7.39, 12.22 -2, 32 0" stroke="none" stroke-width="0" fill="#cfe2ff"></path><path d="M32 0 C95.28 0.11, 162.61 -1.96, 268.86 0 M32 0 C117.79 -1.59, 203.02 -1.45, 268.86 0 M268.86 0 C291.63 0.35, 302.62 9.37, 300.86 32 M268.86 0 C290.73 -1.6, 301.72 8.66, 300.86 32 M300.86 32 C300.83 92.67, 300.68 158.52, 300.86 218.71 M300.86 32 C301.88 70.68, 301.72 109.16, 300.86 218.71 M300.86 218.71 C299.35 240.63, 291.73 248.76, 268.86 250.71 M300.86 218.71 C302.25 238.32, 291.62 250.75, 268.86 250.71 M268.86 250.71 C212.63 247.92, 155.32 248.86, 32 250.71 M268.86 250.71 C213.09 250.44, 155.68 249.84, 32 250.71 M32 250.71 C11.12 252.14, -0.3 239.76, 0 218.71 M32 250.71 C9.21 252.59, 0.05 237.79, 0 218.71 M0 218.71 C-1.07 162.33, 0.48 103.99, 0 32 M0 218.71 C1.48 179.08, 1.41 140.65, 0 32 M0 32 C-0.29 11.75, 11.85 0.06, 32 0 M0 32 C0.71 12.37, 10 -0.29, 32 0" stroke="#0d6efd" stroke-width="2" fill="none"></path></g><g transform="translate(1296.7059631487903 360.998046875) rotate(0 75.2138671875 37.60693359375)"><text x="75.2138671875" y="28.281099605560303" font-family="Helvetica, Segoe UI Emoji" font-size="35.099804687500004px" fill="#333333" text-anchor="middle" style="white-space: pre;" direction="ltr" dominant-baseline="alphabetic">Storage</text><text x="75.2138671875" y="65.8880331993103" font-family="Helvetica, Segoe UI Emoji" font-size="35.099804687500004px" fill="#333333" text-anchor="middle" style="white-space: pre;" direction="ltr" dominant-baseline="alphabetic">Node 2</text></g><g transform="translate(1268.769378676134 461.283203125) rotate(0 103.15045166015625 37.60693359375)"><text x="103.15045166015625" y="25.573204517364502" font-family="Helvetica, Segoe UI Emoji" font-size="25.0712890625px" fill="#333333" text-anchor="middle" style="white-space: pre;" direction="ltr" dominant-baseline="alphabetic">Receives Sliver</text><text x="103.15045166015625" y="63.1801381111145" font-family="Helvetica, Segoe UI Emoji" font-size="25.0712890625px" fill="#333333" text-anchor="middle" style="white-space: pre;" direction="ltr" dominant-baseline="alphabetic">Signs Certificate</text></g><g stroke-linecap="round"><g transform="translate(833.6007491713525 427.597351863105) rotate(0 191.8103436906855 0.026639862632265476)"><path d="M-0.03 0.24 C63.9 0.17, 319.52 0.53, 383.46 0.47 M-1.5 -0.68 C62.26 -1.19, 318.37 -1.73, 382.44 -1.43" stroke="#0d6efd" stroke-width="2" fill="none"></path></g><g transform="translate(833.6007491713525 427.597351863105) rotate(0 191.8103436906855 0.026639862632265476)"><path d="M358.94 7.1 C366.11 4.37, 373.24 2.16, 382.44 -1.43 M358.94 7.1 C365.09 5.33, 371.44 2.72, 382.44 -1.43" stroke="#0d6efd" stroke-width="2" fill="none"></path></g><g transform="translate(833.6007491713525 427.597351863105) rotate(0 191.8103436906855 0.026639862632265476)"><path d="M358.95 -10 C366.25 -7.76, 373.37 -4.99, 382.44 -1.43 M358.95 -10 C365.15 -6.92, 371.51 -4.69, 382.44 -1.43" stroke="#0d6efd" stroke-width="2" fill="none"></path></g></g><mask></mask><g stroke-linecap="round"><g transform="translate(1211.1998661833445 457.92781127466174) rotate(0 -189.29603557272884 1.0565927854332102)"><path d="M1.14 0.91 C-61.84 1.47, -314.54 2.59, -377.89 2.68" stroke="#ffc107" stroke-width="2.5" fill="none" stroke-dasharray="8 10"></path></g><g transform="translate(1211.1998661833445 457.92781127466174) rotate(0 -189.29603557272884 1.0565927854332102)"><path d="M-354.42 -5.94 C-360.06 -1.93, -367.74 -1.12, -377.89 2.68" stroke="#ffc107" stroke-width="2.5" fill="none"></path></g><g transform="translate(1211.1998661833445 457.92781127466174) rotate(0 -189.29603557272884 1.0565927854332102)"><path d="M-354.37 11.16 C-359.93 9.99, -367.62 5.62, -377.89 2.68" stroke="#ffc107" stroke-width="2.5" fill="none"></path></g></g><mask></mask><g stroke-linecap="round" transform="translate(1221.4920959612903 611.7109375) rotate(0 150.427734375 125.3564453125)"><path d="M32 0 C89.41 0.55, 146.33 -1.53, 268.86 0 C292.71 -2.47, 301.55 13.65, 300.86 32 C299.95 91.15, 296.88 141.39, 300.86 218.71 C299.41 236.51, 289.08 253.33, 268.86 250.71 C206.05 254.29, 145.57 251.75, 32 250.71 C11.16 248.97, -0.87 236.89, 0 218.71 C-2.13 150.69, -1.16 86.6, 0 32 C-1.81 13.17, 8.74 -1.36, 32 0" stroke="none" stroke-width="0" fill="#cfe2ff"></path><path d="M32 0 C92.12 -3.56, 154.61 -2.19, 268.86 0 M32 0 C124.36 2.14, 216.48 1.22, 268.86 0 M268.86 0 C288.58 -1.57, 299.91 8.89, 300.86 32 M268.86 0 C291.82 -1.85, 300.55 9.64, 300.86 32 M300.86 32 C300.19 103.35, 299.05 174.24, 300.86 218.71 M300.86 32 C301.71 93.51, 301.95 156.51, 300.86 218.71 M300.86 218.71 C302.53 238.63, 289.74 249.12, 268.86 250.71 M300.86 218.71 C299.69 238.64, 289.7 250.69, 268.86 250.71 M268.86 250.71 C211.14 250.99, 153.64 249.49, 32 250.71 M268.86 250.71 C175.69 250.77, 83.09 250.95, 32 250.71 M32 250.71 C10.15 250.01, 0.35 239.41, 0 218.71 M32 250.71 C8.92 250.06, -1.12 238.57, 0 218.71 M0 218.71 C0.42 168.08, 0.81 115.93, 0 32 M0 218.71 C-0.8 175.76, 1.05 134.53, 0 32 M0 32 C-1.1 10.38, 10.06 1.06, 32 0 M0 32 C0.9 8.49, 10.63 2.05, 32 0" stroke="#0d6efd" stroke-width="2" fill="none"></path></g><g transform="translate(1303.9856109759387 661.853515625) rotate(0 67.93421936035156 37.60693359375)"><text x="67.93421936035156" y="28.281099605560303" font-family="Helvetica, Segoe UI Emoji" font-size="35.099804687500004px" fill="#333333" text-anchor="middle" style="white-space: pre;" direction="ltr" dominant-baseline="alphabetic">Storage</text><text x="67.93421936035156" y="65.8880331993103" font-family="Helvetica, Segoe UI Emoji" font-size="35.099804687500004px" fill="#333333" text-anchor="middle" style="white-space: pre;" direction="ltr" dominant-baseline="alphabetic">Node N</text></g><g transform="translate(1268.769378676134 762.138671875) rotate(0 103.15045166015625 37.60693359375)"><text x="103.15045166015625" y="25.573204517364502" font-family="Helvetica, Segoe UI Emoji" font-size="25.0712890625px" fill="#333333" text-anchor="middle" style="white-space: pre;" direction="ltr" dominant-baseline="alphabetic">Receives Sliver</text><text x="103.15045166015625" y="63.1801381111145" font-family="Helvetica, Segoe UI Emoji" font-size="25.0712890625px" fill="#333333" text-anchor="middle" style="white-space: pre;" direction="ltr" dominant-baseline="alphabetic">Signs Certificate</text></g><g stroke-linecap="round"><g transform="translate(839.3000705563257 532.7716838900755) rotate(0 185.91533810901484 90.10738957249009)"><path d="M-1.1 0.18 C60.98 30.04, 309.69 149.06, 371.99 179.22 M0.52 -0.77 C62.51 29.2, 309.15 150.23, 371.13 180.23" stroke="#0d6efd" stroke-width="2" fill="none"></path></g><g transform="translate(839.3000705563257 532.7716838900755) rotate(0 185.91533810901484 90.10738957249009)"><path d="M346.27 177.62 C352.93 178.79, 357.34 180.63, 371.13 180.23 M346.27 177.62 C355.18 179.09, 364.34 179.17, 371.13 180.23" stroke="#0d6efd" stroke-width="2" fill="none"></path></g><g transform="translate(839.3000705563257 532.7716838900755) rotate(0 185.91533810901484 90.10738957249009)"><path d="M353.77 162.25 C358.51 167.28, 361 173.06, 371.13 180.23 M353.77 162.25 C359.92 169.56, 366.26 175.41, 371.13 180.23" stroke="#0d6efd" stroke-width="2" fill="none"></path></g></g><mask></mask><g stroke-linecap="round"><g transform="translate(1201.2518748774771 741.0035777442341) rotate(0 -185.66559073159237 -88.98956557583332)"><path d="M1.06 0.32 C-60.99 -29.28, -309.69 -148.56, -371.64 -178.42" stroke="#ffc107" stroke-width="2.5" fill="none" stroke-dasharray="8 10"></path></g><g transform="translate(1201.2518748774771 741.0035777442341) rotate(0 -185.66559073159237 -88.98956557583332)"><path d="M-346.76 -175.95 C-355.01 -177.12, -365.09 -176.3, -371.64 -178.42" stroke="#ffc107" stroke-width="2.5" fill="none"></path></g><g transform="translate(1201.2518748774771 741.0035777442341) rotate(0 -185.66559073159237 -88.98956557583332)"><path d="M-354.17 -160.54 C-359.69 -167.23, -367.15 -171.86, -371.64 -178.42" stroke="#ffc107" stroke-width="2.5" fill="none"></path></g></g><mask></mask><g stroke-linecap="round" transform="translate(413.84756471129015 725.4765625) rotate(0 197.55859375 98.779296875)"><path d="M32 0 C158.66 -1.66, 282.76 -2, 363.12 0 C381.57 0.8, 397.54 11.19, 395.12 32 C396.11 59.86, 395.25 88.15, 395.12 165.56 C392.32 189.59, 384.29 195.83, 363.12 197.56 C293.99 197.63, 224.38 196.68, 32 197.56 C9.54 197.74, -1.09 185.8, 0 165.56 C-1.81 125.97, 1.64 91.53, 0 32 C2.42 9.34, 7.73 0.11, 32 0" stroke="none" stroke-width="0" fill="#4a90e2"></path><path d="M32 0 C114.58 1.19, 198.2 0.29, 363.12 0 M32 0 C111.41 -1.11, 190.68 -1.48, 363.12 0 M363.12 0 C385.43 -0.53, 395.52 9.22, 395.12 32 M363.12 0 C385.91 1.06, 396.04 10.13, 395.12 32 M395.12 32 C396.55 83.42, 395.38 136.68, 395.12 165.56 M395.12 32 C394.69 68.41, 395.25 104.25, 395.12 165.56 M395.12 165.56 C393.74 186.52, 383.29 198.63, 363.12 197.56 M395.12 165.56 C393.89 185.85, 385.94 195.52, 363.12 197.56 M363.12 197.56 C258.86 194.94, 152.46 195.18, 32 197.56 M363.12 197.56 C247.77 198.28, 132.06 198.36, 32 197.56 M32 197.56 C11.78 195.86, 1.83 187.53, 0 165.56 M32 197.56 C9.79 196.07, 0.48 188.18, 0 165.56 M0 165.56 C0.39 132.51, -0.73 101.21, 0 32 M0 165.56 C1.38 130.62, 0.42 93.88, 0 32 M0 32 C-1.81 10.81, 12.58 1.86, 32 0 M0 32 C0.04 12.77, 10.46 1.4, 32 0" stroke="#2c5aa0" stroke-width="2" fill="none"></path></g><g transform="translate(512.6268615862901 764.98828125) rotate(0 98.779296875 24.69482421875)"><text x="98.779296875" y="33.22997283935547" font-family="Helvetica, Segoe UI Emoji" font-size="31.609375px" fill="#ffffff" text-anchor="middle" style="white-space: pre;" direction="ltr" dominant-baseline="alphabetic">Sui Blockchain</text></g><g transform="translate(512.6268615862901 814.3779296875) rotate(0 98.779296875 24.69482421875)"><text x="98.779296875" y="31.0961856842041" font-family="Helvetica, Segoe UI Emoji" font-size="23.70703125px" fill="#ffffff" text-anchor="middle" style="white-space: pre;" direction="ltr" dominant-baseline="alphabetic">Register Blob</text></g><g transform="translate(512.6268615862901 853.8896484375) rotate(0 98.779296875 24.69482421875)"><text x="98.779296875" y="31.0961856842041" font-family="Helvetica, Segoe UI Emoji" font-size="23.70703125px" fill="#ffffff" text-anchor="middle" style="white-space: pre;" direction="ltr" dominant-baseline="alphabetic">Post Certificate</text></g><g stroke-linecap="round"><g transform="translate(609.8466816303347 614.5918288620917) rotate(0 0.660797735934807 53.25429026419991)"><path d="M-0.66 0.85 C-0.53 18.53, -0.24 89.16, 0.14 106.93 M1.2 0.25 C1.73 17.48, 2.27 87.46, 2.23 105.02" stroke="#4a90e2" stroke-width="3" fill="none"></path></g><g transform="translate(609.8466816303347 614.5918288620917) rotate(0 0.660797735934807 53.25429026419991)"><path d="M-6.41 81.57 C-2.71 85.4, -1.31 93.61, 2.23 105.02 M-6.41 81.57 C-3.7 89.88, -0.34 99.36, 2.23 105.02" stroke="#4a90e2" stroke-width="3" fill="none"></path></g><g transform="translate(609.8466816303347 614.5918288620917) rotate(0 0.660797735934807 53.25429026419991)"><path d="M10.69 81.5 C10.19 85.26, 7.39 93.48, 2.23 105.02 M10.69 81.5 C6.92 89.86, 3.82 99.36, 2.23 105.02" stroke="#4a90e2" stroke-width="3" fill="none"></path></g></g><mask></mask><g transform="translate(639.1639709612901 654.8515625) rotate(0 89.78125000000006 22.4453125)"><text x="0" y="28.263558349609383" font-family="Helvetica, Segoe UI Emoji" font-size="21.547500000000007px" fill="#666666" text-anchor="start" style="white-space: pre;" direction="ltr" dominant-baseline="alphabetic">Post Certificate</text></g><g stroke-linecap="round"><g transform="translate(243.96086364161405 411.24827314211984) rotate(0 69.33269096403653 -1.0506432694495658)"><path d="M0.19 -0.65 C23.52 -0.79, 116.63 -1.18, 139.86 -1.54 M-1.17 1.62 C22.12 1.19, 116.14 -2.79, 139.54 -3.36" stroke="#28a745" stroke-width="3" fill="none"></path></g><g transform="translate(243.96086364161405 411.24827314211984) rotate(0 69.33269096403653 -1.0506432694495658)"><path d="M116.36 5.99 C121.98 5.26, 130.68 2.06, 139.54 -3.36 M116.36 5.99 C122.19 2.78, 128.5 1.44, 139.54 -3.36" stroke="#28a745" stroke-width="3" fill="none"></path></g><g transform="translate(243.96086364161405 411.24827314211984) rotate(0 69.33269096403653 -1.0506432694495658)"><path d="M115.77 -11.1 C121.46 -6.92, 130.32 -5.21, 139.54 -3.36 M115.77 -11.1 C121.87 -10.15, 128.32 -7.32, 139.54 -3.36" stroke="#28a745" stroke-width="3" fill="none"></path></g></g><mask></mask><g transform="translate(245.58193971129018 343.52265625) rotate(0 107.5166015625 26.879150390625)"><text x="0" y="33.846730155944826" font-family="Helvetica, Segoe UI Emoji" font-size="25.803984375px" fill="#666666" text-anchor="start" style="white-space: pre;" direction="ltr" dominant-baseline="alphabetic">HTTP PUT</text></g><g transform="translate(881.8154449533014 257.10937500000006) rotate(333.95446806375315 154.95989990234375 10)"><text x="0" y="14.3203125" font-family="Helvetica, Segoe UI Emoji" font-size="16px" fill="#ffc107" text-anchor="start" style="white-space: pre;" direction="ltr" dominant-baseline="alphabetic">Signed receipts / storage confirmations</text></g><g transform="translate(864.7412262033014 474.37890625000006) rotate(0.3838968231430345 154.95989990234375 10)"><text x="0" y="14.3203125" font-family="Helvetica, Segoe UI Emoji" font-size="16px" fill="#ffc107" text-anchor="start" style="white-space: pre;" direction="ltr" dominant-baseline="alphabetic">Signed receipts / storage confirmations</text></g><g transform="translate(855.6396637033014 661.7109375) rotate(25.7479424148982 154.95989990234375 10)"><text x="0" y="14.3203125" font-family="Helvetica, Segoe UI Emoji" font-size="16px" fill="#ffc107" text-anchor="start" style="white-space: pre;" direction="ltr" dominant-baseline="alphabetic">Signed receipts / storage confirmations</text></g><g stroke-linecap="round" transform="translate(441.0105011056452 545.7271484375) rotate(0 172.02656249999998 21.503320312499994)"><path d="M10.75 0 C103.53 0.43, 200.56 0.71, 333.3 0 C342.86 1.93, 345.83 1.2, 344.05 10.75 C341.57 14.09, 343.84 18.33, 344.05 32.25 C343.18 39.27, 343.54 46.19, 333.3 43.01 C217.06 42.07, 100.76 44.2, 10.75 43.01 C5.89 44.17, -2.47 41.7, 0 32.25 C-3.16 22.78, 2.94 17.3, 0 10.75 C-1.92 2.89, 4.75 -1.82, 10.75 0" stroke="none" stroke-width="0" fill="#f8d7da"></path><path d="M10.75 0 C76.55 -2.95, 143.88 -2.98, 333.3 0 M333.3 0 C339.53 -1.22, 343.45 2.87, 344.05 10.75 M344.05 10.75 C345.15 17.29, 342.19 26.81, 344.05 32.25 M344.05 32.25 C345.23 37.67, 339.43 43.76, 333.3 43.01 M333.3 43.01 C212.26 45.24, 89.83 44.36, 10.75 43.01 M10.75 43.01 C5.29 43.91, -0.28 37.6, 0 32.25 M0 32.25 C-1.69 23.46, 1.76 16.17, 0 10.75 M0 10.75 C1.72 2.99, 3.12 1.13, 10.75 0" stroke="#dc3545" stroke-width="1.5" fill="none" stroke-dasharray="8 9"></path></g><g transform="translate(513.0700714181451 557.2304687499999) rotate(0 100.01806640625 10.051660156249994)"><text x="100.01806640625" y="17.276569004058835" font-family="Helvetica, Segoe UI Emoji" font-size="19.3030078125px" fill="#666666" text-anchor="middle" style="white-space: pre;" direction="ltr" dominant-baseline="alphabetic">Optional: JWT Auth</text></g><g transform="translate(842.5008392404106 191.3984375) rotate(334.58467848352 163.21591186523438 10)"><text x="0" y="14.3203125" font-family="Helvetica, Segoe UI Emoji" font-size="16px" fill="#0d6efd" text-anchor="start" style="white-space: pre;" direction="ltr" dominant-baseline="alphabetic">Send slivers + metadata (store request)</text></g><g transform="translate(861.4109954904108 397.21875) rotate(0.07236392138063696 163.21591186523438 10)"><text x="0" y="14.3203125" font-family="Helvetica, Segoe UI Emoji" font-size="16px" fill="#0d6efd" text-anchor="start" style="white-space: pre;" direction="ltr" dominant-baseline="alphabetic">Send slivers + metadata (store request)</text></g><g transform="translate(877.2274017404108 592.12890625) rotate(26.021182150801398 163.21591186523438 10)"><text x="0" y="14.3203125" font-family="Helvetica, Segoe UI Emoji" font-size="16px" fill="#0d6efd" text-anchor="start" style="white-space: pre;" direction="ltr" dominant-baseline="alphabetic">Send slivers + metadata (store request)</text></g></svg>