<svg version="1.1" xmlns="http://www.w3.org/2000/svg" viewBox="0 0 1594.9609375 1100.234375" width="3189.921875" height="2200.46875"><!-- svg-source:excalidraw --><metadata></metadata><defs><style class="style-fonts">
      </style></defs><rect x="0" y="0" width="1594.9609375" height="1100.234375" fill="#f8f9fa"></rect><g transform="translate(10 10) rotate(0 257.13592529296875 20)"><text x="0" y="28.640625" font-family="Helvetica, Segoe UI Emoji" font-size="32px" fill="#333333" text-anchor="start" style="white-space: pre;" direction="ltr" dominant-baseline="alphabetic">Hands-On Upload Flow (Detailed)</text></g><g transform="translate(10 70) rotate(0 130 12)"><text x="0" y="17.900390625" font-family="Helvetica, Segoe UI Emoji" font-size="20px" fill="#333333" text-anchor="start" style="white-space: pre;" direction="ltr" dominant-baseline="alphabetic">Phase 1: Encoding</text></g><g stroke-linecap="round" transform="translate(10 110) rotate(0 130 40)"><path d="M20 0 C83.93 1.06, 142.46 -0.32, 240 0 C251.79 -2.34, 261.31 4.07, 260 20 C262.49 34.47, 263 50.84, 260 60 C260.39 72.15, 253.94 82.35, 240 80 C189.74 80.43, 139.55 83.05, 20 80 C3.48 78.23, -3.21 71.05, 0 60 C-3.11 49.12, -0.66 40.3, 0 20 C-0.44 5.02, 7.38 -3.12, 20 0" stroke="none" stroke-width="0" fill="#d4edda"></path><path d="M20 0 C72.32 -1.17, 127.85 -0.14, 240 0 M20 0 C82.53 -1.08, 144.62 -0.89, 240 0 M240 0 C253.69 -0.05, 260.7 8.65, 260 20 M240 0 C252.72 0.37, 260.14 6.54, 260 20 M260 20 C262.06 29.56, 259.41 34.73, 260 60 M260 20 C259.63 34.4, 258.79 47.78, 260 60 M260 60 C260.28 74.8, 253.35 80.18, 240 80 M260 60 C259.37 75.43, 251.65 78.54, 240 80 M240 80 C170.08 82.53, 97.19 80.97, 20 80 M240 80 C192.96 81.53, 144.58 81.16, 20 80 M20 80 C7.68 78.04, -1.39 73.53, 0 60 M20 80 C5.32 79.46, 0.62 72.67, 0 60 M0 60 C-1.69 44.7, -1.88 30.48, 0 20 M0 60 C-0.98 46.22, -0.1 30.61, 0 20 M0 20 C1.6 4.76, 7.24 1.82, 20 0 M0 20 C1.03 7.24, 5.2 0.18, 20 0" stroke="#28a745" stroke-width="2" fill="none"></path></g><g transform="translate(23.5850830078125 122) rotate(0 116.4149169921875 22.5)"><text x="116.4149169921875" y="16.1103515625" font-family="Helvetica, Segoe UI Emoji" font-size="18px" fill="#333333" text-anchor="middle" style="white-space: pre;" direction="ltr" dominant-baseline="alphabetic">Original Blob</text><text x="116.4149169921875" y="38.6103515625" font-family="Helvetica, Segoe UI Emoji" font-size="18px" fill="#333333" text-anchor="middle" style="white-space: pre;" direction="ltr" dominant-baseline="alphabetic">"Hello, Walrus!" (38 bytes)</text></g><g stroke-linecap="round" transform="translate(10 210) rotate(0 160 90)"><path d="M32 0 C94.66 -0.44, 157.02 -2.39, 288 0 M288 0 C307.84 0.41, 319.52 8.82, 320 32 M320 32 C322.23 72.39, 318.93 112.01, 320 148 M320 148 C319.82 170.63, 311.13 178.9, 288 180 M288 180 C226.41 180.88, 164.5 179.92, 32 180 M32 180 C11.28 179.45, 0.09 167.37, 0 148 M0 148 C1.85 114.87, 1.36 85.94, 0 32 M0 32 C0.51 12.6, 10.83 0.14, 32 0" stroke="#6c757d" stroke-width="2.5" fill="none" stroke-dasharray="8 10"></path></g><g transform="translate(26 222) rotate(0 148.7919158935547 70)"><text x="0" y="14.3203125" font-family="Helvetica, Segoe UI Emoji" font-size="16px" fill="#333333" text-anchor="start" style="white-space: pre;" direction="ltr" dominant-baseline="alphabetic">Encoding Process</text><text x="0" y="34.3203125" font-family="Helvetica, Segoe UI Emoji" font-size="16px" fill="#333333" text-anchor="start" style="white-space: pre;" direction="ltr" dominant-baseline="alphabetic">1. Split into symbols (k = 334)</text><text x="0" y="54.3203125" font-family="Helvetica, Segoe UI Emoji" font-size="16px" fill="#333333" text-anchor="start" style="white-space: pre;" direction="ltr" dominant-baseline="alphabetic">2. Apply Reed–Solomon encoding (RS2)</text><text x="0" y="74.3203125" font-family="Helvetica, Segoe UI Emoji" font-size="16px" fill="#333333" text-anchor="start" style="white-space: pre;" direction="ltr" dominant-baseline="alphabetic">3. Create sliver pairs (~1000 pairs)</text><text x="0" y="94.3203125" font-family="Helvetica, Segoe UI Emoji" font-size="16px" fill="#333333" text-anchor="start" style="white-space: pre;" direction="ltr" dominant-baseline="alphabetic">4. Compute sliver hashes</text><text x="0" y="114.3203125" font-family="Helvetica, Segoe UI Emoji" font-size="16px" fill="#333333" text-anchor="start" style="white-space: pre;" direction="ltr" dominant-baseline="alphabetic">5. Build Merkle tree</text><text x="0" y="134.3203125" font-family="Helvetica, Segoe UI Emoji" font-size="16px" fill="#333333" text-anchor="start" style="white-space: pre;" direction="ltr" dominant-baseline="alphabetic">6. Compute blob ID</text></g><g stroke-linecap="round"><g transform="translate(140 190) rotate(0 0 10)"><path d="M-0.52 0.41 C-0.52 3.71, -0.4 16.28, -0.27 19.61 M0.21 0.15 C0.42 3.52, 0.85 16.88, 0.83 20.1" stroke="#0d6efd" stroke-width="2" fill="none"></path></g><g transform="translate(140 190) rotate(0 0 10)"><path d="M-2.75 10.76 C-1.51 12.83, -1.37 15.62, 0.83 20.1 M-2.75 10.76 C-1.54 14.4, -0.1 17.63, 0.83 20.1" stroke="#0d6efd" stroke-width="2" fill="none"></path></g><g transform="translate(140 190) rotate(0 0 10)"><path d="M4.09 10.65 C3.65 12.71, 2.11 15.53, 0.83 20.1 M4.09 10.65 C2.78 14.37, 1.69 17.63, 0.83 20.1" stroke="#0d6efd" stroke-width="2" fill="none"></path></g></g><mask></mask><g stroke-linecap="round"><g transform="translate(140 390) rotate(0 0 10)"><path d="M0.14 0.1 C0.28 3.46, 0.56 16.81, 0.55 20.07 M-0.46 -0.33 C-0.32 3.14, 0.36 17.4, 0.39 20.8" stroke="#0d6efd" stroke-width="2" fill="none"></path></g><g transform="translate(140 390) rotate(0 0 10)"><path d="M-3.32 11.52 C-2.33 14.29, -1.44 16.11, 0.39 20.8 M-3.32 11.52 C-2.23 13.53, -1.32 15.85, 0.39 20.8" stroke="#0d6efd" stroke-width="2" fill="none"></path></g><g transform="translate(140 390) rotate(0 0 10)"><path d="M3.52 11.3 C2.83 14.13, 2.04 16.01, 0.39 20.8 M3.52 11.3 C2.96 13.35, 2.22 15.72, 0.39 20.8" stroke="#0d6efd" stroke-width="2" fill="none"></path></g></g><mask></mask><g stroke-linecap="round" transform="translate(10 410) rotate(0 160 75)"><path d="M32 0 C83.86 0.55, 136.04 5.12, 288 0 C309.94 2.97, 316.67 7.8, 320 32 C321.42 59.65, 320.76 79.61, 320 118 C321.19 136.41, 308.87 147.37, 288 150 C222.68 150.96, 164.51 147.59, 32 150 C11.19 153.14, -1.05 136.99, 0 118 C-1.92 91.99, -1.18 73.06, 0 32 C-1.64 11.68, 14.22 1.22, 32 0" stroke="none" stroke-width="0" fill="#cff4fc"></path><path d="M32 0 C94.2 1.9, 159.22 0.6, 288 0 M32 0 C112.14 -0.96, 192.1 0.28, 288 0 M288 0 C309.91 -0.87, 321.97 10.41, 320 32 M288 0 C309.92 -0.87, 321.33 11.73, 320 32 M320 32 C318.93 57.67, 321.66 87.34, 320 118 M320 32 C319.66 57.27, 321.32 81.76, 320 118 M320 118 C319.85 139.21, 308.26 151.86, 288 150 M320 118 C318.43 137.21, 308.67 148.8, 288 150 M288 150 C232.12 151.33, 177.96 149.98, 32 150 M288 150 C207.82 151.13, 128.82 150.89, 32 150 M32 150 C12.36 150.31, 1.55 138.69, 0 118 M32 150 C11.1 149.35, -0.22 139.25, 0 118 M0 118 C-2.49 95.82, 1.21 72.93, 0 32 M0 118 C-1.13 99.6, -0.95 79.68, 0 32 M0 32 C0.22 8.74, 9.93 1.98, 32 0 M0 32 C1.9 12.61, 10.68 0.02, 32 0" stroke="#0dcaf0" stroke-width="2" fill="none"></path></g><g transform="translate(26 422) rotate(0 136.68792724609375 60)"><text x="0" y="14.3203125" font-family="Helvetica, Segoe UI Emoji" font-size="16px" fill="#333333" text-anchor="start" style="white-space: pre;" direction="ltr" dominant-baseline="alphabetic">Encoded Result</text><text x="0" y="34.3203125" font-family="Helvetica, Segoe UI Emoji" font-size="16px" fill="#333333" text-anchor="start" style="white-space: pre;" direction="ltr" dominant-baseline="alphabetic">• Blob ID: 0xabc123...</text><text x="0" y="54.3203125" font-family="Helvetica, Segoe UI Emoji" font-size="16px" fill="#333333" text-anchor="start" style="white-space: pre;" direction="ltr" dominant-baseline="alphabetic">• ~1000 sliver pairs</text><text x="0" y="74.3203125" font-family="Helvetica, Segoe UI Emoji" font-size="16px" fill="#333333" text-anchor="start" style="white-space: pre;" direction="ltr" dominant-baseline="alphabetic">• Metadata: size, encoding, hashes</text><text x="0" y="94.3203125" font-family="Helvetica, Segoe UI Emoji" font-size="16px" fill="#333333" text-anchor="start" style="white-space: pre;" direction="ltr" dominant-baseline="alphabetic">• Total encoded size: ~190 bytes</text><text x="0" y="114.3203125" font-family="Helvetica, Segoe UI Emoji" font-size="16px" fill="#333333" text-anchor="start" style="white-space: pre;" direction="ltr" dominant-baseline="alphabetic">• Expansion ≈ 5× for tiny example</text></g><g transform="translate(469.97265625 367.61328125) rotate(0 184.4198455810547 12.5)"><text x="0" y="17.900390625" font-family="Helvetica, Segoe UI Emoji" font-size="20px" fill="#333333" text-anchor="start" style="white-space: pre;" direction="ltr" dominant-baseline="alphabetic">Phase 2: On-chain registration on Sui</text></g><g stroke-linecap="round" transform="translate(461.828125 416.51171875) rotate(0 150 60)"><path d="M30 0 C88.73 3.41, 146.96 2.57, 270 0 M270 0 C290.59 -1.7, 299.96 8.9, 300 30 M300 30 C298.57 46.05, 298.49 63.31, 300 90 M300 90 C299.03 108.71, 289.67 119.44, 270 120 M270 120 C183.55 120.27, 93.59 119.99, 30 120 M30 120 C9.15 121.96, -0.17 111.95, 0 90 M0 90 C-0.89 70.11, -2.15 46.77, 0 30 M0 30 C0.23 10.32, 9.86 -0.93, 30 0" stroke="#6c757d" stroke-width="1.5" fill="none" stroke-dasharray="8 9"></path></g><g transform="translate(477.828125 428.51171875) rotate(0 108.86392211914062 50)"><text x="0" y="14.3203125" font-family="Helvetica, Segoe UI Emoji" font-size="16px" fill="#333333" text-anchor="start" style="white-space: pre;" direction="ltr" dominant-baseline="alphabetic">On-chain Registration tx</text><text x="0" y="34.3203125" font-family="Helvetica, Segoe UI Emoji" font-size="16px" fill="#333333" text-anchor="start" style="white-space: pre;" direction="ltr" dominant-baseline="alphabetic">Publisher/Client creates tx:</text><text x="0" y="54.3203125" font-family="Helvetica, Segoe UI Emoji" font-size="16px" fill="#333333" text-anchor="start" style="white-space: pre;" direction="ltr" dominant-baseline="alphabetic">• Register blob object</text><text x="0" y="74.3203125" font-family="Helvetica, Segoe UI Emoji" font-size="16px" fill="#333333" text-anchor="start" style="white-space: pre;" direction="ltr" dominant-baseline="alphabetic">• Reserve storage space</text><text x="0" y="94.3203125" font-family="Helvetica, Segoe UI Emoji" font-size="16px" fill="#333333" text-anchor="start" style="white-space: pre;" direction="ltr" dominant-baseline="alphabetic">• Post metadata</text></g><g stroke-linecap="round" transform="translate(922.97265625 391.546875) rotate(0 150 70)"><path d="M32 0 C101.95 -0.48, 176.84 -2.73, 268 0 C285.74 0.2, 302.41 7.57, 300 32 C302.3 56.31, 301.87 79.34, 300 108 C300.66 132.16, 289.19 138.03, 268 140 C194.39 143.08, 113.21 140.58, 32 140 C7.08 140.04, -2.85 128.14, 0 108 C-1.17 82.25, 1.75 64.17, 0 32 C-1.44 11.49, 14.19 2.43, 32 0" stroke="none" stroke-width="0" fill="#e0cffc"></path><path d="M32 0 C91.19 0.87, 146.46 0.35, 268 0 M32 0 C96.41 1.87, 160.53 1.56, 268 0 M268 0 C289.42 -0.23, 300.37 12.55, 300 32 M268 0 C288.61 -0.36, 301.55 8.89, 300 32 M300 32 C301.15 47.24, 301.69 64.13, 300 108 M300 32 C299.61 49.82, 299.01 68.07, 300 108 M300 108 C300.83 131.22, 288.68 139.26, 268 140 M300 108 C301.49 129.82, 291.05 140.55, 268 140 M268 140 C197.35 141.99, 129.01 140.67, 32 140 M268 140 C175.37 139.28, 83.83 139.69, 32 140 M32 140 C8.92 140.88, -1.33 129.33, 0 108 M32 140 C8.75 141.56, -0.92 127.43, 0 108 M0 108 C1.02 86.51, -1.38 61.48, 0 32 M0 108 C-0.66 93.35, -0.39 76.44, 0 32 M0 32 C0.4 8.73, 12.17 1.44, 32 0 M0 32 C1.1 9.16, 8.85 -0.12, 32 0" stroke="#6610f2" stroke-width="2" fill="none"></path></g><g transform="translate(938.97265625 403.546875) rotate(0 128.1839141845703 60)"><text x="0" y="14.3203125" font-family="Helvetica, Segoe UI Emoji" font-size="16px" fill="#333333" text-anchor="start" style="white-space: pre;" direction="ltr" dominant-baseline="alphabetic">Sui Blockchain</text><text x="0" y="34.3203125" font-family="Helvetica, Segoe UI Emoji" font-size="16px" fill="#333333" text-anchor="start" style="white-space: pre;" direction="ltr" dominant-baseline="alphabetic">• Blob object ID: 0xdef456...</text><text x="0" y="54.3203125" font-family="Helvetica, Segoe UI Emoji" font-size="16px" fill="#333333" text-anchor="start" style="white-space: pre;" direction="ltr" dominant-baseline="alphabetic">• Blob ID: 0xabc123...</text><text x="0" y="74.3203125" font-family="Helvetica, Segoe UI Emoji" font-size="16px" fill="#333333" text-anchor="start" style="white-space: pre;" direction="ltr" dominant-baseline="alphabetic">• Encoding: RS2, size: 38 bytes</text><text x="0" y="94.3203125" font-family="Helvetica, Segoe UI Emoji" font-size="16px" fill="#333333" text-anchor="start" style="white-space: pre;" direction="ltr" dominant-baseline="alphabetic">• Storage epoch</text><text x="0" y="114.3203125" font-family="Helvetica, Segoe UI Emoji" font-size="16px" fill="#333333" text-anchor="start" style="white-space: pre;" direction="ltr" dominant-baseline="alphabetic">• Status: Registering / Certified</text></g><g stroke-linecap="round"><g transform="translate(333.3144651312993 490.5013646562189) rotate(0 63.35057993435035 -1.8276272573349956)"><path d="M-0.16 -0.47 C21.24 -0.75, 106.43 -1.94, 127.72 -2.64 M-1.7 -1.76 C19.69 -2.27, 105.81 -3.88, 127.3 -4.23" stroke="#0d6efd" stroke-width="2" fill="none"></path></g><g transform="translate(333.3144651312993 490.5013646562189) rotate(0 63.35057993435035 -1.8276272573349956)"><path d="M103.97 4.73 C108.99 4.26, 117.18 1.84, 127.3 -4.23 M103.97 4.73 C109.31 3.44, 115.04 1.55, 127.3 -4.23" stroke="#0d6efd" stroke-width="2" fill="none"></path></g><g transform="translate(333.3144651312993 490.5013646562189) rotate(0 63.35057993435035 -1.8276272573349956)"><path d="M103.66 -12.36 C108.62 -8.64, 116.89 -6.86, 127.3 -4.23 M103.66 -12.36 C109.02 -9.95, 114.81 -8.12, 127.3 -4.23" stroke="#0d6efd" stroke-width="2" fill="none"></path></g></g><mask></mask><g stroke-linecap="round"><g transform="translate(769.1535902291952 479.8969939699275) rotate(0 68.88203150007041 -1.0908843446777041)"><path d="M-1.11 -1.15 C22.02 -1.46, 114.95 -2.37, 138.16 -2.56 M0.5 0.85 C23.57 0.79, 114.57 -0.9, 137.42 -1.22" stroke="#0d6efd" stroke-width="2" fill="none"></path></g><g transform="translate(769.1535902291952 479.8969939699275) rotate(0 68.88203150007041 -1.0908843446777041)"><path d="M114.07 7.71 C117.93 6.39, 124.96 4.18, 137.42 -1.22 M114.07 7.71 C120.28 5.85, 127.26 2.54, 137.42 -1.22" stroke="#0d6efd" stroke-width="2" fill="none"></path></g><g transform="translate(769.1535902291952 479.8969939699275) rotate(0 68.88203150007041 -1.0908843446777041)"><path d="M113.79 -9.39 C117.62 -6.5, 124.71 -4.52, 137.42 -1.22 M113.79 -9.39 C120.05 -6.3, 127.12 -4.66, 137.42 -1.22" stroke="#0d6efd" stroke-width="2" fill="none"></path></g></g><mask></mask><g transform="translate(375.6915514961265 650.9438897230211) rotate(0 203.18980407714844 12.5)"><text x="0" y="17.900390625" font-family="Helvetica, Segoe UI Emoji" font-size="20px" fill="#333333" text-anchor="start" style="white-space: pre;" direction="ltr" dominant-baseline="alphabetic">Phase 3: Sliver distribution &amp; certificate</text></g><g stroke-linecap="round" transform="translate(905.609375 595.79296875) rotate(0 184.4765625 105)"><path d="M32 0 C146.45 -5.42, 263.15 -3.86, 336.95 0 C358.52 -3.46, 365.87 7.39, 368.95 32 C364.12 65.54, 365.3 98.61, 368.95 178 C367.75 201, 359.83 207.11, 336.95 210 C254.77 215.7, 175.52 215.28, 32 210 C9.55 213.32, -1.41 200.5, 0 178 C3.78 140.53, -1.65 99.66, 0 32 C0.16 8.46, 11.28 0.53, 32 0" stroke="none" stroke-width="0" fill="#cfe2ff"></path><path d="M32 0 C107.54 -0.88, 182.48 -0.75, 336.95 0 M32 0 C142.68 0.28, 252.76 0.64, 336.95 0 M336.95 0 C357.19 1.89, 368.84 11.06, 368.95 32 M336.95 0 C358.36 1.88, 369.77 11.21, 368.95 32 M368.95 32 C368.9 72.52, 371.68 109.6, 368.95 178 M368.95 32 C369.41 90.18, 369.81 146.95, 368.95 178 M368.95 178 C368.16 198.82, 359.57 210.38, 336.95 210 M368.95 178 C368.28 200.07, 359.14 209.19, 336.95 210 M336.95 210 C227.06 211.19, 118.95 210.11, 32 210 M336.95 210 C259.97 209.43, 181.5 209.36, 32 210 M32 210 C9.37 209.73, 1.97 197.44, 0 178 M32 210 C11.48 211.49, -1.49 197.81, 0 178 M0 178 C1.27 141.91, -1.2 106.41, 0 32 M0 178 C-1.7 132.35, -0.56 88.64, 0 32 M0 32 C-1.86 8.71, 9.96 0.21, 32 0 M0 32 C-1.38 10.07, 12.9 -0.23, 32 0" stroke="#0d6efd" stroke-width="2" fill="none"></path></g><g transform="translate(921.609375 607.79296875) rotate(0 132.8959197998047 100)"><text x="0" y="14.3203125" font-family="Helvetica, Segoe UI Emoji" font-size="16px" fill="#333333" text-anchor="start" style="white-space: pre;" direction="ltr" dominant-baseline="alphabetic">Storage Nodes (Shards 1…N)</text><text x="0" y="34.3203125" font-family="Helvetica, Segoe UI Emoji" font-size="16px" fill="#333333" text-anchor="start" style="white-space: pre;" direction="ltr" dominant-baseline="alphabetic">Receives:</text><text x="0" y="54.3203125" font-family="Helvetica, Segoe UI Emoji" font-size="16px" fill="#333333" text-anchor="start" style="white-space: pre;" direction="ltr" dominant-baseline="alphabetic">• Slivers + metadata</text><text x="0" y="74.3203125" font-family="Helvetica, Segoe UI Emoji" font-size="16px" fill="#333333" text-anchor="start" style="white-space: pre;" direction="ltr" dominant-baseline="alphabetic">Validates:</text><text x="0" y="94.3203125" font-family="Helvetica, Segoe UI Emoji" font-size="16px" fill="#333333" text-anchor="start" style="white-space: pre;" direction="ltr" dominant-baseline="alphabetic">• Hashes match</text><text x="0" y="114.3203125" font-family="Helvetica, Segoe UI Emoji" font-size="16px" fill="#333333" text-anchor="start" style="white-space: pre;" direction="ltr" dominant-baseline="alphabetic">• Blob ID &amp; shard assignment OK</text><text x="0" y="134.3203125" font-family="Helvetica, Segoe UI Emoji" font-size="16px" fill="#333333" text-anchor="start" style="white-space: pre;" direction="ltr" dominant-baseline="alphabetic">Stores:</text><text x="0" y="154.3203125" font-family="Helvetica, Segoe UI Emoji" font-size="16px" fill="#333333" text-anchor="start" style="white-space: pre;" direction="ltr" dominant-baseline="alphabetic">• Slivers for this shard</text><text x="0" y="174.3203125" font-family="Helvetica, Segoe UI Emoji" font-size="16px" fill="#333333" text-anchor="start" style="white-space: pre;" direction="ltr" dominant-baseline="alphabetic">Signs:</text><text x="0" y="194.3203125" font-family="Helvetica, Segoe UI Emoji" font-size="16px" fill="#333333" text-anchor="start" style="white-space: pre;" direction="ltr" dominant-baseline="alphabetic">• Storage certificate shares</text></g><g stroke-linecap="round"><g transform="translate(144.203125 573.1171875) rotate(0 374.69952799878456 75.0986328125)"><path d="M0.82 -0.81 C14.06 24.29, -45.78 126.97, 78.8 150.44 C203.37 173.92, 636.46 141.64, 748.28 140.06 M-0.21 1.38 C13.01 26.1, -46.8 125.11, 78.34 148.45 C203.47 171.79, 638.63 143, 750.58 141.41" stroke="#0d6efd" stroke-width="2" fill="none"></path></g><g transform="translate(144.203125 573.1171875) rotate(0 374.69952799878456 75.0986328125)"><path d="M727.44 150.86 C731.78 149.93, 739.22 144.19, 750.58 141.41 M727.44 150.86 C733.51 147.39, 741.53 145.43, 750.58 141.41" stroke="#0d6efd" stroke-width="2" fill="none"></path></g><g transform="translate(144.203125 573.1171875) rotate(0 374.69952799878456 75.0986328125)"><path d="M726.78 133.78 C731.26 137.04, 738.87 135.49, 750.58 141.41 M726.78 133.78 C733.09 135.51, 741.31 138.78, 750.58 141.41" stroke="#0d6efd" stroke-width="2" fill="none"></path></g></g><mask></mask><g transform="translate(377.58984375 689.23828125) rotate(0 163.21591186523438 10)"><text x="0" y="14.3203125" font-family="Helvetica, Segoe UI Emoji" font-size="16px" fill="#0d6efd" text-anchor="start" style="white-space: pre;" direction="ltr" dominant-baseline="alphabetic">Send slivers + metadata (store request)</text></g><g stroke-linecap="round" transform="translate(908.97265625 991.578125) rotate(0 183.564453125 49.328125)"><path d="M24.66 0 C103.95 3.85, 177.61 2.85, 342.46 0 C356.62 -0.81, 368.93 4.81, 367.13 24.66 C370.99 32.37, 367.99 42, 367.13 73.99 C369.93 91.23, 356.32 100.48, 342.46 98.66 C258.52 101.56, 172.93 98.62, 24.66 98.66 C8.96 97.23, 3.27 87.97, 0 73.99 C0.46 52.07, -2.22 32.87, 0 24.66 C3.17 7.34, 10.26 2.7, 24.66 0" stroke="none" stroke-width="0" fill="#d4edda"></path><path d="M24.66 0 C103.74 0.62, 179.36 1.17, 342.46 0 M24.66 0 C144.76 1.18, 265.08 1.29, 342.46 0 M342.46 0 C359.92 1.48, 367.65 7.5, 367.13 24.66 M342.46 0 C357.28 1.27, 366.24 7.06, 367.13 24.66 M367.13 24.66 C368.76 42.35, 366.23 56.78, 367.13 73.99 M367.13 24.66 C367.49 43.22, 368.14 59.49, 367.13 73.99 M367.13 73.99 C366.13 91.13, 359.64 99.88, 342.46 98.66 M367.13 73.99 C368.29 89.06, 360.27 97.98, 342.46 98.66 M342.46 98.66 C277.42 100.73, 213.23 99.72, 24.66 98.66 M342.46 98.66 C245.99 97.02, 150.53 97, 24.66 98.66 M24.66 98.66 C7.27 99.52, -0.56 92.13, 0 73.99 M24.66 98.66 C7.62 97.8, -1.91 91.5, 0 73.99 M0 73.99 C1.77 60.23, 1.24 42.17, 0 24.66 M0 73.99 C0.34 57.53, -0.86 40.17, 0 24.66 M0 24.66 C1.45 6.26, 8.86 -1.72, 24.66 0 M0 24.66 C-0.94 8.31, 6.6 -0.31, 24.66 0" stroke="#28a745" stroke-width="2" fill="none"></path></g><g transform="translate(922.5625 1002.484375) rotate(0 158.1999053955078 30)"><text x="0" y="14.3203125" font-family="Helvetica, Segoe UI Emoji" font-size="16px" fill="#333333" text-anchor="start" style="white-space: pre;" direction="ltr" dominant-baseline="alphabetic">Publisher / Client</text><text x="0" y="34.3203125" font-family="Helvetica, Segoe UI Emoji" font-size="16px" fill="#333333" text-anchor="start" style="white-space: pre;" direction="ltr" dominant-baseline="alphabetic">Collects signatures from storage nodes</text><text x="0" y="54.3203125" font-family="Helvetica, Segoe UI Emoji" font-size="16px" fill="#333333" text-anchor="start" style="white-space: pre;" direction="ltr" dominant-baseline="alphabetic">Aggregates into confirmation certificate</text></g><g stroke-linecap="round"><g transform="translate(1053.9898752023005 806.79296875) rotate(0 0.7115014545119038 91.892578125)"><path d="M0.35 -0.47 C0.54 30.23, 0.35 153.9, 0.49 184.66 M-0.93 -1.76 C-0.31 28.57, 2.5 151.78, 2.71 182.99" stroke="#ffc107" stroke-width="2" fill="none"></path></g><g transform="translate(1053.9898752023005 806.79296875) rotate(0 0.7115014545119038 91.892578125)"><path d="M-6.21 159.64 C-4.71 163.79, -0.29 170.7, 2.71 182.99 M-6.21 159.64 C-2.59 167.33, -0.04 175.42, 2.71 182.99" stroke="#ffc107" stroke-width="2" fill="none"></path></g><g transform="translate(1053.9898752023005 806.79296875) rotate(0 0.7115014545119038 91.892578125)"><path d="M10.89 159.37 C8.19 163.63, 8.42 170.61, 2.71 182.99 M10.89 159.37 C9.02 167.25, 6.07 175.43, 2.71 182.99" stroke="#ffc107" stroke-width="2" fill="none"></path></g></g><mask></mask><g transform="translate(917.2407511558107 900.6320806885292) rotate(0 176.295883178711 10)"><text x="0" y="14.3203125" font-family="Helvetica, Segoe UI Emoji" font-size="16px" fill="#ffc107" text-anchor="start" style="white-space: pre;" direction="ltr" dominant-baseline="alphabetic">Signed receipts / storage certificate shares</text></g><g stroke-linecap="round"><g transform="translate(1288.8014766840565 1045.90234375) rotate(0 51.83956114467344 -287.6953125)"><path d="M0.83 0.56 C26.12 -6.58, 127.46 47.5, 151.05 -41.98 C174.64 -131.46, 175.22 -447.38, 142.37 -536.32 C109.51 -625.26, -14.28 -569.22, -46.06 -575.6 M-0.19 -0.19 C25.01 -7.77, 126.49 45.33, 150.22 -43.84 C173.95 -133.01, 175.4 -446.76, 142.21 -535.22 C109.03 -623.68, -17.41 -568.18, -48.91 -574.61" stroke="#0d6efd" stroke-width="2" fill="none"></path></g><g transform="translate(1288.8014766840565 1045.90234375) rotate(0 51.83956114467344 -287.6953125)"><path d="M-26.49 -585.68 C-30.98 -582.43, -36.6 -578.14, -48.91 -574.61 M-26.49 -585.68 C-33.34 -582.11, -38.45 -580.15, -48.91 -574.61" stroke="#0d6efd" stroke-width="2" fill="none"></path></g><g transform="translate(1288.8014766840565 1045.90234375) rotate(0 51.83956114467344 -287.6953125)"><path d="M-24.62 -568.68 C-29.69 -569.6, -35.78 -569.48, -48.91 -574.61 M-24.62 -568.68 C-32.12 -569.63, -37.73 -572.18, -48.91 -574.61" stroke="#0d6efd" stroke-width="2" fill="none"></path></g></g><mask></mask><g transform="translate(1290 770) rotate(0 147.48046875 20)"><text x="0" y="14.3203125" font-family="Helvetica, Segoe UI Emoji" font-size="16px" fill="#0d6efd" text-anchor="start" style="white-space: pre;" direction="ltr" dominant-baseline="alphabetic">Post certificate to Sui</text><text x="0" y="34.3203125" font-family="Helvetica, Segoe UI Emoji" font-size="16px" fill="#0d6efd" text-anchor="start" style="white-space: pre;" direction="ltr" dominant-baseline="alphabetic">(2/3 shard quorum → Point of Availability)</text></g></svg>