<svg version="1.1" xmlns="http://www.w3.org/2000/svg" viewBox="0 0 1728.2887083978344 632.3291224413866" width="3456.577416795669" height="1264.6582448827733"><!-- svg-source:excalidraw --><metadata></metadata><defs><style class="style-fonts">
      </style></defs><rect x="0" y="0" width="1728.2887083978344" height="632.3291224413866" fill="#f8f9fa"></rect><g stroke-linecap="round" transform="translate(10 47.961972483018144) rotate(0 117.58587040172608 70.55152224103564)"><path d="M32 0 C93.84 -0.64, 160.51 5.58, 203.17 0 C226.31 -1.83, 237.79 11.03, 235.17 32 C237.31 55.03, 235.19 70.08, 235.17 109.1 C236.79 129.64, 227.1 142.5, 203.17 141.1 C154.17 135.55, 109.8 140.88, 32 141.1 C13.59 139.37, -0.27 127.69, 0 109.1 C0.62 83.64, 2.41 57.43, 0 32 C-3.15 12.35, 11.89 -1.36, 32 0" stroke="none" stroke-width="0" fill="#d4edda"></path><path d="M32 0 C99.15 2.68, 161.05 -0.36, 203.17 0 M32 0 C92.64 2.47, 152.52 1.53, 203.17 0 M203.17 0 C224.47 1.87, 236.27 8.91, 235.17 32 M203.17 0 C223.85 2.09, 233.86 10.15, 235.17 32 M235.17 32 C233.51 48.86, 235.68 65.21, 235.17 109.1 M235.17 32 C234.36 53.2, 234.55 73.33, 235.17 109.1 M235.17 109.1 C235.53 131.46, 225.25 140.51, 203.17 141.1 M235.17 109.1 C234.59 132.16, 223.8 141.36, 203.17 141.1 M203.17 141.1 C136.5 142.53, 69.12 142.42, 32 141.1 M203.17 141.1 C155.68 141.03, 107.11 142.65, 32 141.1 M32 141.1 C12.37 142.95, 1.59 130.14, 0 109.1 M32 141.1 C11.08 139.57, -0.43 131.24, 0 109.1 M0 109.1 C1.46 78.92, 0.32 53.13, 0 32 M0 109.1 C0.66 87.6, 0.67 65.67, 0 32 M0 32 C1.93 10.04, 11.9 -1.46, 32 0 M0 32 C0.76 11.59, 9 -2.04, 32 0" stroke="#28a745" stroke-width="3" fill="none"></path></g><g transform="translate(53.99212040172608 66.64556623301814) rotate(0 73.21802240813534 17.637880560258907)"><text x="73.21802240813534" y="25.25799614605826" font-family="Helvetica, Segoe UI Emoji" font-size="28.22060889641425px" fill="#333333" text-anchor="middle" style="white-space: pre;" direction="ltr" dominant-baseline="alphabetic">Blob Input</text></g><g transform="translate(56.89987299428917 122.71978498301814) rotate(0 73.54704284667969 11.7610284464226)"><text x="73.54704284667969" y="16.84216026741612" font-family="Helvetica, Segoe UI Emoji" font-size="18.81764551427617px" fill="#666666" text-anchor="middle" style="white-space: pre;" direction="ltr" dominant-baseline="alphabetic">Any binary data</text></g><g stroke-linecap="round"><g transform="translate(247.54595955495734 123.98913008393194) rotate(0 58.75223949644898 0.10165464100727206)"><path d="M-0.65 0.15 C18.66 0.11, 97.17 -0.47, 116.67 -0.58 M1.2 -0.82 C20.82 -0.7, 99.37 0.34, 118.94 0.55" stroke="#4a90e2" stroke-width="3" fill="none"></path></g><g transform="translate(247.54595955495734 123.98913008393194) rotate(0 58.75223949644898 0.10165464100727206)"><path d="M95.35 8.82 C104.31 4.51, 111.44 0.95, 118.94 0.55 M95.35 8.82 C101.15 6.83, 106.53 4.06, 118.94 0.55" stroke="#4a90e2" stroke-width="3" fill="none"></path></g><g transform="translate(247.54595955495734 123.98913008393194) rotate(0 58.75223949644898 0.10165464100727206)"><path d="M95.55 -8.28 C104.39 -6.3, 111.45 -3.56, 118.94 0.55 M95.55 -8.28 C101.35 -6.16, 106.69 -4.82, 118.94 0.55" stroke="#4a90e2" stroke-width="3" fill="none"></path></g></g><mask></mask><g stroke-linecap="round" transform="translate(372.6551142786786 13.251684572157757) rotate(0 166.7172157855386 122.52803599058777)"><path d="M32 0 C92.07 0.33, 152.68 1.51, 301.43 0 C320.47 -2.22, 331.31 11.39, 333.43 32 C335.53 90.28, 336.08 155.65, 333.43 213.06 C331.45 232.18, 323.64 243.18, 301.43 245.06 C228.85 238.93, 154.82 239.8, 32 245.06 C12.01 242.08, -2.74 235.58, 0 213.06 C-5.6 163.43, -1.83 106.01, 0 32 C-1.44 10.45, 8.03 -2.99, 32 0" stroke="none" stroke-width="0" fill="#e8f4f8"></path><path d="M32 0 C130.7 -0.61, 230.34 -2.1, 301.43 0 M32 0 C124.12 -1.13, 216.89 -0.34, 301.43 0 M301.43 0 C321.86 1.55, 334.58 11.78, 333.43 32 M301.43 0 C324.6 1.24, 335.29 10.77, 333.43 32 M333.43 32 C333.66 85.52, 334.99 136.54, 333.43 213.06 M333.43 32 C332.07 83.1, 332.98 133.45, 333.43 213.06 M333.43 213.06 C334.44 233.32, 322.17 245.19, 301.43 245.06 M333.43 213.06 C331.72 235.88, 322.92 246.45, 301.43 245.06 M301.43 245.06 C234.47 244.66, 169.17 246.09, 32 245.06 M301.43 245.06 C210.18 244.52, 117.32 244, 32 245.06 M32 245.06 C12.09 244.64, 1.81 234.23, 0 213.06 M32 245.06 C12.87 247.15, 1.52 235.98, 0 213.06 M0 213.06 C-0.83 159.34, 0.41 106.95, 0 32 M0 213.06 C-1.68 154.39, -0.73 96.01, 0 32 M0 32 C-0.8 12.28, 11.6 -1.09, 32 0 M0 32 C-1.74 10.14, 8.76 1.49, 32 0" stroke="#4a90e2" stroke-width="3" fill="none"></path></g><g transform="translate(394.6619350989394 24.306372072157757) rotate(0 130.2270622289563 13.565318982182951)"><text x="130.2270622289563" y="24.28245087338022" font-family="Helvetica, Segoe UI Emoji" font-size="27.1306379643659px" fill="#333333" text-anchor="middle" style="white-space: pre;" direction="ltr" dominant-baseline="alphabetic">Erasure Encoding</text></g><g transform="translate(382.6551142786786 63.25168457215776) rotate(0 139.84610659814058 8.632475715934603)"><text x="0" y="15.452468737605598" font-family="Helvetica, Segoe UI Emoji" font-size="17.26495143186921px" fill="#333333" text-anchor="start" style="white-space: pre;" direction="ltr" dominant-baseline="alphabetic">Split into k source symbols</text></g><g transform="translate(382.6551142786786 93.25168457215776) rotate(0 129.48713573901904 8.632475715934603)"><text x="0" y="15.452468737605598" font-family="Helvetica, Segoe UI Emoji" font-size="17.26495143186921px" fill="#333333" text-anchor="start" style="white-space: pre;" direction="ltr" dominant-baseline="alphabetic">Encode into n &gt; k symbols</text></g><g transform="translate(382.6551142786786 123.25168457215776) rotate(0 93.23073773209373 8.632475715934603)"><text x="0" y="15.452468737605598" font-family="Helvetica, Segoe UI Emoji" font-size="17.26495143186921px" fill="#333333" text-anchor="start" style="white-space: pre;" direction="ltr" dominant-baseline="alphabetic">Reed-Solomon codes</text></g><g transform="translate(381.4285517786786 152.26340332215776) rotate(0 135.71168518066406 21.581189289836516)"><text x="0" y="15.452468737605598" font-family="Helvetica, Segoe UI Emoji" font-size="17.26495143186921px" fill="#333333" text-anchor="start" style="white-space: pre;" direction="ltr" dominant-baseline="alphabetic">Systematic: first 334 primary slivers</text><text x="0" y="37.03365802744211" font-family="Helvetica, Segoe UI Emoji" font-size="17.26495143186921px" fill="#333333" text-anchor="start" style="white-space: pre;" direction="ltr" dominant-baseline="alphabetic">(≈1/3 needed to decode)</text></g><g transform="translate(382.6551142786786 203.34152832215776) rotate(0 160 8.632475715934618)"><text x="0" y="15.452468737605598" font-family="Helvetica, Segoe UI Emoji" font-size="17.26495143186921px" fill="#333333" text-anchor="start" style="white-space: pre;" direction="ltr" dominant-baseline="alphabetic">Expansion factor: blob size ≈ 4.5–5×</text></g><g stroke-linecap="round"><g transform="translate(707.7133762615663 127.32362023543399) rotate(0 53.596048209756134 -0.8309268414635937)"><path d="M0.44 -0.72 C18.27 -0.7, 89.73 -0.59, 107.5 -0.69 M-0.79 1.52 C16.86 1.29, 88.88 -1.47, 106.71 -2.3" stroke="#4a90e2" stroke-width="3" fill="none"></path></g><g transform="translate(707.7133762615663 127.32362023543399) rotate(0 53.596048209756134 -0.8309268414635937)"><path d="M83.59 7.22 C90.43 4.37, 101.23 0.32, 106.71 -2.3 M83.59 7.22 C91.39 4.45, 98.36 0.1, 106.71 -2.3" stroke="#4a90e2" stroke-width="3" fill="none"></path></g><g transform="translate(707.7133762615663 127.32362023543399) rotate(0 53.596048209756134 -0.8309268414635937)"><path d="M82.89 -9.87 C89.85 -6.83, 100.89 -4.99, 106.71 -2.3 M82.89 -9.87 C90.91 -6.96, 98.12 -5.64, 106.71 -2.3" stroke="#4a90e2" stroke-width="3" fill="none"></path></g></g><mask></mask><g stroke-linecap="round" transform="translate(822.8932310279226 10) rotate(0 134.39453207650672 109.95916260805093)"><path d="M32 0 C77.85 0.75, 120.32 1.78, 236.79 0 C259.48 2.36, 269.59 8.73, 268.79 32 C269.15 91.86, 266.47 147.72, 268.79 187.92 C266.34 210.13, 259.28 219.63, 236.79 219.92 C193.05 224.52, 143.55 220.52, 32 219.92 C12.11 218.7, -0.38 206.44, 0 187.92 C2.86 138.61, -0.56 85.81, 0 32 C-0.55 7.1, 13.15 -2.67, 32 0" stroke="none" stroke-width="0" fill="#fff3cd"></path><path d="M32 0 C93.4 -1.32, 153.99 0.14, 236.79 0 M32 0 C98.47 -0.34, 165.51 -0.95, 236.79 0 M236.79 0 C259.32 1.06, 268.28 12.12, 268.79 32 M236.79 0 C257.14 -1.08, 270.09 8.96, 268.79 32 M268.79 32 C267.79 77.13, 269.2 122.69, 268.79 187.92 M268.79 32 C267.71 77.53, 268.13 121.78, 268.79 187.92 M268.79 187.92 C269.71 207.77, 257.39 221.73, 236.79 219.92 M268.79 187.92 C267.32 209.52, 257.17 220.78, 236.79 219.92 M236.79 219.92 C176.84 218.82, 113.42 221.15, 32 219.92 M236.79 219.92 C187.51 218.54, 140.28 218.6, 32 219.92 M32 219.92 C9.98 221.74, 0.21 210.36, 0 187.92 M32 219.92 C9.35 219.49, 1.59 209.68, 0 187.92 M0 187.92 C-0.87 128.58, -1.55 74.57, 0 32 M0 187.92 C-1.24 153.12, -1.64 118.38, 0 32 M0 32 C-0.26 8.93, 10.41 1.62, 32 0 M0 32 C1.67 9.59, 9.04 1.52, 32 0" stroke="#ffc107" stroke-width="3" fill="none"></path></g><g transform="translate(842.4596381044294 26.6171875) rotate(0 120.95507886885605 13.439453207650672)"><text x="120.95507886885603" y="24.05714622033562" font-family="Helvetica, Segoe UI Emoji" font-size="26.87890641530134px" fill="#333333" text-anchor="middle" style="white-space: pre;" direction="ltr" dominant-baseline="alphabetic">Sliver Creation</text></g><g transform="translate(842.4635435279226 86) rotate(0 143.6799724745199 8.55237931395952)"><text x="0" y="15.30909304930449" font-family="Helvetica, Segoe UI Emoji" font-size="17.104758627919036px" fill="#333333" text-anchor="start" style="white-space: pre;" direction="ltr" dominant-baseline="alphabetic">Combine symbols into slivers</text></g><g transform="translate(842.4635435279226 116) rotate(0 123.15426212101704 8.55237931395952)"><text x="0" y="15.309093049304487" font-family="Helvetica, Segoe UI Emoji" font-size="17.104758627919033px" fill="#333333" text-anchor="start" style="white-space: pre;" direction="ltr" dominant-baseline="alphabetic">Each blob → many slivers</text></g><g transform="translate(842.4635435279226 146) rotate(0 128.28568970939273 8.55237931395952)"><text x="0" y="15.309093049304487" font-family="Helvetica, Segoe UI Emoji" font-size="17.104758627919033px" fill="#333333" text-anchor="start" style="white-space: pre;" direction="ltr" dominant-baseline="alphabetic">Primary &amp; Secondary pairs</text></g><g transform="translate(842.4635435279226 176) rotate(0 92.36569659076281 8.55237931395952)"><text x="0" y="15.309093049304487" font-family="Helvetica, Segoe UI Emoji" font-size="17.104758627919033px" fill="#333333" text-anchor="start" style="white-space: pre;" direction="ltr" dominant-baseline="alphabetic">Assigned to shards</text></g><g stroke-linecap="round"><g transform="translate(970.8532428110907 240.2344947356008) rotate(0 0.47438905715802093 90.89124773015868)"><path d="M-0.01 0.75 C0.03 30.93, -0.12 151.36, 0.03 181.68 M-1.48 0.1 C-1.05 30.42, 2 153.04, 2.25 183.17" stroke="#0d6efd" stroke-width="3" fill="none"></path></g><g transform="translate(970.8532428110907 240.2344947356008) rotate(0 0.47438905715802093 90.89124773015868)"><path d="M-6.71 159.83 C-2.81 164.88, -1.7 172.87, 2.25 183.17 M-6.71 159.83 C-4.43 169.42, -0.69 176.51, 2.25 183.17" stroke="#0d6efd" stroke-width="3" fill="none"></path></g><g transform="translate(970.8532428110907 240.2344947356008) rotate(0 0.47438905715802093 90.89124773015868)"><path d="M10.39 159.53 C9.46 164.66, 5.74 172.74, 2.25 183.17 M10.39 159.53 C6.24 169.36, 3.55 176.56, 2.25 183.17" stroke="#0d6efd" stroke-width="3" fill="none"></path></g></g><mask></mask><g stroke-linecap="round" transform="translate(205.99323332735463 422.68954820070724) rotate(0 441.37369791666663 94.580078125)"><path d="M32 0 C256.04 -4.7, 476.16 -6.3, 850.75 0 C871.42 -2.56, 886.27 10.87, 882.75 32 C884.43 60.54, 886.65 83.49, 882.75 157.16 C884.51 175.6, 870.44 191.65, 850.75 189.16 C549.82 192.2, 247.84 192.95, 32 189.16 C10.63 190.72, -0.88 174.99, 0 157.16 C-2.8 119.52, -3.03 75.63, 0 32 C-1.43 8.49, 13.4 -1.05, 32 0" stroke="none" stroke-width="0" fill="#cfe2ff"></path><path d="M32 0 C281.66 3.35, 532.76 2.62, 850.75 0 M32 0 C212.88 -0.93, 393.8 -1.4, 850.75 0 M850.75 0 C870.29 1.54, 882.38 9.32, 882.75 32 M850.75 0 C873.83 1.09, 881.07 10.65, 882.75 32 M882.75 32 C881.84 72.75, 882.49 116.74, 882.75 157.16 M882.75 32 C881.02 59.45, 882.71 85.3, 882.75 157.16 M882.75 157.16 C882.02 177.66, 871.84 188.61, 850.75 189.16 M882.75 157.16 C883.72 178.03, 870.02 188.46, 850.75 189.16 M850.75 189.16 C623.47 187.12, 396.35 187.31, 32 189.16 M850.75 189.16 C528.42 191.51, 205.69 191.69, 32 189.16 M32 189.16 C8.88 188.59, 0.45 177.21, 0 157.16 M32 189.16 C11.36 187.39, -2.08 180.54, 0 157.16 M0 157.16 C-1.05 111.1, 1.06 65.17, 0 32 M0 157.16 C-1.01 117.93, -0.81 78.49, 0 32 M0 32 C-1.18 11.49, 11.06 -0.24, 32 0 M0 32 C2.26 10.68, 12.73 -0.95, 32 0" stroke="#0d6efd" stroke-width="3" fill="none"></path></g><g transform="translate(463.86302499402126 439.88095445070724) rotate(0 163.434375 15.1328125)"><text x="163.434375" y="27.08832550048828" font-family="Helvetica, Segoe UI Emoji" font-size="30.265625px" fill="#333333" text-anchor="middle" style="white-space: pre;" direction="ltr" dominant-baseline="alphabetic">Shard Distribution</text></g><g transform="translate(387.83177499402126 487.88876695070724) rotate(0 266.3375 10.088541666666686)"><text x="266.3375" y="18.058883666992188" font-family="Helvetica, Segoe UI Emoji" font-size="20.177083333333332px" fill="#333333" text-anchor="middle" style="white-space: pre;" direction="ltr" dominant-baseline="alphabetic">Each shard receives one sliver pair per blob</text></g><g stroke-linecap="round" transform="translate(269.0466187440213 536.1856419507072) rotate(0 94.58007812499999 25.221354166666686)"><path d="M12.61 0 C65.94 -4.31, 115.92 -3.71, 176.55 0 C184.53 -0.42, 187.53 7.67, 189.16 12.61 C191.81 23.91, 188.91 34.61, 189.16 37.83 C186.87 45.3, 183.28 49.19, 176.55 50.44 C137.1 53.63, 90.32 49.71, 12.61 50.44 C1.81 52.87, -1.3 45.55, 0 37.83 C-0.47 31.91, 3.67 27.31, 0 12.61 C2.33 7.61, 4.91 -0.39, 12.61 0" stroke="none" stroke-width="0" fill="#e8f4f8"></path><path d="M12.61 0 C68.18 -3.24, 119.04 -2.82, 176.55 0 M12.61 0 C46.4 -1.48, 78.52 -1.27, 176.55 0 M176.55 0 C184.21 0.49, 189.34 4.49, 189.16 12.61 M176.55 0 C183.27 -0.06, 187.53 4.56, 189.16 12.61 M189.16 12.61 C189.46 18.37, 188.25 23.93, 189.16 37.83 M189.16 12.61 C188.3 18.17, 189.88 22.74, 189.16 37.83 M189.16 37.83 C187.33 47.61, 185.21 49.69, 176.55 50.44 M189.16 37.83 C188.74 44.35, 185.08 48.41, 176.55 50.44 M176.55 50.44 C140.74 50.39, 104.92 50.95, 12.61 50.44 M176.55 50.44 C139.42 49.36, 101.44 49.39, 12.61 50.44 M12.61 50.44 C3.84 50.21, 0.87 44.68, 0 37.83 M12.61 50.44 C4.82 52.58, 1.89 45.74, 0 37.83 M0 37.83 C-0.71 27.03, -0.93 19.99, 0 12.61 M0 37.83 C-0.36 32.19, 0.56 26.42, 0 12.61 M0 12.61 C-0.67 2.33, 4.58 0.1, 12.61 0 M0 12.61 C0.93 2.96, 4.83 -0.64, 12.61 0" stroke="#4a90e2" stroke-width="2" fill="none"></path></g><g transform="translate(327.4104086203234 553.1804997387932) rotate(0 37.07539062500001 8.827473958333314)"><text x="37.075390625" y="15.80152320861816" font-family="Helvetica, Segoe UI Emoji" font-size="17.654947916666664px" fill="#333333" text-anchor="middle" style="white-space: pre;" direction="ltr" dominant-baseline="alphabetic">Shard 1</text></g><g stroke-linecap="round" transform="translate(521.260160410688 536.1856419507072) rotate(0 94.58007812499997 25.221354166666686)"><path d="M12.61 0 C64.31 3.8, 112.82 3.96, 176.55 0 C182.94 -1.63, 186.86 4.67, 189.16 12.61 C192.19 15.62, 189.84 26.56, 189.16 37.83 C191.82 42.71, 182.68 49.24, 176.55 50.44 C119.79 53.78, 67.07 52.47, 12.61 50.44 C6.79 49.25, 2.99 47.44, 0 37.83 C-0.41 26.37, -3.55 16.29, 0 12.61 C3.17 4.96, 3.11 -1.41, 12.61 0" stroke="none" stroke-width="0" fill="#e8f4f8"></path><path d="M12.61 0 C47.95 -0.8, 84.73 -3.06, 176.55 0 M12.61 0 C48.52 2.34, 83.44 0.62, 176.55 0 M176.55 0 C186 1.52, 189.37 6.19, 189.16 12.61 M176.55 0 C186.67 -0.7, 190.04 3.05, 189.16 12.61 M189.16 12.61 C189.05 22.82, 188.58 33.44, 189.16 37.83 M189.16 12.61 C189.44 21.67, 189.48 32.48, 189.16 37.83 M189.16 37.83 C190.88 46.52, 184.72 50.88, 176.55 50.44 M189.16 37.83 C190.37 46.9, 184.77 50.29, 176.55 50.44 M176.55 50.44 C142.13 52.2, 105.81 51.07, 12.61 50.44 M176.55 50.44 C140.95 51.02, 106.23 50.29, 12.61 50.44 M12.61 50.44 C4.08 50.43, 1.66 45.64, 0 37.83 M12.61 50.44 C4.83 51.83, -1.77 44.17, 0 37.83 M0 37.83 C-0.53 32.42, 1.54 23.75, 0 12.61 M0 37.83 C-0.25 32.7, 0.43 25.87, 0 12.61 M0 12.61 C0.73 2.57, 5.34 -1.39, 12.61 0 M0 12.61 C1.87 6.1, 3.21 -0.55, 12.61 0" stroke="#4a90e2" stroke-width="2" fill="none"></path></g><g transform="translate(580.554972931033 551.8750976188387) rotate(0 37.07539062500001 8.827473958333314)"><text x="37.075390625" y="15.80152320861816" font-family="Helvetica, Segoe UI Emoji" font-size="17.654947916666664px" fill="#333333" text-anchor="middle" style="white-space: pre;" direction="ltr" dominant-baseline="alphabetic">Shard 2</text></g><g stroke-linecap="round" transform="translate(773.4737020773546 536.1856419507072) rotate(0 94.580078125 25.221354166666686)"><path d="M12.61 0 C57.79 4.08, 105.4 1.55, 176.55 0 C183.27 1.87, 186.93 3.1, 189.16 12.61 C188.48 24.04, 187.26 33.09, 189.16 37.83 C186.98 48.58, 182.68 50.85, 176.55 50.44 C127.54 46.85, 72.91 48.5, 12.61 50.44 C6.56 47.13, 3.58 43.25, 0 37.83 C2.94 30.59, 1.74 18.23, 0 12.61 C-2.2 1.57, 6.4 0.39, 12.61 0" stroke="none" stroke-width="0" fill="#e8f4f8"></path><path d="M12.61 0 C50.25 -0.17, 87.42 0.35, 176.55 0 M12.61 0 C51.07 1.58, 88.05 0.99, 176.55 0 M176.55 0 C182.96 1.17, 189.02 5.68, 189.16 12.61 M176.55 0 C186.87 -2.27, 188.35 3.87, 189.16 12.61 M189.16 12.61 C188.82 19.02, 190.28 23.21, 189.16 37.83 M189.16 12.61 C189.79 18.85, 188.82 27.49, 189.16 37.83 M189.16 37.83 C190.4 46.96, 186.9 52.42, 176.55 50.44 M189.16 37.83 C191.26 46.26, 185.19 51.1, 176.55 50.44 M176.55 50.44 C121.58 50.23, 63.82 49.87, 12.61 50.44 M176.55 50.44 C129.66 51.19, 84.08 51.87, 12.61 50.44 M12.61 50.44 C2.96 49.44, -1.42 46.04, 0 37.83 M12.61 50.44 C5.05 49.83, -0.46 46.06, 0 37.83 M0 37.83 C1.26 32.66, 0.54 25.37, 0 12.61 M0 37.83 C-0.55 31.41, 0.37 26.98, 0 12.61 M0 12.61 C-0.17 3.1, 2.82 -1.23, 12.61 0 M0 12.61 C1.51 3.69, 3.14 0.6, 12.61 0" stroke="#4a90e2" stroke-width="2" fill="none"></path></g><g transform="translate(831.6059678040799 551.7962808870678) rotate(0 37.07539062500001 8.827473958333314)"><text x="37.075390625" y="15.80152320861816" font-family="Helvetica, Segoe UI Emoji" font-size="17.654947916666664px" fill="#333333" text-anchor="middle" style="white-space: pre;" direction="ltr" dominant-baseline="alphabetic">Shard 3</text></g><g stroke-linecap="round"><g transform="translate(1096.3982417172851 516.1839155951563) rotate(0 89.64368564036539 -0.8261899134581654)"><path d="M0.96 0.29 C31.21 0.3, 150.5 -0.33, 180.41 -0.5 M0.01 -0.61 C30.28 -0.86, 150.01 -1.69, 180.05 -2.02" stroke="#2c5aa0" stroke-width="3" fill="none"></path></g><g transform="translate(1096.3982417172851 516.1839155951563) rotate(0 89.64368564036539 -0.8261899134581654)"><path d="M156.63 6.73 C162.11 6.56, 168.51 4.73, 180.05 -2.02 M156.63 6.73 C165.81 2.37, 175.27 0.79, 180.05 -2.02" stroke="#2c5aa0" stroke-width="3" fill="none"></path></g><g transform="translate(1096.3982417172851 516.1839155951563) rotate(0 89.64368564036539 -0.8261899134581654)"><path d="M156.48 -10.37 C161.92 -6.92, 168.35 -5.13, 180.05 -2.02 M156.48 -10.37 C165.56 -8.27, 175.08 -3.4, 180.05 -2.02" stroke="#2c5aa0" stroke-width="3" fill="none"></path></g></g><mask></mask><g stroke-linecap="round" transform="translate(1281.2237020773546 408.64763021002784) rotate(0 218.5325031602399 106.8407461156794)"><path d="M32 0 C176.77 -2.07, 325.4 0.78, 405.07 0 C427.25 1.93, 435.72 7.52, 437.07 32 C434.6 81.22, 437.33 127.6, 437.07 181.68 C434.12 204, 428.2 213.88, 405.07 213.68 C304.89 213.11, 204.64 214.65, 32 213.68 C13.91 213.72, -1.91 204.17, 0 181.68 C-4.42 132.04, -2.54 75.62, 0 32 C-3.52 10.19, 11.21 -0.89, 32 0" stroke="none" stroke-width="0" fill="#4a90e2"></path><path d="M32 0 C140.65 0.26, 251.86 0.15, 405.07 0 M32 0 C143.68 1.06, 254.75 1.62, 405.07 0 M405.07 0 C427.61 -0.98, 435.83 9.66, 437.07 32 M405.07 0 C428.12 1.58, 437.47 11.58, 437.07 32 M437.07 32 C435.45 75.4, 434.38 118.63, 437.07 181.68 M437.07 32 C435.94 89.25, 437.14 147.85, 437.07 181.68 M437.07 181.68 C437.5 202.27, 428.38 214.88, 405.07 213.68 M437.07 181.68 C435.27 204.69, 426.06 214.82, 405.07 213.68 M405.07 213.68 C308.23 215.89, 211.91 215.07, 32 213.68 M405.07 213.68 C312.33 215.43, 219.15 215.26, 32 213.68 M32 213.68 C10.32 214.71, 1.68 203.04, 0 181.68 M32 213.68 C12.12 213.04, -1.67 203.33, 0 181.68 M0 181.68 C-0.09 126.94, -3.12 75.22, 0 32 M0 181.68 C-1.41 146.98, -2.08 113.86, 0 32 M0 32 C0.21 12.29, 11.94 -0.25, 32 0 M0 32 C2.15 9.7, 12.62 0.65, 32 0" stroke="#2c5aa0" stroke-width="3" fill="none"></path></g><g transform="translate(1373.1722208625945 427.02548570070724) rotate(0 147.64039606294568 14.474548633622135)"><text x="147.6403960629457" y="25.910007466239612" font-family="Helvetica, Segoe UI Emoji" font-size="28.949097267244255px" fill="#ffffff" text-anchor="middle" style="white-space: pre;" direction="ltr" dominant-baseline="alphabetic">Metadata Creation</text></g><g transform="translate(1302.6494833273546 490.31845445070724) rotate(0 140.59632855134532 11.158438773916316)"><text x="0" y="19.974041281824775" font-family="Helvetica, Segoe UI Emoji" font-size="22.316877547832593px" fill="#ffffff" text-anchor="start" style="white-space: pre;" direction="ltr" dominant-baseline="alphabetic">Compute sliver hashes</text></g><g transform="translate(1302.6494833273546 520.3184544507072) rotate(0 113.81607549394619 11.158438773916316)"><text x="0" y="19.974041281824775" font-family="Helvetica, Segoe UI Emoji" font-size="22.316877547832593px" fill="#ffffff" text-anchor="start" style="white-space: pre;" direction="ltr" dominant-baseline="alphabetic">Build Merkle tree</text></g><g transform="translate(1302.6494833273546 550.3184544507072) rotate(0 93.73088570089692 11.158438773916316)"><text x="0" y="19.974041281824782" font-family="Helvetica, Segoe UI Emoji" font-size="22.316877547832597px" fill="#ffffff" text-anchor="start" style="white-space: pre;" direction="ltr" dominant-baseline="alphabetic">Derive blob ID</text></g><g transform="translate(1302.6494833273546 580.3184544507072) rotate(0 147.29139181569508 11.158438773916316)"><text x="0" y="19.974041281824782" font-family="Helvetica, Segoe UI Emoji" font-size="22.316877547832597px" fill="#ffffff" text-anchor="start" style="white-space: pre;" direction="ltr" dominant-baseline="alphabetic">Merkle root + metadata</text></g></svg>