<svg version="1.1" xmlns="http://www.w3.org/2000/svg" viewBox="0 0 840 840" width="1680" height="1680"><!-- svg-source:excalidraw --><metadata></metadata><defs><style class="style-fonts">
      </style></defs><rect x="0" y="0" width="840" height="840" fill="#f8f9fa"></rect><g transform="translate(10 10) rotate(0 292.9919128417969 20)"><text x="0" y="28.640625" font-family="Helvetica, Segoe UI Emoji" font-size="32px" fill="#333333" text-anchor="start" style="white-space: pre;" direction="ltr" dominant-baseline="alphabetic">Download / Retrieval Flow (Detailed)</text></g><g transform="translate(10 70) rotate(0 150 12)"><text x="0" y="17.900390625" font-family="Helvetica, Segoe UI Emoji" font-size="20px" fill="#333333" text-anchor="start" style="white-space: pre;" direction="ltr" dominant-baseline="alphabetic">Phase 1: Metadata Lookup</text></g><g stroke-linecap="round" transform="translate(10 110) rotate(0 150 50)"><path d="M25 0 C110.77 2.47, 198.41 0.09, 275 0 C290.78 3.1, 302.64 11.26, 300 25 C301.44 35.22, 299.41 48.75, 300 75 C299.25 93.37, 291.58 100.85, 275 100 C180.07 97.74, 81.96 101.68, 25 100 C7.95 96.53, 0.43 90.52, 0 75 C2.1 63.34, 3.37 50.58, 0 25 C0.06 9.54, 11.14 -1.29, 25 0" stroke="none" stroke-width="0" fill="#d4edda"></path><path d="M25 0 C98.87 0.79, 170.18 -0.63, 275 0 M25 0 C97.56 1.15, 171.48 2.31, 275 0 M275 0 C291.42 -1.55, 300.63 7.93, 300 25 M275 0 C293.38 -0.76, 301.69 8.01, 300 25 M300 25 C300.37 36.58, 299.29 49.77, 300 75 M300 25 C299.47 43.67, 300.09 62.12, 300 75 M300 75 C300.43 92.05, 290.82 98.11, 275 100 M300 75 C299.14 89.52, 290.39 98.06, 275 100 M275 100 C209.44 99.1, 142.04 97.74, 25 100 M275 100 C215.96 98.83, 157 99.05, 25 100 M25 100 C8.92 101.11, -1.04 90.76, 0 75 M25 100 C9.34 100.69, -0.68 89.82, 0 75 M0 75 C1.97 60.26, 1.47 41.19, 0 25 M0 75 C-0.54 65.72, 0.17 55.5, 0 25 M0 25 C-0.82 6.89, 10.17 -0.25, 25 0 M0 25 C0.31 7.06, 8.81 0.85, 25 0" stroke="#28a745" stroke-width="2" fill="none"></path></g><g transform="translate(26 122) rotate(0 134 30)"><text x="0" y="14.3203125" font-family="Helvetica, Segoe UI Emoji" font-size="16px" fill="#333333" text-anchor="start" style="white-space: pre;" direction="ltr" dominant-baseline="alphabetic">Aggregator / Client</text><text x="0" y="34.3203125" font-family="Helvetica, Segoe UI Emoji" font-size="16px" fill="#333333" text-anchor="start" style="white-space: pre;" direction="ltr" dominant-baseline="alphabetic">• Receives Request: &lt;BlobID&gt;</text><text x="0" y="54.3203125" font-family="Helvetica, Segoe UI Emoji" font-size="16px" fill="#333333" text-anchor="start" style="white-space: pre;" direction="ltr" dominant-baseline="alphabetic">• Needs metadata &amp; slivers</text></g><g stroke-linecap="round" transform="translate(530 110) rotate(0 150 60)"><path d="M30 0 C121.29 -0.58, 216.32 -0.99, 270 0 C287.43 -2.33, 303.5 12.84, 300 30 C297.34 46.03, 299.73 62.17, 300 90 C301.92 111.12, 287.16 116.8, 270 120 C210.82 115.39, 144.83 117.42, 30 120 C10.85 118.17, 1.15 106.43, 0 90 C-3.67 65.67, -2.97 49.13, 0 30 C-2.74 9.69, 11.35 -2.24, 30 0" stroke="none" stroke-width="0" fill="#e0cffc"></path><path d="M30 0 C99.09 -1.73, 168.84 0.48, 270 0 M30 0 C86.52 -0.95, 143.39 -1.07, 270 0 M270 0 C291.16 -0.49, 298.39 8.86, 300 30 M270 0 C292.11 0.37, 299.02 8.54, 300 30 M300 30 C298.89 46.67, 300.93 62.4, 300 90 M300 30 C300.78 50.39, 300.9 70.65, 300 90 M300 90 C301.62 111.19, 290.12 118.67, 270 120 M300 90 C300.37 107.98, 290.6 119.68, 270 120 M270 120 C197.98 118.76, 128.97 117.41, 30 120 M270 120 C205.39 122.15, 141.14 121.29, 30 120 M30 120 C10.82 120.54, -1.39 110.15, 0 90 M30 120 C10.07 120.66, -0.96 108.35, 0 90 M0 90 C-0.28 73.01, -0.82 53.74, 0 30 M0 90 C0.23 68.78, -0.63 46.73, 0 30 M0 30 C0.05 8.55, 8.74 1.13, 30 0 M0 30 C-0.94 9.19, 7.91 0.79, 30 0" stroke="#6610f2" stroke-width="2" fill="none"></path></g><g transform="translate(546 122) rotate(0 134 40)"><text x="0" y="14.3203125" font-family="Helvetica, Segoe UI Emoji" font-size="16px" fill="#333333" text-anchor="start" style="white-space: pre;" direction="ltr" dominant-baseline="alphabetic">Sui Blockchain</text><text x="0" y="34.3203125" font-family="Helvetica, Segoe UI Emoji" font-size="16px" fill="#333333" text-anchor="start" style="white-space: pre;" direction="ltr" dominant-baseline="alphabetic">• Blob Metadata (Size, Encoding)</text><text x="0" y="54.3203125" font-family="Helvetica, Segoe UI Emoji" font-size="16px" fill="#333333" text-anchor="start" style="white-space: pre;" direction="ltr" dominant-baseline="alphabetic">• Storage Epoch &amp; Shards</text><text x="0" y="74.3203125" font-family="Helvetica, Segoe UI Emoji" font-size="16px" fill="#333333" text-anchor="start" style="white-space: pre;" direction="ltr" dominant-baseline="alphabetic">• Validity Status</text></g><g stroke-linecap="round"><g transform="translate(310 160) rotate(0 110 0)"><path d="M0.98 0.6 C37.74 0.37, 184.01 -0.83, 220.5 -0.77 M0.03 -0.13 C36.69 -0.28, 183.3 0.48, 219.81 0.36" stroke="#0d6efd" stroke-width="2" fill="none"></path></g><g transform="translate(310 160) rotate(0 110 0)"><path d="M196.31 8.88 C204.09 7.04, 208.63 3.62, 219.81 0.36 M196.31 8.88 C205.59 5.96, 214.04 3.01, 219.81 0.36" stroke="#0d6efd" stroke-width="2" fill="none"></path></g><g transform="translate(310 160) rotate(0 110 0)"><path d="M196.33 -8.23 C204.19 -5.09, 208.72 -3.55, 219.81 0.36 M196.33 -8.23 C205.57 -4.65, 214.01 -1.11, 219.81 0.36" stroke="#0d6efd" stroke-width="2" fill="none"></path></g></g><mask></mask><g transform="translate(370 135) rotate(0 50 10)"><text x="50" y="10.740234375" font-family="Helvetica, Segoe UI Emoji" font-size="12px" fill="#333333" text-anchor="middle" style="white-space: pre;" direction="ltr" dominant-baseline="alphabetic">Query Metadata</text></g><g transform="translate(10 270) rotate(0 150 12)"><text x="0" y="17.900390625" font-family="Helvetica, Segoe UI Emoji" font-size="20px" fill="#333333" text-anchor="start" style="white-space: pre;" direction="ltr" dominant-baseline="alphabetic">Phase 2: Sliver Retrieval</text></g><g stroke-linecap="round" transform="translate(530 310) rotate(0 150 75)"><path d="M32 0 C102.72 -0.28, 169.75 -1.67, 268 0 C289.76 2.1, 302.03 13.28, 300 32 C301.02 55.2, 303.62 84.91, 300 118 C301.39 139, 286.8 147.45, 268 150 C190.74 147.47, 109.75 150.52, 32 150 C7.41 152.26, -0.65 136.91, 0 118 C-3.22 89.08, -0.34 54.13, 0 32 C-2.53 10.17, 11.99 -1.03, 32 0" stroke="none" stroke-width="0" fill="#cfe2ff"></path><path d="M32 0 C101.85 0.61, 168.86 0.32, 268 0 M32 0 C125.32 1.9, 218.89 1.85, 268 0 M268 0 C290 0.16, 300.78 11.66, 300 32 M268 0 C290.14 0.87, 299.25 10.96, 300 32 M300 32 C300.93 64.83, 300.78 94.37, 300 118 M300 32 C300.37 56.16, 300.23 81.39, 300 118 M300 118 C298.6 138.53, 289.87 150.07, 268 150 M300 118 C298.82 139.92, 287.71 151.43, 268 150 M268 150 C181.4 149.46, 91.63 148.18, 32 150 M268 150 C185.78 150.31, 103.79 151.78, 32 150 M32 150 C12.05 151.1, -0.27 140.12, 0 118 M32 150 C8.39 148.27, -1.66 140.46, 0 118 M0 118 C-0.94 90.84, 0.43 58.58, 0 32 M0 118 C-0.88 89.23, -1.65 58.88, 0 32 M0 32 C0.23 9.2, 11.65 0.59, 32 0 M0 32 C-1.74 11, 11.34 0.66, 32 0" stroke="#0d6efd" stroke-width="2" fill="none"></path></g><g transform="translate(546 322) rotate(0 106.18392944335938 40)"><text x="0" y="14.3203125" font-family="Helvetica, Segoe UI Emoji" font-size="16px" fill="#333333" text-anchor="start" style="white-space: pre;" direction="ltr" dominant-baseline="alphabetic">Storage Nodes</text><text x="0" y="34.3203125" font-family="Helvetica, Segoe UI Emoji" font-size="16px" fill="#333333" text-anchor="start" style="white-space: pre;" direction="ltr" dominant-baseline="alphabetic">• Parallel Fetch</text><text x="0" y="54.3203125" font-family="Helvetica, Segoe UI Emoji" font-size="16px" fill="#333333" text-anchor="start" style="white-space: pre;" direction="ltr" dominant-baseline="alphabetic">• Need 334 Primary Slivers</text><text x="0" y="74.3203125" font-family="Helvetica, Segoe UI Emoji" font-size="16px" fill="#333333" text-anchor="start" style="white-space: pre;" direction="ltr" dominant-baseline="alphabetic">• Validate Sliver Hash</text></g><g stroke-linecap="round"><g transform="translate(160 210) rotate(0 185 85)"><path d="M0.99 -0.43 C0.98 27.94, -61.68 140.98, -0.21 169.47 C61.26 197.95, 308.03 170.26, 369.82 170.48" stroke="#0d6efd" stroke-width="2.5" fill="none" stroke-dasharray="8 10"></path></g><g transform="translate(160 210) rotate(0 185 85)"><path d="M346.81 180.26 C352.84 176.88, 359.35 174.09, 369.82 170.48" stroke="#0d6efd" stroke-width="2.5" fill="none"></path></g><g transform="translate(160 210) rotate(0 185 85)"><path d="M345.91 163.18 C352.09 164.75, 358.86 166.92, 369.82 170.48" stroke="#0d6efd" stroke-width="2.5" fill="none"></path></g></g><mask></mask><g transform="translate(224.76610565185547 360) rotate(0 105.23389434814453 7.5)"><text x="105.23389434814453" y="10.740234375" font-family="Helvetica, Segoe UI Emoji" font-size="12px" fill="#333333" text-anchor="middle" style="white-space: pre;" direction="ltr" dominant-baseline="alphabetic">Parallel Sliver Request (Http GET)</text></g><g transform="translate(10 520) rotate(0 150 12)"><text x="0" y="17.900390625" font-family="Helvetica, Segoe UI Emoji" font-size="20px" fill="#333333" text-anchor="start" style="white-space: pre;" direction="ltr" dominant-baseline="alphabetic">Phase 3: Reconstruction</text></g><g stroke-linecap="round" transform="translate(10 560) rotate(0 200 75)"><path d="M32 0 C129.49 -0.62, 227.27 -0.18, 368 0 M368 0 C390.45 1.73, 400.84 10.5, 400 32 M400 32 C400.22 58.03, 399.21 81.58, 400 118 M400 118 C399.56 140.53, 388.88 151.78, 368 150 M368 150 C280.21 149.42, 194.34 149.75, 32 150 M32 150 C9.38 149.49, -1.13 140.26, 0 118 M0 118 C-0.49 86.47, 0.89 54.01, 0 32 M0 32 C1.63 9.45, 11.32 -1.24, 32 0" stroke="#6c757d" stroke-width="2.5" fill="none" stroke-dasharray="8 10"></path></g><g transform="translate(26 572) rotate(0 184 60)"><text x="0" y="14.3203125" font-family="Helvetica, Segoe UI Emoji" font-size="16px" fill="#333333" text-anchor="start" style="white-space: pre;" direction="ltr" dominant-baseline="alphabetic">Decoding &amp; Verification</text><text x="0" y="34.3203125" font-family="Helvetica, Segoe UI Emoji" font-size="16px" fill="#333333" text-anchor="start" style="white-space: pre;" direction="ltr" dominant-baseline="alphabetic">• Received 334+ slivers</text><text x="0" y="54.3203125" font-family="Helvetica, Segoe UI Emoji" font-size="16px" fill="#333333" text-anchor="start" style="white-space: pre;" direction="ltr" dominant-baseline="alphabetic">• Decode (Reed-Solomon)</text><text x="0" y="74.3203125" font-family="Helvetica, Segoe UI Emoji" font-size="16px" fill="#333333" text-anchor="start" style="white-space: pre;" direction="ltr" dominant-baseline="alphabetic">• Consistency Check (vs Metadata)</text><text x="0" y="94.3203125" font-family="Helvetica, Segoe UI Emoji" font-size="16px" fill="#333333" text-anchor="start" style="white-space: pre;" direction="ltr" dominant-baseline="alphabetic">• Reconstruct Original Blob</text></g><g stroke-linecap="round"><g transform="translate(600 460) rotate(0 -135 75)"><path d="M1.01 0.94 C0.87 25.85, 44.3 124.87, -0.92 149.71 C-46.13 174.55, -225.27 150.02, -270.29 150 M0.08 0.39 C0.32 25.46, 46.53 125.94, 1.31 151.09 C-43.9 176.24, -225.77 151.42, -271.21 151.31" stroke="#ffc107" stroke-width="2" fill="none"></path></g><g transform="translate(600 460) rotate(0 -135 75)"><path d="M-247.19 144.36 C-252.59 145.05, -261.62 148.12, -271.21 151.31 M-247.19 144.36 C-254.14 146.72, -262.06 149.26, -271.21 151.31" stroke="#ffc107" stroke-width="2" fill="none"></path></g><g transform="translate(600 460) rotate(0 -135 75)"><path d="M-248.35 161.43 C-253.44 157.15, -262.13 155.26, -271.21 151.31 M-248.35 161.43 C-254.8 158.67, -262.38 156.11, -271.21 151.31" stroke="#ffc107" stroke-width="2" fill="none"></path></g></g><mask></mask><g stroke-linecap="round" transform="translate(10 750) rotate(0 200 40)"><path d="M20 0 C109.59 1.32, 197.41 -2.71, 380 0 C394.22 1.98, 398.25 8.92, 400 20 C402.59 31.14, 401.23 43.19, 400 60 C397.66 70.69, 394.19 82.82, 380 80 C300.52 82.39, 221.09 78.61, 20 80 C8.35 81.61, 2.23 75.63, 0 60 C1.38 45.25, 1.98 38.36, 0 20 C0.67 7.31, 9.37 2.36, 20 0" stroke="none" stroke-width="0" fill="#cff4fc"></path><path d="M20 0 C124.83 0.81, 229.87 -0.93, 380 0 M20 0 C153.46 -0.16, 287.77 -0.36, 380 0 M380 0 C391.63 0.39, 399.81 4.68, 400 20 M380 0 C391.13 0.76, 397.77 7.01, 400 20 M400 20 C401.45 31.35, 401.8 45.25, 400 60 M400 20 C400.27 29.03, 400.14 35.46, 400 60 M400 60 C399.36 71.74, 393.74 78.31, 380 80 M400 60 C399.11 74.43, 394.59 78.71, 380 80 M380 80 C271.3 82.09, 164.9 81.23, 20 80 M380 80 C281.55 79.24, 182.84 79.61, 20 80 M20 80 C4.96 78.8, -1.67 74.35, 0 60 M20 80 C5.23 78.13, 1.82 75.23, 0 60 M0 60 C1.15 50.23, -1.63 39.65, 0 20 M0 60 C-0.8 45.48, 0.18 31.8, 0 20 M0 20 C-0.29 5.17, 7.23 -1.87, 20 0 M0 20 C-2.1 8.83, 6.25 0.43, 20 0" stroke="#0dcaf0" stroke-width="2" fill="none"></path></g><g transform="translate(146.06404876708984 762) rotate(0 63.935951232910156 22.5)"><text x="63.935951232910156" y="16.1103515625" font-family="Helvetica, Segoe UI Emoji" font-size="18px" fill="#333333" text-anchor="middle" style="white-space: pre;" direction="ltr" dominant-baseline="alphabetic">Success!</text><text x="63.935951232910156" y="38.6103515625" font-family="Helvetica, Segoe UI Emoji" font-size="18px" fill="#333333" text-anchor="middle" style="white-space: pre;" direction="ltr" dominant-baseline="alphabetic">"Hello, Walrus!"</text></g><g stroke-linecap="round"><g transform="translate(210 710) rotate(0 0 20)"><path d="M0.25 -0.51 C0.23 6.12, -0.18 33.39, -0.18 40.15 M-0.29 0.42 C-0.39 6.84, -0.76 32.55, -0.7 39.26" stroke="#0d6efd" stroke-width="2" fill="none"></path></g><g transform="translate(210 710) rotate(0 0 20)"><path d="M-7.46 20.44 C-6.36 25.57, -3.19 31.86, -0.7 39.26 M-7.46 20.44 C-5.42 25.9, -3.29 31.9, -0.7 39.26" stroke="#0d6efd" stroke-width="2" fill="none"></path></g><g transform="translate(210 710) rotate(0 0 20)"><path d="M6.22 20.5 C3.35 25.65, 2.54 31.92, -0.7 39.26 M6.22 20.5 C3.94 25.9, 1.76 31.88, -0.7 39.26" stroke="#0d6efd" stroke-width="2" fill="none"></path></g></g><mask></mask></svg>