<svg version="1.1" xmlns="http://www.w3.org/2000/svg" viewBox="0 0 1674.1225 835.32" width="3348.245" height="1670.64"><!-- svg-source:excalidraw --><metadata></metadata><defs><style class="style-fonts">
      </style></defs><rect x="0" y="0" width="1674.1225" height="835.32" fill="#f8f9fa"></rect><g stroke-linecap="round" transform="translate(10 255.0859375) rotate(0 152.8725 101.91500000000002)"><path d="M32 0 C117.84 2.19, 207.73 0.51, 273.75 0 C294.57 1.82, 307.97 9.53, 305.75 32 C307.2 76.61, 304.83 126.56, 305.75 171.83 C306.3 196.43, 298.29 203.68, 273.75 203.83 C197.47 201.39, 116.46 202.42, 32 203.83 C8.9 206.93, 2.62 196.59, 0 171.83 C1.13 133, 4.67 89.91, 0 32 C-1.11 10.98, 11.94 -0.81, 32 0" stroke="none" stroke-width="0" fill="#4a90e2"></path><path d="M32 0 C85.09 -1.3, 140.72 0.38, 273.75 0 M32 0 C106.09 1.25, 181.8 0.62, 273.75 0 M273.75 0 C294.59 0.71, 306.09 10.65, 305.75 32 M273.75 0 C294.11 0.67, 305.43 12.2, 305.75 32 M305.75 32 C304.97 61.46, 304.84 90.68, 305.75 171.83 M305.75 32 C305.84 87.62, 306.01 141.58, 305.75 171.83 M305.75 171.83 C305.15 192.76, 293.68 204.9, 273.75 203.83 M305.75 171.83 C304.27 191.52, 294.43 202.88, 273.75 203.83 M273.75 203.83 C208 204.17, 143.37 204.05, 32 203.83 M273.75 203.83 C198.82 202.43, 125.53 201.69, 32 203.83 M32 203.83 C10 204.62, 1.77 194.9, 0 171.83 M32 203.83 C10.11 206.1, 1.24 195.46, 0 171.83 M0 171.83 C-0.19 126.13, -0.67 83.01, 0 32 M0 171.83 C-1.19 119.43, -0.91 68.42, 0 32 M0 32 C0.21 10.85, 11.74 -1.79, 32 0 M0 32 C0.87 10.41, 12.3 -0.14, 32 0" stroke="#2c5aa0" stroke-width="2.0383" fill="none"></path></g><g transform="translate(64.93406250000001 291.34803124999996) rotate(0 101.915 25.47874999999999)"><text x="0" y="27.427874375000002" font-family="Helvetica, Segoe UI Emoji" font-size="26.09024px" fill="#ffffff" text-anchor="start" style="white-space: pre;" direction="ltr" dominant-baseline="alphabetic">Sui Blockchain</text></g><g transform="translate(64.93406250000001 342.30553125) rotate(0 101.915 25.47875000000002)"><text x="0" y="25.666655781250004" font-family="Helvetica, Segoe UI Emoji" font-size="19.567680000000003px" fill="#ffffff" text-anchor="start" style="white-space: pre;" direction="ltr" dominant-baseline="alphabetic">Shard Assignment</text></g><g transform="translate(64.93406250000001 383.07153125) rotate(0 98.29871368408202 20.38299999999998)"><text x="0" y="25.666655781250004" font-family="Helvetica, Segoe UI Emoji" font-size="19.567680000000003px" fill="#ffffff" text-anchor="start" style="white-space: pre;" direction="ltr" dominant-baseline="alphabetic">Events &amp; Metadata</text></g><g stroke-linecap="round" transform="translate(697.04375 10) rotate(0 203.83000000000004 407.66)"><path d="M32 0 C147.33 2, 262.62 1.69, 375.66 0 C397.54 -2.72, 405.29 9.63, 407.66 32 C409.93 188.6, 410.09 344.86, 407.66 783.32 C409.51 802.67, 394.73 815.43, 375.66 815.32 C283.75 817.36, 192.63 818.1, 32 815.32 C10.73 812.71, -2.14 801.13, 0 783.32 C5.82 541.88, 3.16 302.82, 0 32 C-1.98 14.21, 12.01 -0.16, 32 0" stroke="none" stroke-width="0" fill="#ffffff"></path><path d="M32 0 C130.76 -0.29, 231.39 -1.41, 375.66 0 M32 0 C127.27 2.91, 223.38 1.97, 375.66 0 M375.66 0 C395.46 1.12, 407.84 9.09, 407.66 32 M375.66 0 C396.56 -1.03, 407.69 10.41, 407.66 32 M407.66 32 C408.17 301.41, 408.51 572.41, 407.66 783.32 M407.66 32 C405.74 201.24, 405.83 371.37, 407.66 783.32 M407.66 783.32 C406.5 805.52, 397.81 816.11, 375.66 815.32 M407.66 783.32 C408.75 805.62, 397.21 816.78, 375.66 815.32 M375.66 815.32 C299.5 816.94, 224.31 815.55, 32 815.32 M375.66 815.32 C297.38 814.54, 219.15 814.37, 32 815.32 M32 815.32 C9.91 814.47, -1.49 804.78, 0 783.32 M32 815.32 C12.35 816.88, 0.96 803.07, 0 783.32 M0 783.32 C2.69 608.67, 3.06 434.85, 0 32 M0 783.32 C3.28 528.66, 3.26 274.29, 0 32 M0 32 C0.1 10.63, 8.91 -1.28, 32 0 M0 32 C-2.28 10.51, 8.46 -1.65, 32 0" stroke="#333333" stroke-width="3.0574500000000002" fill="none"></path></g><g transform="translate(795.28296875 27.73084374999999) rotate(0 101.91500000000002 25.478750000000005)"><text x="101.915" y="29.18909296875" font-family="Helvetica, Segoe UI Emoji" font-size="32.6128px" fill="#333333" text-anchor="middle" style="white-space: pre;" direction="ltr" dominant-baseline="alphabetic">Storage Node</text></g><g stroke-linecap="round" transform="translate(758.85271875 187.2901875) rotate(0 143.65039913047184 71.82519956523595)"><path d="M32 0 C88.28 2.34, 150.36 -0.09, 255.3 0 C277.08 2.8, 289.88 7.6, 287.3 32 C289.67 59.37, 283.85 78.81, 287.3 111.65 C285.4 135.65, 273.12 142.22, 255.3 143.65 C194.98 148.22, 131.79 143.69, 32 143.65 C7.27 143.78, 2.42 135.85, 0 111.65 C-0.04 88.7, -4.14 63.21, 0 32 C1.48 10.89, 9.06 -2.75, 32 0" stroke="none" stroke-width="0" fill="#e8f4f8"></path><path d="M32 0 C89.68 -3.18, 143.7 -0.78, 255.3 0 M32 0 C96.03 0.52, 158.43 1.43, 255.3 0 M255.3 0 C275.73 -0.71, 287.87 8.8, 287.3 32 M255.3 0 C278.32 1.43, 288.77 12.69, 287.3 32 M287.3 32 C287.19 58.64, 288.44 84.76, 287.3 111.65 M287.3 32 C287.02 48.41, 288.49 64.78, 287.3 111.65 M287.3 111.65 C286.53 131.5, 278.43 141.97, 255.3 143.65 M287.3 111.65 C285.9 134.55, 278.08 142.05, 255.3 143.65 M255.3 143.65 C169.35 143.5, 80.57 142.4, 32 143.65 M255.3 143.65 C188.46 141.79, 121.84 142.53, 32 143.65 M32 143.65 C12.37 142.36, 1.85 134.53, 0 111.65 M32 143.65 C8.48 145.61, -1.71 133.68, 0 111.65 M0 111.65 C0.02 84.66, -1.31 57.41, 0 32 M0 111.65 C-0.11 86.1, -0.76 61.45, 0 32 M0 32 C-0.4 11.36, 9.89 1.18, 32 0 M0 32 C-1.78 9.59, 10.37 -1.35, 32 0" stroke="#4a90e2" stroke-width="2.0383" fill="none"></path></g><g transform="translate(866.5905180978539 213.94245967376708) rotate(0 35.912599782617974 22.445374864136227)"><text x="35.91259978261797" y="24.162446041242656" font-family="Helvetica, Segoe UI Emoji" font-size="22.9840638608755px" fill="#333333" text-anchor="middle" style="white-space: pre;" direction="ltr" dominant-baseline="alphabetic">Shard 1</text></g><g transform="translate(844.2830138527255 260.2819508191826) rotate(0 65.2820886983638 17.956299891308987)"><text x="65.28208869836378" y="22.22302536938838" font-family="Helvetica, Segoe UI Emoji" font-size="15.801543904351904px" fill="#333333" text-anchor="middle" style="white-space: pre;" direction="ltr" dominant-baseline="alphabetic">Sliver A1, B1, C1...</text></g><g stroke-linecap="round" transform="translate(758.85271875 366.8531864130898) rotate(0 143.65039913047184 71.82519956523595)"><path d="M32 0 C95.26 -0.36, 154.88 1.39, 255.3 0 C279.62 2.98, 284.77 13.91, 287.3 32 C287.95 58.77, 283.52 89.46, 287.3 111.65 C290.64 136.31, 277.57 143.64, 255.3 143.65 C179.83 145.53, 96.38 145.53, 32 143.65 C11.43 140.95, 3.56 132.01, 0 111.65 C1.06 95.83, -3.9 76.63, 0 32 C-0.75 10.31, 7.16 2.79, 32 0" stroke="none" stroke-width="0" fill="#e8f4f8"></path><path d="M32 0 C119.76 0.82, 206.09 -1.5, 255.3 0 M32 0 C104.14 -0.13, 177.53 0.49, 255.3 0 M255.3 0 C278.29 -0.51, 286.43 9.71, 287.3 32 M255.3 0 C275.58 2.16, 288.17 11.72, 287.3 32 M287.3 32 C285.58 51.62, 288.81 70.69, 287.3 111.65 M287.3 32 C286.33 63.31, 286.52 95.69, 287.3 111.65 M287.3 111.65 C287.17 132.95, 276.46 142.83, 255.3 143.65 M287.3 111.65 C287 134.42, 277.33 143.18, 255.3 143.65 M255.3 143.65 C207.92 145.32, 159.38 145.5, 32 143.65 M255.3 143.65 C170.7 145.42, 84.35 145.72, 32 143.65 M32 143.65 C11.54 142.09, -1.84 134.79, 0 111.65 M32 143.65 C11.58 144.17, -2.24 135, 0 111.65 M0 111.65 C1.05 81.51, -1.29 51.53, 0 32 M0 111.65 C-0.23 85.48, -0.64 57.55, 0 32 M0 32 C0.19 12.17, 8.95 1.15, 32 0 M0 32 C-1.66 12.75, 11.85 -1.91, 32 0" stroke="#4a90e2" stroke-width="2.0383" fill="none"></path></g><g transform="translate(856.7652668284063 393.5054585868568) rotate(0 45.737851052065594 17.95629989130896)"><text x="45.737851052065565" y="24.162446041242656" font-family="Helvetica, Segoe UI Emoji" font-size="22.984063860875505px" fill="#333333" text-anchor="middle" style="white-space: pre;" direction="ltr" dominant-baseline="alphabetic">Shard 2</text></g><g transform="translate(806.1356743535042 443.8849079834033) rotate(0 107.73779934785392 22.445374864136227)"><text x="107.73779934785391" y="22.22302536938838" font-family="Helvetica, Segoe UI Emoji" font-size="15.801543904351906px" fill="#333333" text-anchor="middle" style="white-space: pre;" direction="ltr" dominant-baseline="alphabetic">Sliver A2, B2, C2...</text></g><g stroke-linecap="round" transform="translate(758.85271875 546.4161853261797) rotate(0 143.65039913047184 71.82519956523595)"><path d="M32 0 C85.21 -2.85, 143.29 -1.39, 255.3 0 C276.18 2.15, 283.94 7.23, 287.3 32 C289.85 59.71, 285.86 85.26, 287.3 111.65 C285.53 129.57, 279.48 141.19, 255.3 143.65 C207.44 142.2, 160.25 140.49, 32 143.65 C11.07 141, 0.79 135.25, 0 111.65 C-0.39 82.98, 2.58 57.37, 0 32 C2.97 7.53, 7.78 -1.86, 32 0" stroke="none" stroke-width="0" fill="#e8f4f8"></path><path d="M32 0 C83.32 -1.13, 135.73 -1.5, 255.3 0 M32 0 C94.66 1.66, 154.99 0.55, 255.3 0 M255.3 0 C275.1 -0.81, 288.06 9.73, 287.3 32 M255.3 0 C277.3 -1.15, 288.96 10.02, 287.3 32 M287.3 32 C288.19 53.94, 287.59 72.64, 287.3 111.65 M287.3 32 C286.84 55.3, 287.85 79.51, 287.3 111.65 M287.3 111.65 C288.13 133.81, 277.31 144.61, 255.3 143.65 M287.3 111.65 C285.53 130.82, 274.83 141.75, 255.3 143.65 M255.3 143.65 C210.33 145.32, 165.15 144.15, 32 143.65 M255.3 143.65 C182.61 144.9, 108.11 143.51, 32 143.65 M32 143.65 C9.25 142.48, -1.57 134.69, 0 111.65 M32 143.65 C9.83 144.43, 1.19 132.38, 0 111.65 M0 111.65 C1.43 89.44, 0.74 65.01, 0 32 M0 111.65 C-0.38 88.76, 0.28 65.47, 0 32 M0 32 C1.44 10.18, 11.18 0.39, 32 0 M0 32 C0.72 12.11, 8.71 1.82, 32 0" stroke="#4a90e2" stroke-width="2.0383" fill="none"></path></g><g transform="translate(857.5467196371477 573.3506351631432) rotate(0 44.9563982433242 17.956299891309015)"><text x="44.956398243324195" y="24.162446041242656" font-family="Helvetica, Segoe UI Emoji" font-size="22.9840638608755px" fill="#333333" text-anchor="middle" style="white-space: pre;" direction="ltr" dominant-baseline="alphabetic">Shard N</text></g><g transform="translate(802.4914530690514 626.1802125620791) rotate(0 107.73779934785387 22.445374864136227)"><text x="107.73779934785391" y="22.22302536938838" font-family="Helvetica, Segoe UI Emoji" font-size="15.801543904351906px" fill="#333333" text-anchor="middle" style="white-space: pre;" direction="ltr" dominant-baseline="alphabetic">Sliver An, Bn, Cn...</text></g><g stroke-linecap="round" transform="translate(758.85271875 725.697006576073) rotate(0 143.65039913047184 26.934449836963495)"><path d="M13.47 0 C95.47 -2.37, 179.77 0.39, 273.83 0 C285.46 0.34, 289.85 5.11, 287.3 13.47 C283.56 16.61, 285.16 28.28, 287.3 40.4 C286.74 47.31, 281.38 54.8, 273.83 53.87 C206.47 56.64, 140.32 54.57, 13.47 53.87 C3.65 56.18, -3.33 51.65, 0 40.4 C0.57 32.63, 2.15 27.27, 0 13.47 C-2.79 1.42, 6.3 3, 13.47 0" stroke="none" stroke-width="0" fill="#fff3cd"></path><path d="M13.47 0 C106.43 0.46, 200.76 -0.28, 273.83 0 M13.47 0 C113.38 -2.4, 214.03 -1.56, 273.83 0 M273.83 0 C281.86 -1.03, 286.13 5, 287.3 13.47 M273.83 0 C284.31 -0.96, 288.18 5.76, 287.3 13.47 M287.3 13.47 C288.86 17.37, 288.06 22.44, 287.3 40.4 M287.3 13.47 C288.16 21.4, 287.09 31.35, 287.3 40.4 M287.3 40.4 C288.2 49.34, 282.12 53.31, 273.83 53.87 M287.3 40.4 C287.97 49.38, 284.21 54.6, 273.83 53.87 M273.83 53.87 C217.18 53.52, 162.83 53.61, 13.47 53.87 M273.83 53.87 C184.7 53.93, 93.77 54.52, 13.47 53.87 M13.47 53.87 C3.02 52.77, -0.13 48.1, 0 40.4 M13.47 53.87 C2.56 52.19, -1.65 49.55, 0 40.4 M0 40.4 C-1.84 31.7, -1.68 23.19, 0 13.47 M0 40.4 C0.77 32.24, 0.14 25.05, 0 13.47 M0 13.47 C-1.2 6.32, 4.56 -1.28, 13.47 0 M0 13.47 C0.88 3.85, 4.19 -1.57, 13.47 0" stroke="#ffc107" stroke-width="2.0383" fill="none"></path></g><g transform="translate(830.7923554450379 734.9883874926397) rotate(0 76.44650198018724 17.95629989130896)"><text x="76.44650198018722" y="22.61090950375924" font-family="Helvetica, Segoe UI Emoji" font-size="17.238047895656628px" fill="#333333" text-anchor="middle" style="white-space: pre;" direction="ltr" dominant-baseline="alphabetic">Certificate Signing</text></g><g stroke-linecap="round" transform="translate(1382.7759375 277.66015625) rotate(0 140.67328124999995 121.80851562500004)"><path d="M32 0 C80.22 -4.7, 135.1 -4.44, 249.35 0 C272.06 -2.2, 278.94 8.69, 281.35 32 C277.94 105.7, 277.77 172.13, 281.35 211.62 C278.45 233.55, 273.46 243.92, 249.35 243.62 C161 243.29, 77.29 241.57, 32 243.62 C7.71 245.83, -2.92 236.33, 0 211.62 C0.91 164.21, 2.6 120.73, 0 32 C1.18 9.9, 11.08 -2.73, 32 0" stroke="none" stroke-width="0" fill="#d4edda"></path><path d="M32 0 C96.13 -1.43, 158.58 -2.63, 249.35 0 M32 0 C82.44 -1, 133.84 -0.65, 249.35 0 M249.35 0 C271.54 -1.95, 282.54 10.37, 281.35 32 M249.35 0 C270.36 -0.88, 282.31 12.96, 281.35 32 M281.35 32 C280.33 91.23, 283.69 154.85, 281.35 211.62 M281.35 32 C281.26 94.41, 281.94 155.34, 281.35 211.62 M281.35 211.62 C282.14 233.13, 269.09 242.56, 249.35 243.62 M281.35 211.62 C282.25 232.1, 271.76 245.5, 249.35 243.62 M249.35 243.62 C181.53 245.48, 115.1 244.2, 32 243.62 M249.35 243.62 C177.67 241.52, 107.32 242.95, 32 243.62 M32 243.62 C12.59 241.88, 1.16 233.83, 0 211.62 M32 243.62 C12.88 243.37, -0.75 234.23, 0 211.62 M0 211.62 C-3.05 145.47, -0.85 77.43, 0 32 M0 211.62 C-0.73 168.12, -0.59 124.87, 0 32 M0 32 C0.63 9.26, 11.21 -1.17, 32 0 M0 32 C1.7 11.4, 8.56 -1.98, 32 0" stroke="#28a745" stroke-width="2.0383" fill="none"></path></g><g transform="translate(1452.3146133422852 346.47693749999996) rotate(0 76.90023040771484 32.61279999999999)"><text x="76.90023040771484" y="23.351274375" font-family="Helvetica, Segoe UI Emoji" font-size="26.09024px" fill="#333333" text-anchor="middle" style="white-space: pre;" direction="ltr" dominant-baseline="alphabetic">Clients /</text><text x="76.90023040771484" y="55.964074374999996" font-family="Helvetica, Segoe UI Emoji" font-size="26.09024px" fill="#333333" text-anchor="middle" style="white-space: pre;" direction="ltr" dominant-baseline="alphabetic">Aggregators</text></g><g stroke-linecap="round"><g transform="translate(328.2058484120484 349.791610510456) rotate(0 184.06762038363294 -0.1973357286277917)"><path d="M-0.47 0.74 C60.84 0.72, 305.56 -0.1, 367.13 -0.36 M1.49 0.09 C63.21 0.29, 308.12 1.16, 369.31 1.2" stroke="#4a90e2" stroke-width="2.0383" fill="none"></path></g><g transform="translate(328.2058484120484 349.791610510456) rotate(0 184.06762038363294 -0.1973357286277917)"><path d="M345.8 9.69 C352.73 6.05, 357.23 7.01, 369.31 1.2 M345.8 9.69 C353.02 7.35, 358.51 4.88, 369.31 1.2" stroke="#4a90e2" stroke-width="2.0383" fill="none"></path></g><g transform="translate(328.2058484120484 349.791610510456) rotate(0 184.06762038363294 -0.1973357286277917)"><path d="M345.83 -7.41 C352.73 -6.92, 357.22 -1.83, 369.31 1.2 M345.83 -7.41 C352.97 -5.22, 358.44 -3.15, 369.31 1.2" stroke="#4a90e2" stroke-width="2.0383" fill="none"></path></g></g><mask></mask><g transform="translate(355.91724999999997 307.6194375) rotate(0 154.58255004882812 40.76600000000002)"><text x="0" y="25.666655781250004" font-family="Helvetica, Segoe UI Emoji" font-size="19.567680000000003px" fill="#666666" text-anchor="start" style="white-space: pre;" direction="ltr" dominant-baseline="alphabetic">Shard Assignment/storage epoch</text><text x="0" y="66.43265578125" font-family="Helvetica, Segoe UI Emoji" font-size="19.567680000000003px" fill="#666666" text-anchor="start" style="white-space: pre;" direction="ltr" dominant-baseline="alphabetic">(2 weeks on Mainnet)</text></g><g transform="translate(753.9360504150391 80.35546875) rotate(0 148.52879333496094 40.76600000000002)"><text x="148.52879333496094" y="25.666655781250004" font-family="Helvetica, Segoe UI Emoji" font-size="19.567680000000003px" fill="#666666" text-anchor="middle" style="white-space: pre;" direction="ltr" dominant-baseline="alphabetic">Assumes &gt;2/3 shards correct </text><text x="148.52879333496094" y="66.43265578125" font-family="Helvetica, Segoe UI Emoji" font-size="19.567680000000003px" fill="#666666" text-anchor="middle" style="white-space: pre;" direction="ltr" dominant-baseline="alphabetic">(≤1/3 Byzantine)</text></g><g stroke-linecap="round"><g transform="translate(1109.5776196760062 456.1778439515772) rotate(0 135.99247791851872 1.0957017400376685)"><path d="M0.07 -0.69 C45.65 -0.34, 227.56 2.42, 272.76 2.95 M-1.35 1.56 C44.2 1.5, 226.37 0.83, 272.22 1.22" stroke="#28a745" stroke-width="2.0383" fill="none"></path></g><g transform="translate(1109.5776196760062 456.1778439515772) rotate(0 135.99247791851872 1.0957017400376685)"><path d="M248.71 9.74 C253.17 8.96, 261.26 4.41, 272.22 1.22 M248.71 9.74 C256.22 6.75, 264.25 4.91, 272.22 1.22" stroke="#28a745" stroke-width="2.0383" fill="none"></path></g><g transform="translate(1109.5776196760062 456.1778439515772) rotate(0 135.99247791851872 1.0957017400376685)"><path d="M248.74 -7.36 C253.31 -4.01, 261.39 -4.44, 272.22 1.22 M248.74 -7.36 C256.26 -4.83, 264.27 -1.15, 272.22 1.22" stroke="#28a745" stroke-width="2.0383" fill="none"></path></g></g><mask></mask><g stroke-linecap="round"><g transform="translate(1372.7184670778931 345.0924250342315) rotate(0 -133.37065301667144 0.7915660912555609)"><path d="M0.18 0.19 C-44.45 0.19, -222.49 0.5, -267.13 0.67" stroke="#0d6efd" stroke-width="2.5383" fill="none" stroke-dasharray="8 10.0383"></path></g><g transform="translate(1372.7184670778931 345.0924250342315) rotate(0 -133.37065301667144 0.7915660912555609)"><path d="M-243.66 -7.94 C-251.63 -5.5, -261.8 -3.32, -267.13 0.67" stroke="#0d6efd" stroke-width="2.5383" fill="none"></path></g><g transform="translate(1372.7184670778931 345.0924250342315) rotate(0 -133.37065301667144 0.7915660912555609)"><path d="M-243.61 9.16 C-251.69 5.53, -261.88 1.64, -267.13 0.67" stroke="#0d6efd" stroke-width="2.5383" fill="none"></path></g></g><mask></mask><g transform="translate(1123.8838125 398.90756250000004) rotate(0 125.26214599609375 20.38299999999998)"><text x="0" y="25.666655781250004" font-family="Helvetica, Segoe UI Emoji" font-size="19.567680000000003px" fill="#666666" text-anchor="start" style="white-space: pre;" direction="ltr" dominant-baseline="alphabetic">Serve Slivers (on request)</text></g><g transform="translate(1165.7946484375 306.9100000000001) rotate(0 75.00994110107422 12.5)"><text x="0" y="17.900390625" font-family="Helvetica, Segoe UI Emoji" font-size="20px" fill="#1e1e1e" text-anchor="start" style="white-space: pre;" direction="ltr" dominant-baseline="alphabetic">Request Slivers</text></g></svg>