<svg version="1.1" xmlns="http://www.w3.org/2000/svg" viewBox="0 0 918.5098039215686 888.45703125" width="1837.0196078431372" height="1776.9140625"><!-- svg-source:excalidraw --><metadata></metadata><defs><style class="style-fonts">
      </style></defs><rect x="0" y="0" width="918.5098039215686" height="888.45703125" fill="#ffffff"></rect><g stroke-linecap="round" transform="translate(10 239.2774203431373) rotate(0 98.27450980392157 56.15686274509804)"><path d="M86.05 -0.29 C98.49 -2.1, 112.75 0.48, 125.52 2.77 C138.3 5.06, 152.64 8.53, 162.71 13.44 C172.78 18.35, 180.16 25.53, 185.92 32.24 C191.69 38.96, 196.7 46.01, 197.27 53.71 C197.84 61.41, 194.47 71.34, 189.33 78.43 C184.2 85.52, 176.27 91.24, 166.46 96.26 C156.65 101.29, 143.05 106.07, 130.48 108.58 C117.9 111.09, 104.03 111.93, 91.02 111.33 C78.01 110.73, 64 108.35, 52.41 104.98 C40.82 101.62, 29.83 96.99, 21.46 91.14 C13.1 85.28, 5.47 77.41, 2.24 69.84 C-0.98 62.26, -0.37 53.2, 2.12 45.68 C4.61 38.16, 9.68 30.95, 17.2 24.71 C24.73 18.46, 35.55 12.43, 47.28 8.23 C59.01 4.03, 80.12 0.57, 87.58 -0.49 C95.03 -1.54, 91.78 0.91, 91.99 1.91 M77.87 2.62 C90.23 0.36, 106.28 -0.43, 119.19 0.86 C132.11 2.15, 144.92 6.07, 155.38 10.38 C165.84 14.69, 175.32 20.3, 181.95 26.74 C188.58 33.18, 193.71 41.1, 195.16 49.02 C196.61 56.95, 194.5 66.84, 190.67 74.29 C186.83 81.73, 180.59 88.05, 172.16 93.69 C163.73 99.34, 152.22 105.04, 140.06 108.15 C127.9 111.27, 112.77 112.53, 99.21 112.38 C85.65 112.24, 70.73 110.59, 58.67 107.27 C46.61 103.96, 35.78 98.32, 26.85 92.48 C17.92 86.65, 9.4 79.26, 5.08 72.26 C0.75 65.26, -0.46 58.03, 0.92 50.49 C2.3 42.95, 6.69 33.7, 13.37 27.03 C20.05 20.36, 30.37 14.57, 41 10.47 C51.62 6.37, 70.88 3.73, 77.13 2.45 C83.38 1.16, 78.32 1.79, 78.5 2.74" stroke="none" stroke-width="0" fill="#e7f5ff"></path><path d="M121.45 0.76 C134.06 1.59, 147.68 7.21, 158.12 11.98 C168.56 16.76, 177.67 22.83, 184.1 29.4 C190.54 35.97, 195.57 43.7, 196.72 51.4 C197.87 59.11, 195.45 68.34, 191 75.62 C186.55 82.91, 179.24 89.79, 170.01 95.12 C160.78 100.44, 147.99 104.85, 135.64 107.57 C123.29 110.3, 109.36 111.57, 95.93 111.46 C82.49 111.36, 67.02 110.26, 55.03 106.94 C43.04 103.62, 32.4 97.28, 23.97 91.52 C15.54 85.77, 8.14 79.74, 4.45 72.43 C0.75 65.13, -0.03 55.43, 1.81 47.71 C3.64 39.99, 8.63 32.41, 15.45 26.12 C22.27 19.84, 31.92 14.18, 42.73 10.02 C53.54 5.87, 65.39 2.21, 80.29 1.18 C95.2 0.16, 121.89 2.95, 132.17 3.86 C142.44 4.76, 142.38 5.72, 141.94 6.62 M116.98 1.66 C129.89 2.15, 142.44 6.5, 153.2 10.42 C163.96 14.35, 174.58 18.65, 181.55 25.21 C188.53 31.78, 193.25 41.87, 195.06 49.81 C196.87 57.75, 196.06 65.75, 192.4 72.86 C188.74 79.97, 181.87 86.89, 173.1 92.49 C164.33 98.09, 151.75 103.09, 139.8 106.45 C127.85 109.82, 114.3 112.39, 101.42 112.68 C88.53 112.97, 74.6 111.1, 62.51 108.18 C50.42 105.26, 38.35 100.47, 28.88 95.17 C19.41 89.86, 10.46 83.63, 5.68 76.37 C0.89 69.11, -0.79 59.23, 0.16 51.61 C1.1 43.99, 5.27 37.35, 11.37 30.66 C17.46 23.97, 26.18 16.26, 36.75 11.5 C47.32 6.73, 61.81 3.7, 74.79 2.09 C87.76 0.48, 107.71 2.01, 114.59 1.83 C121.47 1.64, 116.15 -0.05, 116.07 0.97" stroke="#1e1e1e" stroke-width="2" fill="none"></path></g><g transform="translate(38.07843137254903 274.37545955882354) rotate(0 70.19607843137256 21.058823529411768)"><text x="70.19607843137256" y="28.64054840686275" font-family="Helvetica, Segoe UI Emoji" font-size="28.078431372549026px" fill="#1e1e1e" text-anchor="middle" style="white-space: pre;" direction="ltr" dominant-baseline="alphabetic">Uploaded</text></g><g stroke-linecap="round" transform="translate(360.9803921568627 239.2774203431373) rotate(0 98.27450980392157 56.15686274509804)"><path d="M60.56 4.13 C71.58 0.54, 85.53 -0.67, 98.81 -0.43 C112.1 -0.19, 128.11 2.4, 140.24 5.57 C152.37 8.73, 162.89 12.95, 171.59 18.57 C180.3 24.19, 188.36 31.77, 192.46 39.31 C196.57 46.84, 197.72 56.09, 196.21 63.79 C194.7 71.49, 190.47 79.02, 183.43 85.51 C176.39 92, 164.97 98.52, 153.99 102.73 C143.01 106.94, 130.44 109.38, 117.53 110.76 C104.62 112.14, 89.43 112.66, 76.53 111.03 C63.64 109.39, 50.76 105.7, 40.14 100.96 C29.51 96.23, 19.46 89.12, 12.78 82.6 C6.1 76.08, 1.22 69.18, 0.03 61.84 C-1.16 54.5, 1.3 45.95, 5.67 38.56 C10.04 31.17, 16.18 23.49, 26.24 17.51 C36.3 11.53, 58 5.13, 66.03 2.7 C74.06 0.26, 73.76 1.78, 74.42 2.87 M134.11 4.58 C146.41 6.16, 157.82 10.1, 166.94 15.18 C176.06 20.25, 184.01 27.82, 188.82 35.01 C193.63 42.19, 196.14 50.57, 195.8 58.27 C195.46 65.97, 192.74 74.31, 186.79 81.19 C180.84 88.07, 170.73 94.63, 160.12 99.55 C149.52 104.47, 135.7 108.8, 123.17 110.72 C110.64 112.64, 97.65 112.25, 84.94 111.09 C72.24 109.92, 58.38 107.85, 46.92 103.72 C35.46 99.58, 23.65 92.87, 16.21 86.27 C8.77 79.66, 4.4 71.7, 2.29 64.09 C0.17 56.48, 0.14 47.79, 3.53 40.61 C6.93 33.44, 14.23 26.89, 22.67 21.04 C31.12 15.19, 42.67 9.22, 54.2 5.53 C65.73 1.84, 78.9 -0.86, 91.84 -1.11 C104.79 -1.35, 125.34 2.93, 131.88 4.06 C138.42 5.2, 131.63 4.73, 131.06 5.72" stroke="none" stroke-width="0" fill="#d4edda"></path><path d="M70.55 1.55 C82.53 -1.11, 99.7 0.09, 112.97 1.15 C126.24 2.21, 139.14 3.95, 150.17 7.91 C161.2 11.87, 171.54 18.59, 179.16 24.91 C186.78 31.23, 193.41 38.31, 195.89 45.84 C198.36 53.38, 197.28 62.58, 194.02 70.12 C190.76 77.66, 184.57 85.22, 176.32 91.09 C168.06 96.95, 156.28 101.69, 144.48 105.32 C132.68 108.95, 118.82 112.38, 105.53 112.87 C92.25 113.36, 77.44 111.02, 64.77 108.26 C52.1 105.5, 39 101.59, 29.5 96.31 C20 91.04, 12.65 83.54, 7.76 76.62 C2.87 69.7, -0.07 62.15, 0.15 54.77 C0.37 47.4, 3.2 39.18, 9.09 32.37 C14.98 25.57, 24.48 18.98, 35.5 13.95 C46.52 8.93, 67.85 4.25, 75.21 2.24 C82.57 0.23, 79.2 1.23, 79.66 1.89 M55.08 5.5 C65.72 1.14, 79.62 -0.18, 92.61 -0.6 C105.6 -1.03, 120.28 -0.09, 133.02 2.93 C145.77 5.96, 159.73 11.98, 169.08 17.56 C178.43 23.15, 184.72 29.42, 189.1 36.43 C193.48 43.43, 196.1 52.16, 195.35 59.59 C194.6 67.02, 190.54 74.09, 184.61 80.98 C178.68 87.88, 169.8 96.08, 159.76 100.97 C149.71 105.87, 136.93 108.55, 124.33 110.36 C111.73 112.17, 97.52 112.95, 84.16 111.81 C70.81 110.68, 55.62 107.48, 44.19 103.53 C32.76 99.59, 22.86 94.59, 15.59 88.14 C8.33 81.68, 2.7 72.73, 0.58 64.8 C-1.53 56.87, -0.72 47.69, 2.9 40.58 C6.52 33.48, 13.78 27.93, 22.28 22.17 C30.78 16.4, 48.58 8.51, 53.91 6 C59.24 3.49, 53.43 6, 54.29 7.11" stroke="#1e1e1e" stroke-width="2" fill="none"></path></g><g transform="translate(389.05882352941177 274.37545955882354) rotate(0 70.19607843137257 21.058823529411768)"><text x="70.19607843137256" y="28.64054840686275" font-family="Helvetica, Segoe UI Emoji" font-size="28.078431372549026px" fill="#1e1e1e" text-anchor="middle" style="white-space: pre;" direction="ltr" dominant-baseline="alphabetic">Available</text></g><g stroke-linecap="round" transform="translate(711.9607843137254 239.2774203431373) rotate(0 98.2745098039216 56.15686274509804)"><path d="M130.66 2.95 C143.31 4.53, 155.7 10.21, 165.43 15.48 C175.16 20.74, 183.92 27.6, 189.04 34.55 C194.15 41.49, 196.4 49.58, 196.13 57.12 C195.86 64.67, 192.81 72.8, 187.42 79.82 C182.02 86.84, 173.87 94.33, 163.78 99.26 C153.68 104.19, 139.78 107.32, 126.83 109.39 C113.87 111.47, 99.09 112.57, 86.03 111.73 C72.97 110.88, 59.9 108.02, 48.49 104.32 C37.07 100.61, 25.21 95.83, 17.55 89.49 C9.89 83.15, 5.18 73.93, 2.51 66.28 C-0.15 58.64, -1.37 50.94, 1.57 43.62 C4.51 36.29, 11.95 28.24, 20.16 22.32 C28.36 16.39, 39.42 11.88, 50.81 8.07 C62.21 4.26, 73.36 -0.21, 88.55 -0.55 C103.73 -0.9, 131.19 4.27, 141.94 6.02 C152.68 7.78, 153.86 9.14, 153.01 10 M90.74 0.83 C102.79 -0.46, 117.61 2.49, 130.5 4.81 C143.38 7.14, 158.25 9.66, 168.05 14.78 C177.85 19.9, 184.75 28.15, 189.32 35.53 C193.89 42.91, 195.93 51.67, 195.47 59.06 C195.01 66.44, 192.26 73.05, 186.55 79.86 C180.85 86.67, 171.25 94.71, 161.22 99.92 C151.2 105.13, 139.27 109.1, 126.41 111.13 C113.55 113.17, 97.45 113.59, 84.05 112.12 C70.65 110.66, 57.14 106.63, 46.02 102.34 C34.91 98.04, 24.67 92.68, 17.36 86.37 C10.05 80.05, 4.69 71.8, 2.14 64.46 C-0.41 57.13, -0.92 49.54, 2.05 42.33 C5.02 35.12, 11.4 27.02, 19.95 21.23 C28.5 15.43, 41.68 11.09, 53.36 7.55 C65.04 4.01, 83.59 1.21, 90.02 -0.03 C96.45 -1.28, 91.64 -1.03, 91.95 0.09" stroke="none" stroke-width="0" fill="#fff3cd"></path><path d="M118.87 0.85 C131.7 1.5, 144.96 6.91, 155.69 11.56 C166.42 16.2, 176.49 22.18, 183.22 28.71 C189.96 35.25, 194.79 43.33, 196.12 50.79 C197.45 58.25, 195.27 66.26, 191.2 73.46 C187.13 80.66, 180.56 88.48, 171.68 93.97 C162.79 99.47, 150.08 103.42, 137.88 106.45 C125.68 109.49, 111.73 112.15, 98.49 112.19 C85.24 112.23, 70.59 109.81, 58.41 106.7 C46.22 103.6, 34.17 99.2, 25.39 93.55 C16.6 87.9, 9.77 80.02, 5.7 72.83 C1.63 65.65, -0.15 57.89, 0.97 50.44 C2.09 42.99, 5.82 34.79, 12.42 28.13 C19.02 21.46, 29.89 15.01, 40.57 10.45 C51.24 5.89, 62.58 2.32, 76.45 0.77 C90.31 -0.78, 115.12 0.55, 123.75 1.13 C132.38 1.71, 128.63 3.2, 128.23 4.24 M87.99 1.35 C100.3 -0.05, 114.09 1.33, 126.47 3.36 C138.84 5.4, 152.03 8.55, 162.23 13.56 C172.44 18.58, 181.73 26.54, 187.69 33.45 C193.66 40.36, 197.67 47.42, 198.03 55.03 C198.38 62.63, 195.52 72.23, 189.85 79.1 C184.18 85.97, 174.1 91.39, 164.02 96.26 C153.94 101.12, 141.79 105.65, 129.35 108.28 C116.92 110.91, 102.39 112.49, 89.41 112.03 C76.42 111.57, 63.23 109.3, 51.43 105.51 C39.64 101.72, 26.88 95.37, 18.64 89.27 C10.39 83.18, 4.96 76.48, 1.99 68.93 C-0.98 61.39, -1.9 51.33, 0.8 44.02 C3.5 36.7, 10.24 31.19, 18.2 25.05 C26.16 18.91, 36.93 11.47, 48.57 7.16 C60.21 2.85, 81.91 -0.04, 88.05 -0.82 C94.19 -1.6, 85.7 1.09, 85.42 2.47" stroke="#1e1e1e" stroke-width="2" fill="none"></path></g><g transform="translate(740.0392156862745 274.37545955882354) rotate(0 70.19607843137254 21.058823529411768)"><text x="70.19607843137256" y="28.64054840686275" font-family="Helvetica, Segoe UI Emoji" font-size="28.078431372549026px" fill="#1e1e1e" text-anchor="middle" style="white-space: pre;" direction="ltr" dominant-baseline="alphabetic">Expired</text></g><g stroke-linecap="round" transform="translate(360.9803921568627 449.8656556372549) rotate(0 98.27450980392157 56.15686274509804)"><path d="M104.69 0.49 C117.46 0.13, 131.43 2.31, 143.19 5.87 C154.94 9.44, 166.89 16, 175.21 21.86 C183.53 27.73, 189.87 33.73, 193.11 41.06 C196.35 48.39, 196.61 58.07, 194.65 65.87 C192.68 73.66, 188.56 81.46, 181.33 87.83 C174.1 94.19, 162.74 99.93, 151.27 104.05 C139.8 108.17, 125.57 111.48, 112.52 112.56 C99.46 113.64, 85.55 112.76, 72.96 110.54 C60.36 108.32, 47.3 104.05, 36.97 99.26 C26.64 94.47, 17.12 88.44, 10.98 81.79 C4.85 75.14, 0.93 66.9, 0.17 59.37 C-0.58 51.84, 1.49 43.92, 6.46 36.61 C11.43 29.3, 20.38 20.86, 30 15.52 C39.62 10.17, 50.94 6.97, 64.17 4.54 C77.4 2.11, 100.92 1.27, 109.37 0.94 C117.82 0.6, 115.11 1.77, 114.9 2.53 M51.59 7.17 C62.15 3.27, 77.6 1.85, 90.99 0.96 C104.39 0.07, 119.4 -0.77, 131.97 1.83 C144.54 4.44, 156.83 11.29, 166.41 16.58 C175.99 21.87, 184.34 26.54, 189.45 33.56 C194.55 40.59, 197.32 50.76, 197.06 58.73 C196.8 66.7, 193.57 74.75, 187.89 81.37 C182.21 87.99, 173.2 93.59, 162.99 98.45 C152.79 103.31, 139.62 108.11, 126.65 110.5 C113.69 112.9, 98.48 114.08, 85.23 112.82 C71.97 111.57, 58.3 107.36, 47.12 102.99 C35.95 98.61, 25.77 92.71, 18.19 86.56 C10.61 80.41, 4.21 73.3, 1.62 66.07 C-0.97 58.84, -0.44 50.48, 2.66 43.16 C5.75 35.84, 11.9 28.34, 20.19 22.15 C28.48 15.95, 47.25 8.43, 52.39 5.96 C57.53 3.5, 50.39 6.27, 51.03 7.36" stroke="none" stroke-width="0" fill="#cfe2ff"></path><path d="M68.04 2.68 C79.34 -0.48, 94.54 -1.19, 107.86 -0.31 C121.19 0.57, 136.49 4.12, 147.99 7.95 C159.49 11.78, 169.14 16.71, 176.86 22.65 C184.57 28.59, 191.4 35.97, 194.27 43.61 C197.14 51.25, 196.88 60.9, 194.08 68.49 C191.27 76.08, 185.35 83.05, 177.43 89.15 C169.52 95.24, 157.97 101.3, 146.6 105.04 C135.23 108.79, 122.46 110.88, 109.22 111.61 C95.99 112.34, 80.02 111.67, 67.19 109.43 C54.37 107.18, 42.04 103.2, 32.29 98.16 C22.55 93.12, 13.96 86.06, 8.72 79.21 C3.49 72.36, 0.93 64.68, 0.87 57.06 C0.8 49.44, 3.06 40.57, 8.32 33.47 C13.59 26.37, 22.11 19.7, 32.45 14.47 C42.79 9.24, 63.7 3.82, 70.37 2.08 C77.03 0.33, 72.01 2.91, 72.45 3.99 M122.34 1.04 C134.79 1.82, 146.57 6.2, 156.76 10.92 C166.96 15.64, 177.06 22.5, 183.5 29.39 C189.93 36.27, 193.96 44.85, 195.36 52.24 C196.76 59.63, 196.07 66.45, 191.88 73.73 C187.7 81, 179.7 89.94, 170.26 95.9 C160.82 101.86, 147.76 106.78, 135.23 109.47 C122.69 112.16, 108.33 112.51, 95.05 112.07 C81.77 111.63, 67.31 109.98, 55.57 106.83 C43.82 103.68, 33.39 99.18, 24.58 93.19 C15.78 87.19, 6.81 78.37, 2.74 70.88 C-1.33 63.38, -1.54 55.42, 0.15 48.2 C1.84 40.98, 5.66 33.85, 12.86 27.57 C20.06 21.28, 32 14.9, 43.36 10.49 C54.73 6.07, 68.17 2.46, 81.04 1.08 C93.92 -0.3, 113.97 2.13, 120.62 2.21 C127.27 2.29, 121.4 0.51, 120.96 1.55" stroke="#1e1e1e" stroke-width="2" fill="none"></path></g><g transform="translate(389.05882352941177 484.9636948529412) rotate(0 70.19607843137257 21.058823529411768)"><text x="70.19607843137256" y="28.64054840686275" font-family="Helvetica, Segoe UI Emoji" font-size="28.078431372549026px" fill="#1e1e1e" text-anchor="middle" style="white-space: pre;" direction="ltr" dominant-baseline="alphabetic">Shared</text></g><g stroke-linecap="round" transform="translate(10 449.8656556372549) rotate(0 98.27450980392157 56.15686274509804)"><path d="M78.33 2.08 C90.3 -0.17, 104.78 0.61, 117.7 1.88 C130.62 3.16, 144.93 5.37, 155.85 9.73 C166.77 14.09, 176.39 21.45, 183.23 28.04 C190.06 34.63, 195.58 41.57, 196.86 49.26 C198.15 56.95, 195.1 66.83, 190.94 74.17 C186.77 81.51, 180.7 87.76, 171.87 93.29 C163.03 98.83, 150.01 104.13, 137.91 107.39 C125.82 110.65, 112.46 112.77, 99.29 112.85 C86.12 112.93, 71.13 111.12, 58.88 107.89 C46.63 104.66, 34.63 99.29, 25.8 93.47 C16.96 87.64, 9.94 80.11, 5.87 72.92 C1.8 65.74, 0.33 57.88, 1.38 50.37 C2.44 42.86, 5.71 34.34, 12.2 27.85 C18.69 21.36, 28.44 16.11, 40.32 11.43 C52.19 6.74, 75.25 1.41, 83.45 -0.26 C91.65 -1.94, 89.2 0.15, 89.51 1.38 M106.75 0.2 C119.24 -0.08, 132.51 3.06, 144.1 6.87 C155.69 10.67, 167.85 17.2, 176.3 23.02 C184.75 28.84, 191.89 34.59, 194.8 41.76 C197.7 48.93, 196.1 58.36, 193.73 66.05 C191.37 73.74, 188.06 81.39, 180.6 87.92 C173.14 94.46, 160.37 101.08, 148.97 105.25 C137.57 109.43, 124.99 112.08, 112.19 112.99 C99.39 113.9, 85.14 112.97, 72.18 110.7 C59.22 108.44, 44.89 104.59, 34.45 99.41 C24.02 94.23, 15.1 86.75, 9.57 79.6 C4.03 72.44, 1.45 63.99, 1.22 56.46 C0.98 48.94, 3.18 41.17, 8.17 34.45 C13.16 27.73, 21.89 21.44, 31.15 16.15 C40.4 10.85, 51.2 5.08, 63.69 2.66 C76.17 0.25, 99.08 1.83, 106.05 1.65 C113.03 1.47, 105.61 0.8, 105.53 1.58" stroke="none" stroke-width="0" fill="#f8d7da"></path><path d="M114.26 1.01 C126.97 1.47, 141.86 5.01, 153.18 9.19 C164.51 13.36, 175.2 19.57, 182.23 26.07 C189.27 32.57, 193.56 40.65, 195.4 48.18 C197.24 55.72, 196.97 63.84, 193.28 71.28 C189.59 78.71, 181.78 86.78, 173.25 92.78 C164.71 98.78, 153.76 103.92, 142.06 107.26 C130.36 110.61, 116.42 112.65, 103.05 112.84 C89.68 113.03, 74.19 111.28, 61.83 108.4 C49.47 105.51, 38.02 101.06, 28.89 95.53 C19.77 90, 11.84 82.26, 7.07 75.21 C2.3 68.15, -0.48 60.69, 0.26 53.18 C1 45.67, 5.46 36.88, 11.49 30.17 C17.53 23.46, 25.96 17.56, 36.48 12.94 C47 8.32, 60.32 4.29, 74.63 2.43 C88.94 0.57, 113.47 1.66, 122.33 1.77 C131.19 1.89, 128.3 2.3, 127.81 3.12 M60.01 5.87 C70.65 2.24, 84.34 1, 97.22 0.96 C110.11 0.91, 124.74 2.55, 137.3 5.58 C149.86 8.61, 163.46 13.36, 172.6 19.14 C181.74 24.92, 188.27 33.32, 192.14 40.26 C196 47.21, 197.38 53.26, 195.77 60.79 C194.15 68.33, 189.32 78.57, 182.45 85.49 C175.58 92.4, 165.43 98.02, 154.54 102.28 C143.64 106.54, 129.8 109.48, 117.07 111.03 C104.34 112.58, 90.75 113.07, 78.14 111.6 C65.53 110.14, 52.42 106.66, 41.41 102.25 C30.41 97.85, 18.76 92, 12.13 85.18 C5.49 78.35, 3.02 69.11, 1.6 61.31 C0.18 53.52, -0.57 45.39, 3.61 38.41 C7.8 31.42, 17.4 25.08, 26.72 19.41 C36.04 13.74, 54.18 6.66, 59.52 4.37 C64.86 2.09, 58.25 4.55, 58.76 5.71" stroke="#1e1e1e" stroke-width="2" fill="none"></path></g><g transform="translate(38.07843137254903 484.9636948529412) rotate(0 70.19607843137256 21.058823529411768)"><text x="70.19607843137256" y="28.64054840686275" font-family="Helvetica, Segoe UI Emoji" font-size="28.078431372549026px" fill="#1e1e1e" text-anchor="middle" style="white-space: pre;" direction="ltr" dominant-baseline="alphabetic">Deleted</text></g><g stroke-linecap="round" transform="translate(711.9607843137254 449.8656556372549) rotate(0 98.2745098039216 56.15686274509804)"><path d="M53.47 5.63 C64.1 1.33, 79.61 0.33, 92.76 -0.13 C105.9 -0.59, 119.93 0.35, 132.34 2.88 C144.75 5.42, 157.59 9.69, 167.2 15.06 C176.82 20.43, 185.25 27.73, 190.02 35.1 C194.78 42.47, 196.25 51.49, 195.78 59.28 C195.3 67.07, 193.06 75.29, 187.16 81.83 C181.27 88.37, 170.66 93.63, 160.4 98.51 C150.13 103.39, 138.38 109.05, 125.59 111.1 C112.8 113.15, 96.94 111.91, 83.66 110.8 C70.37 109.69, 57.09 108.35, 45.87 104.41 C34.64 100.48, 23.73 93.52, 16.31 87.21 C8.89 80.9, 3.67 74.04, 1.38 66.54 C-0.92 59.03, -0.65 49.68, 2.56 42.19 C5.78 34.7, 10.63 28.04, 20.66 21.59 C30.7 15.14, 54.36 6.67, 62.79 3.49 C71.21 0.31, 70.8 1.52, 71.22 2.49 M63.34 3.18 C75.08 -0.36, 92.44 -1.03, 105.84 -0.35 C119.24 0.34, 132.37 3.71, 143.75 7.29 C155.12 10.86, 165.77 15.1, 174.1 21.08 C182.42 27.07, 190.4 35.9, 193.69 43.19 C196.99 50.49, 196.1 57.72, 193.84 64.85 C191.58 71.98, 187.22 79.56, 180.12 86 C173.02 92.43, 162.62 99.02, 151.24 103.44 C139.85 107.87, 125.13 111.42, 111.79 112.52 C98.46 113.62, 84.04 112.38, 71.22 110.04 C58.4 107.71, 44.81 103.59, 34.86 98.52 C24.92 93.45, 17.56 86.41, 11.55 79.63 C5.53 72.85, -0.26 65.05, -1.25 57.84 C-2.23 50.63, 0.43 43.59, 5.63 36.37 C10.84 29.14, 20.22 19.83, 29.97 14.48 C39.73 9.13, 58.09 5.78, 64.16 4.29 C70.23 2.8, 65.6 4.75, 66.38 5.55" stroke="none" stroke-width="0" fill="#e2e3e5"></path><path d="M65.56 3.88 C76.84 0.56, 91.71 -0.07, 104.74 0.29 C117.77 0.66, 131.79 2.37, 143.74 6.06 C155.69 9.75, 167.98 16.21, 176.45 22.44 C184.92 28.66, 191.27 35.99, 194.53 43.39 C197.79 50.79, 198.36 59.55, 196.01 66.84 C193.66 74.14, 188.01 80.85, 180.45 87.16 C172.89 93.47, 161.91 100.51, 150.65 104.7 C139.4 108.88, 126.06 111.3, 112.9 112.27 C99.73 113.24, 84.62 112.57, 71.66 110.52 C58.71 108.47, 45.48 104.74, 35.17 99.95 C24.86 95.16, 15.71 88.86, 9.8 81.76 C3.89 74.66, 0.06 65.21, -0.29 57.35 C-0.65 49.49, 2.71 41.65, 7.67 34.6 C12.63 27.55, 17.91 20.5, 29.49 15.05 C41.07 9.59, 66.69 4.19, 77.16 1.88 C87.64 -0.44, 91.82 0.28, 92.34 1.17 M93.44 -0.2 C106.01 -1.81, 121.28 0.13, 133.79 3.03 C146.29 5.92, 159.15 11.72, 168.45 17.15 C177.75 22.59, 184.96 28.66, 189.58 35.64 C194.19 42.63, 196.83 51.65, 196.13 59.04 C195.43 66.44, 191.35 73.19, 185.38 80.02 C179.41 86.86, 170.69 94.8, 160.34 100.06 C149.98 105.32, 135.79 109.68, 123.24 111.6 C110.69 113.52, 97.89 112.81, 85.03 111.58 C72.18 110.36, 57.39 108.32, 46.09 104.26 C34.79 100.19, 24.86 93.65, 17.23 87.2 C9.61 80.75, 2.58 72.84, 0.34 65.57 C-1.9 58.3, 0.38 51.12, 3.77 43.58 C7.16 36.05, 12.25 26.76, 20.66 20.38 C29.07 13.99, 42.49 8.89, 54.24 5.27 C66 1.64, 84.65 -0.85, 91.17 -1.37 C97.7 -1.89, 93.03 0.71, 93.39 2.14" stroke="#1e1e1e" stroke-width="2" fill="none"></path></g><g transform="translate(740.0392156862745 484.9636948529412) rotate(0 70.19607843137254 21.058823529411768)"><text x="70.19607843137256" y="28.64054840686275" font-family="Helvetica, Segoe UI Emoji" font-size="28.078431372549026px" fill="#1e1e1e" text-anchor="middle" style="white-space: pre;" direction="ltr" dominant-baseline="alphabetic">Burned</text></g><g stroke-linecap="round"><g transform="translate(206.54901960784315 295.4342830882353) rotate(0 70.20625780889674 -0.2172508588246984)"><path d="M0.76 -0.51 C24.41 -0.37, 117.53 -0.25, 140.71 -0.09 M-0.3 -1.83 C23.33 -1.41, 116.74 1.37, 139.93 1.39" stroke="#1e1e1e" stroke-width="2" fill="none"></path></g><g transform="translate(206.54901960784315 295.4342830882353) rotate(0 70.20625780889674 -0.2172508588246984)"><path d="M116.29 9.53 C120.23 8.29, 125.66 5.25, 139.93 1.39 M116.29 9.53 C124.72 6.38, 131.14 3.48, 139.93 1.39" stroke="#1e1e1e" stroke-width="2" fill="none"></path></g><g transform="translate(206.54901960784315 295.4342830882353) rotate(0 70.20625780889674 -0.2172508588246984)"><path d="M116.59 -7.56 C120.33 -5.39, 125.7 -5.01, 139.93 1.39 M116.59 -7.56 C125.05 -4.98, 131.37 -2.13, 139.93 1.39" stroke="#1e1e1e" stroke-width="2" fill="none"></path></g></g><mask></mask><g transform="translate(248.66666666666669 260.33624387254906) rotate(0 42.117647058823536 14.03921568627451)"><text x="42.11764705882353" y="20.104595588235295" font-family="Helvetica, Segoe UI Emoji" font-size="22.462745098039218px" fill="#1e1e1e" text-anchor="middle" style="white-space: pre;" direction="ltr" dominant-baseline="alphabetic">Certified</text></g><g stroke-linecap="round"><g transform="translate(557.5294117647059 295.4342830882353) rotate(0 70.27062261084936 0.16550980266183757)"><path d="M-1.15 0.52 C22.29 0.53, 115.73 -0.35, 139.47 -0.48 M0.44 -0.26 C24.36 -0.04, 118.28 0.61, 141.69 0.81" stroke="#1e1e1e" stroke-width="2" fill="none"></path></g><g transform="translate(557.5294117647059 295.4342830882353) rotate(0 70.27062261084936 0.16550980266183757)"><path d="M118.14 9.18 C123.75 6.19, 126.8 7.5, 141.69 0.81 M118.14 9.18 C125.75 7.03, 131.98 4.96, 141.69 0.81" stroke="#1e1e1e" stroke-width="2" fill="none"></path></g><g transform="translate(557.5294117647059 295.4342830882353) rotate(0 70.27062261084936 0.16550980266183757)"><path d="M118.27 -7.92 C123.77 -7.49, 126.81 -2.76, 141.69 0.81 M118.27 -7.92 C125.68 -5.29, 131.87 -2.57, 141.69 0.81" stroke="#1e1e1e" stroke-width="2" fill="none"></path></g></g><mask></mask><g transform="translate(571.5686274509804 260.33624387254906) rotate(0 67.87407684326172 14.03921568627451)"><text x="67.87407684326172" y="20.104595588235295" font-family="Helvetica, Segoe UI Emoji" font-size="22.462745098039218px" fill="#1e1e1e" text-anchor="middle" style="white-space: pre;" direction="ltr" dominant-baseline="alphabetic">Time expires</text></g><g stroke-linecap="round"><g transform="translate(459.25490196078437 351.59114583333337) rotate(0 0.2687971808852012 46.90503352817093)"><path d="M-0.67 -0.86 C-0.43 14.76, 0.14 77.85, 0.23 93.58 M1.19 1.31 C1.39 17.07, -0.24 79.16, -0.59 94.67" stroke="#1e1e1e" stroke-width="2" fill="none"></path></g><g transform="translate(459.25490196078437 351.59114583333337) rotate(0 0.2687971808852012 46.90503352817093)"><path d="M-8.57 70.97 C-8.43 76.14, -6.84 80.27, -0.59 94.67 M-8.57 70.97 C-7.62 76.97, -5.05 80.98, -0.59 94.67" stroke="#1e1e1e" stroke-width="2" fill="none"></path></g><g transform="translate(459.25490196078437 351.59114583333337) rotate(0 0.2687971808852012 46.90503352817093)"><path d="M8.52 71.39 C5.25 76.38, 3.41 80.43, -0.59 94.67 M8.52 71.39 C5.65 77.16, 4.39 81.08, -0.59 94.67" stroke="#1e1e1e" stroke-width="2" fill="none"></path></g></g><mask></mask><g transform="translate(473.2941176470588 379.6695772058824) rotate(0 35.09803921568627 14.039215686274517)"><text x="35.09803921568628" y="20.1045955882353" font-family="Helvetica, Segoe UI Emoji" font-size="22.46274509803922px" fill="#1e1e1e" text-anchor="middle" style="white-space: pre;" direction="ltr" dominant-baseline="alphabetic">Share</text></g><g stroke-linecap="round"><g transform="translate(410.3785378854531 345.6002905683431) rotate(0 -131.89510379958045 53.973892846462675)"><path d="M-0.18 0.17 C-43.91 18.25, -219.68 90.69, -263.61 108.73 M-1.73 -0.78 C-45 16.96, -218.14 89.34, -261.43 107.21" stroke="#1e1e1e" stroke-width="2" fill="none"></path></g><g transform="translate(410.3785378854531 345.6002905683431) rotate(0 -131.89510379958045 53.973892846462675)"><path d="M-243.02 90.3 C-246.38 91.97, -248.42 95.14, -261.43 107.21 M-243.02 90.3 C-250.14 95.66, -256.98 103.03, -261.43 107.21" stroke="#1e1e1e" stroke-width="2" fill="none"></path></g><g transform="translate(410.3785378854531 345.6002905683431) rotate(0 -131.89510379958045 53.973892846462675)"><path d="M-236.46 106.09 C-241.16 104.59, -244.52 104.6, -261.43 107.21 M-236.46 106.09 C-245.92 105.68, -255.17 107.23, -261.43 107.21" stroke="#1e1e1e" stroke-width="2" fill="none"></path></g></g><mask></mask><g transform="translate(16.296875 579.3062193627451) rotate(0 84.0228042602539 21.058823529411768)"><text x="84.0228042602539" y="13.08498774509804" font-family="Helvetica, Segoe UI Emoji" font-size="22.462745098039218px" fill="#1e1e1e" text-anchor="middle" style="white-space: pre;" direction="ltr" dominant-baseline="alphabetic">Delete</text><text x="84.0228042602539" y="27.12420343137255" font-family="Helvetica, Segoe UI Emoji" font-size="22.462745098039218px" fill="#1e1e1e" text-anchor="middle" style="white-space: pre;" direction="ltr" dominant-baseline="alphabetic"></text><text x="84.0228042602539" y="41.16341911764707" font-family="Helvetica, Segoe UI Emoji" font-size="22.462745098039218px" fill="#1e1e1e" text-anchor="middle" style="white-space: pre;" direction="ltr" dominant-baseline="alphabetic">(deletable only)</text></g><g stroke-linecap="round"><g transform="translate(404.841316678866 242.78200923012974) rotate(1.2421721639492096 56.68226611438854 -29.006622718318493)"><path d="M0.31 -1.2 C1.57 -10.3, -11.4 -45.06, 6.36 -53.9 C24.12 -62.73, 89.07 -63.67, 106.86 -54.2 C124.66 -44.74, 112.03 -6.58, 113.13 2.91" stroke="#1e1e1e" stroke-width="2.5" fill="none" stroke-dasharray="8 10"></path></g><g transform="translate(404.841316678866 242.78200923012974) rotate(1.2421721639492096 56.68226611438854 -29.006622718318493)"><path d="M107.04 -21.34 C106.4 -16.26, 110.9 -11.23, 113.13 2.91" stroke="#1e1e1e" stroke-width="2.5" fill="none"></path></g><g transform="translate(404.841316678866 242.78200923012974) rotate(1.2421721639492096 56.68226611438854 -29.006622718318493)"><path d="M124.05 -19.58 C120 -14.81, 121.09 -10.13, 113.13 2.91" stroke="#1e1e1e" stroke-width="2.5" fill="none"></path></g></g><mask></mask><g transform="translate(424.78538602941177 145.0078125) rotate(0 42.117647058823536 14.03921568627451)"><text x="42.11764705882353" y="20.104595588235295" font-family="Helvetica, Segoe UI Emoji" font-size="22.462745098039218px" fill="#1e1e1e" text-anchor="middle" style="white-space: pre;" direction="ltr" dominant-baseline="alphabetic">Extend</text></g><g stroke-linecap="round"><g transform="translate(544.3184742647059 338.15364583333337) rotate(0 94.48244624077248 65.0614420805214)"><path d="M0.79 -0.17 C32.17 21.55, 155.97 109.65, 187.08 131.43 M-0.25 -1.3 C31.59 20.56, 157.52 107.37, 189.21 129.51" stroke="#1e1e1e" stroke-width="2" fill="none"></path></g><g transform="translate(544.3184742647059 338.15364583333337) rotate(0 94.48244624077248 65.0614420805214)"><path d="M165.04 123.15 C169.65 122.43, 175.42 124.29, 189.21 129.51 M165.04 123.15 C171.74 124.48, 178.16 126.12, 189.21 129.51" stroke="#1e1e1e" stroke-width="2" fill="none"></path></g><g transform="translate(544.3184742647059 338.15364583333337) rotate(0 94.48244624077248 65.0614420805214)"><path d="M174.78 109.1 C177.57 111.26, 181.39 115.92, 189.21 129.51 M174.78 109.1 C179.01 114.1, 182.94 119.35, 189.21 129.51" stroke="#1e1e1e" stroke-width="2" fill="none"></path></g></g><mask></mask><g transform="translate(584.447993259804 343.4119178921569) rotate(33.759655326480654 34.1556564031863 13.662262561274517)"><text x="34.15565640318631" y="19.56478693345016" font-family="Helvetica, Segoe UI Emoji" font-size="21.85962009803924px" fill="#1e1e1e" text-anchor="middle" style="white-space: pre;" direction="ltr" dominant-baseline="alphabetic">Burn</text></g><g stroke-linecap="round"><g transform="translate(810.235294117647 351.59114583333337) rotate(0 -0.3077583276490259 43.02132403529194)"><path d="M-1.12 0.86 C-0.91 15.05, -0.24 70.14, 0.06 84.24 M0.49 0.26 C0.65 14.74, -0.81 71.87, -0.86 85.78" stroke="#1e1e1e" stroke-width="2" fill="none"></path></g><g transform="translate(810.235294117647 351.59114583333337) rotate(0 -0.3077583276490259 43.02132403529194)"><path d="M-9.04 62.16 C-6.15 67.06, -5.94 72.77, -0.86 85.78 M-9.04 62.16 C-4.78 71.93, -2.12 81.83, -0.86 85.78" stroke="#1e1e1e" stroke-width="2" fill="none"></path></g><g transform="translate(810.235294117647 351.59114583333337) rotate(0 -0.3077583276490259 43.02132403529194)"><path d="M8.06 62.42 C7.53 67.11, 4.32 72.77, -0.86 85.78 M8.06 62.42 C5.48 72.11, 1.31 81.9, -0.86 85.78" stroke="#1e1e1e" stroke-width="2" fill="none"></path></g></g><mask></mask><g stroke-linecap="round"><g transform="translate(557.5294117647059 506.0225183823529) rotate(0 90.67124092609066 -80.32661065014491)"><path d="M0.32 0.17 C30.91 -26.25, 151.86 -132.44, 182.31 -159.24 M-0.97 -0.78 C29.52 -27.46, 150.52 -134.38, 181.07 -160.83" stroke="#1e1e1e" stroke-width="2" fill="none"></path></g><g transform="translate(557.5294117647059 506.0225183823529) rotate(0 90.67124092609066 -80.32661065014491)"><path d="M169.03 -138.92 C171.85 -144.27, 175.66 -147.48, 181.07 -160.83 M169.03 -138.92 C172.29 -144.4, 174.52 -150.69, 181.07 -160.83" stroke="#1e1e1e" stroke-width="2" fill="none"></path></g><g transform="translate(557.5294117647059 506.0225183823529) rotate(0 90.67124092609066 -80.32661065014491)"><path d="M157.76 -151.78 C162.76 -154.59, 168.83 -155.22, 181.07 -160.83 M157.76 -151.78 C164.15 -153.85, 169.45 -156.63, 181.07 -160.83" stroke="#1e1e1e" stroke-width="2" fill="none"></path></g></g><mask></mask><g transform="translate(549.7531867475152 431.7625465361393) rotate(318.5251577261625 46.513313419555885 9.620910806468814)"><text x="46.513313419555885" y="13.777444928326046" font-family="Helvetica, Segoe UI Emoji" font-size="15.393457290350105px" fill="#1e1e1e" text-anchor="middle" style="white-space: pre;" direction="ltr" dominant-baseline="alphabetic">Time expires</text></g><g stroke-linecap="round"><g transform="translate(381.3480133769044 554.3676382454527) rotate(0 78.61068477109075 29.75659179563715)"><path d="M0.32 0.17 C3.42 9.65, -4.7 46.76, 17.39 56.16 C39.49 65.56, 109.63 66.63, 132.88 56.58 C156.13 46.52, 152.98 5.99, 156.9 -4.16" stroke="#1e1e1e" stroke-width="2.5" fill="none" stroke-dasharray="8 10"></path></g><g transform="translate(381.3480133769044 554.3676382454527) rotate(0 78.61068477109075 29.75659179563715)"><path d="M161.61 20.39 C161.1 14.55, 161.55 10.82, 156.9 -4.16" stroke="#1e1e1e" stroke-width="2.5" fill="none"></path></g><g transform="translate(381.3480133769044 554.3676382454527) rotate(0 78.61068477109075 29.75659179563715)"><path d="M144.73 17.68 C147.58 12.34, 151.41 9.15, 156.9 -4.16" stroke="#1e1e1e" stroke-width="2.5" fill="none"></path></g></g><mask></mask><g transform="translate(415.72962622549016 624.1390165441177) rotate(0 42.117647058823536 14.039215686274503)"><text x="42.11764705882353" y="20.104595588235295" font-family="Helvetica, Segoe UI Emoji" font-size="22.462745098039218px" fill="#1e1e1e" text-anchor="middle" style="white-space: pre;" direction="ltr" dominant-baseline="alphabetic">Extend</text></g><g transform="translate(314.87109375 10) rotate(0 203.48992919921875 20)"><text x="203.48992919921875" y="27.560546875" font-family="Helvetica, Segoe UI Emoji" font-size="28px" fill="#1e1e1e" text-anchor="middle" style="white-space: pre;" direction="ltr" dominant-baseline="alphabetic">Blob Lifecycle State Diagram</text></g><g stroke-linecap="round" transform="translate(60.452549187822285 695.4375) rotate(0 416.2548726871777 91.509765625)"><path d="M32 0 C200.8 -1.24, 370.31 -0.64, 800.51 0 C820.96 2.25, 831.36 12.88, 832.51 32 C832.13 66.26, 832.07 97.75, 832.51 151.02 C834.26 174.17, 818.75 184.91, 800.51 183.02 C494.97 180.43, 187.44 179.95, 32 183.02 C11.82 183.21, -3.24 174.44, 0 151.02 C5.18 107.71, -0.05 68.72, 0 32 C3.42 8.79, 9.74 -0.38, 32 0" stroke="none" stroke-width="0" fill="#ffffff"></path><path d="M32 0 C185.24 -0.12, 338.85 -0.84, 800.51 0 M32 0 C210.18 0.77, 388.66 0.68, 800.51 0 M800.51 0 C821.63 0.41, 831.76 9.12, 832.51 32 M800.51 0 C823.4 -1, 832.53 9.14, 832.51 32 M832.51 32 C831.77 74.54, 830.2 111.68, 832.51 151.02 M832.51 32 C833.71 64.95, 832.94 97.19, 832.51 151.02 M832.51 151.02 C830.97 170.8, 820.85 181.69, 800.51 183.02 M832.51 151.02 C830.74 174.3, 823.25 185.13, 800.51 183.02 M800.51 183.02 C581.09 185.62, 361.13 184.28, 32 183.02 M800.51 183.02 C577.21 184.26, 354.37 184.27, 32 183.02 M32 183.02 C12.17 182.11, -1.45 172.71, 0 151.02 M32 183.02 C12.22 182.47, -2.05 170.74, 0 151.02 M0 151.02 C1.07 115.65, -1.51 82.35, 0 32 M0 151.02 C-1.63 106.88, -1.87 62.36, 0 32 M0 32 C1.51 12.56, 10.57 -0.54, 32 0 M0 32 C-0.83 10.86, 9.89 1.45, 32 0" stroke="#1e1e1e" stroke-width="2" fill="none"></path></g><g transform="translate(99.57582589660143 708.4373352290033) rotate(0 130.0306684837068 16.253833560463363)"><text x="0" y="23.27599759088228" font-family="Helvetica, Segoe UI Emoji" font-size="26.006133696741358px" fill="#1e1e1e" text-anchor="start" style="white-space: pre;" direction="ltr" dominant-baseline="alphabetic">Legend:</text></g><g transform="translate(99.57582589660143 747.4465357741153) rotate(0 386.31570673822443 56.888417461621714)"><text x="0" y="13.74464800456682" font-family="Helvetica, Segoe UI Emoji" font-size="20.804906957393086px" fill="#1e1e1e" text-anchor="start" style="white-space: pre;" direction="ltr" dominant-baseline="alphabetic">• Solid arrows = State transitions</text><text x="0" y="29.99848156503017" font-family="Helvetica, Segoe UI Emoji" font-size="20.804906957393086px" fill="#1e1e1e" text-anchor="start" style="white-space: pre;" direction="ltr" dominant-baseline="alphabetic"></text><text x="0" y="46.25231512549352" font-family="Helvetica, Segoe UI Emoji" font-size="20.804906957393086px" fill="#1e1e1e" text-anchor="start" style="white-space: pre;" direction="ltr" dominant-baseline="alphabetic">• Dashed arrows = Self-loops (same state, extended duration)</text><text x="0" y="62.506148685956866" font-family="Helvetica, Segoe UI Emoji" font-size="20.804906957393086px" fill="#1e1e1e" text-anchor="start" style="white-space: pre;" direction="ltr" dominant-baseline="alphabetic"></text><text x="0" y="78.75998224642021" font-family="Helvetica, Segoe UI Emoji" font-size="20.804906957393086px" fill="#1e1e1e" text-anchor="start" style="white-space: pre;" direction="ltr" dominant-baseline="alphabetic">• Delete only works on deletable blobs (permanent blobs cannot be deleted)</text><text x="0" y="95.01381580688357" font-family="Helvetica, Segoe UI Emoji" font-size="20.804906957393086px" fill="#1e1e1e" text-anchor="start" style="white-space: pre;" direction="ltr" dominant-baseline="alphabetic"></text><text x="0" y="111.2676493673469" font-family="Helvetica, Segoe UI Emoji" font-size="20.804906957393086px" fill="#1e1e1e" text-anchor="start" style="white-space: pre;" direction="ltr" dominant-baseline="alphabetic">• Burn removes control but data remains on Walrus</text></g></svg>